<svg xmlns="http://www.w3.org/2000/svg" xmlns:xlink="http://www.w3.org/1999/xlink" xmlns:inkscape="http://www.inkscape.org/namespaces/inkscape" version="1.1" width="235" height="193" viewBox="0 0 235 193">
<defs>
<path id="font_1_1" d="M.74398806 .2263794C.7599945 .2263794 .7839966 .2263794 .7839966 .25038148 .7839966 .27539063 .7609863 .27539063 .74398806 .27539063H.147995C.13198853 .27539063 .10798645 .27539063 .10798645 .25138856 .10798645 .2263794 .1309967 .2263794 .147995 .2263794H.74398806Z"/>
<path id="font_2_2" d="M.33499146 .63612368C.33499146 .6630554 .33299256 .6640625 .30499269 .6640625 .24099732 .6014404 .1499939 .6004486 .10899353 .6004486V.5644531C.1329956 .5644531 .19898987 .5644531 .2539978 .592453V.08203125C.2539978 .04899597 .2539978 .035995485 .1539917 .035995485H.115997318V0C.13398743 .0009918213 .25698854 .0039978029 .2939911 .0039978029 .32499696 .0039978029 .45098878 .0009918213 .47299195 0V.035995485H.43499757C.33499146 .035995485 .33499146 .04899597 .33499146 .08203125V.63612368Z"/>
<path id="font_2_1" d="M.5159912 .31925965C.5159912 .42918397 .5029907 .50813296 .45700074 .5780945 .42599488 .62405398 .3639984 .6640625 .28399659 .6640625 .051986696 .6640625 .051986696 .39120484 .051986696 .31925965 .051986696 .2472992 .051986696-.01953125 .28399659-.01953125 .5159912-.01953125 .5159912 .2472992 .5159912 .31925965M.28399659 .008468628C.23799134 .008468628 .1769867 .035446168 .15699768 .117385867 .14299011 .17634583 .14299011 .25830079 .14299011 .33224488 .14299011 .40519715 .14299011 .4811554 .1579895 .53611758 .1789856 .6150665 .24299622 .63604739 .28399659 .63604739 .33799745 .63604739 .3899994 .6030731 .4079895 .545105 .42399598 .4911499 .4249878 .41918946 .4249878 .33224488 .4249878 .25830079 .4249878 .18434143 .4119873 .12138367 .3919983 .030441285 .32398988 .008468628 .28399659 .008468628Z"/>
<path id="font_2_3" d="M.5049896 .18203736H.47099305C.46798707 .16001892 .45799256 .100997928 .44499208 .09098816 .43699647 .084991458 .3600006 .084991458 .34599305 .084991458H.1619873C.2669983 .17803955 .3019867 .20603943 .3619995 .25306703 .43598939 .312088 .5049896 .374115 .5049896 .46914674 .5049896 .5900879 .39898683 .6640625 .2709961 .6640625 .14698792 .6640625 .06298828 .57710269 .06298828 .4851532 .06298828 .43414308 .10598755 .42915345 .115997318 .42915345 .13999939 .42915345 .16899109 .44615174 .16899109 .48214723 .16899109 .5001526 .1619873 .53515627 .10998535 .53515627 .14099121 .6060791 .20899964 .62805178 .2559967 .62805178 .35598756 .62805178 .4079895 .5501404 .4079895 .46914674 .4079895 .38212586 .34599305 .3130951 .31399537 .27708436L.07299805 .038986207C.06298828 .02999878 .06298828 .027999878 .06298828 0H.47499085L.5049896 .18203736Z"/>
<path id="font_2_4" d="M.5289917 .1640625V.20005799H.41799928V.64582827C.41799928 .66682437 .41799928 .6738281 .3959961 .6738281 .38398744 .6738281 .37998963 .6738281 .36999513 .65982058L.038986207 .20005799V.1640625H.33299256V.08201599C.33299256 .04800415 .33299256 .035995485 .2519989 .035995485H.22499085V0C.2749939 .0019989014 .33898927 .0039978029 .375 .0039978029 .4119873 .0039978029 .47599793 .0019989014 .526001 0V.035995485H.49899293C.41799928 .035995485 .41799928 .04800415 .41799928 .08201599V.1640625H.5289917M.33999635 .5658722V.20005799H.07598877L.33999635 .5658722Z"/>
<path id="font_2_5" d="M.1499939 .3274536C.1499939 .40945436 .15699768 .48303224 .19499207 .543869 .22898865 .5978699 .2829895 .63505557 .34700013 .63505557 .3769989 .63505557 .4169922 .62701418 .43699647 .5998688 .4119873 .5978699 .3909912 .5808716 .3909912 .5518799 .3909912 .5268707 .4079895 .5048828 .43798829 .5048828 .46798707 .5048828 .48599244 .5248718 .48599244 .5538788 .48599244 .6119385 .44400025 .6640625 .34498597 .6640625 .20098877 .6640625 .053985597 .5318756 .053985597 .3174591 .053985597 .05845642 .17599488-.01953125 .28599549-.01953125 .4079895-.01953125 .5139923 .07345581 .5139923 .20445252 .5139923 .33145143 .41299439 .42546083 .29599 .42546083 .21598816 .42546083 .17199707 .37245179 .1499939 .3274536M.28599549 .012466431C.23599243 .012466431 .19699097 .04145813 .17599488 .08546448 .16099549 .11546326 .15299988 .16545105 .15299988 .22544861 .15299988 .32244874 .21099854 .39746095 .29100038 .39746095 .33699037 .39746095 .36799623 .37945558 .3929901 .342453 .4169922 .30445863 .41799928 .26245118 .41799928 .20445252 .41799928 .14746094 .41799928 .10545349 .3909912 .066467288 .36698915 .031463624 .33499146 .012466431 .28599549 .012466431Z"/>
<path id="font_2_6" d="M.35499574 .36123658C.43299867 .3992157 .48298646 .44618226 .48298646 .5151367 .48298646 .6120758 .38198854 .6640625 .2849884 .6640625 .1749878 .6640625 .084991458 .5920868 .084991458 .4971466 .084991458 .45018006 .10699463 .41619874 .125 .39620973 .14299011 .37522889 .1499939 .37123109 .20899964 .33624269 .15299988 .31227113 .053985597 .25830079 .053985597 .15336609 .053985597 .042434694 .16899109-.01953125 .2829895-.01953125 .4099884-.01953125 .5139923 .061431886 .5139923 .1693573 .5139923 .23532105 .47499085 .29127503 .4169922 .32525636 .4039917 .33325196 .36898805 .35324098 .35499574 .36123658M.19198609 .45617677C.1659851 .4711609 .13798523 .49813844 .13798523 .53512576 .13798523 .5980835 .21099854 .63505557 .2829895 .63505557 .36099244 .63505557 .42999269 .5860901 .42999269 .5151367 .42999269 .42619325 .32598878 .3812256 .32398988 .3812256 .32199098 .3812256 .31999208 .3822174 .31298829 .3862152L.19198609 .45617677M.24099732 .31726075 .37799073 .23831177C.4039917 .22332764 .45399476 .19334412 .45399476 .13438416 .45399476 .059432985 .37098695 .012466431 .2849884 .012466431 .19299317 .012466431 .11399841 .07142639 .11399841 .15336609 .11399841 .22732544 .16899109 .2842865 .24099732 .31726075Z"/>
<clipPath id="clip_3">
<path transform="matrix(1.00005,0,0,-1,95.95303,116.129)" d="M-75.70227-44.05594V78.29694L-8.82704 114.33128 134.5516 97.5353V-24.81757L67.67638-60.85193Z"/>
</clipPath>
<path id="font_4_1" d="M.34098817-.23803711C.34098817-.23303223 .33799745-.23002625 .33198548-.22303772 .20298767-.105026248 .1639862 .07498169 .1639862 .24996948 .1639862 .40498353 .19400025 .59298709 .33499146 .72698977 .33898927 .73098757 .34098817 .73399356 .34098817 .7389984 .34098817 .74598696 .33599855 .75 .32899476 .75 .31698609 .75 .22698975 .6779785 .17298889 .568985 .125 .47297669 .100997928 .36997987 .100997928 .25097657 .100997928 .17897034 .10998535 .064971927 .16499329-.053024293 .22399903-.17602539 .31698609-.24902344 .32899476-.24902344 .33599855-.24902344 .34098817-.24502564 .34098817-.23803711Z"/>
<path id="font_4_4" d="M.3039856 .6392822C.3039856 .6642761 .30299378 .666275 .27799989 .666275 .21598816 .60227969 .12399292 .60227969 .09298706 .60227969V.57128909C.11199951 .57128909 .17298889 .57128909 .22698975 .5972748V.08001709C.22698975 .042999269 .22399903 .0309906 .1309967 .0309906H.09899902V0C.1349945 .0029907227 .22399903 .0029907227 .2649994 .0029907227 .30599977 .0029907227 .3959961 .0029907227 .43199159 0V.0309906H.3999939C.30699159 .0309906 .3039856 .042999269 .3039856 .08001709V.6392822Z"/>
<path id="font_5_2" d="M.18199158 .015991211C.18199158-.017044068 .18199158-.09921265 .10798645-.17036438 .101989749-.17636109 .101989749-.17736817 .101989749-.18136597 .101989749-.18836975 .10899353-.19335938 .114990238-.19335938 .12599182-.19335938 .20698548-.115249637 .20698548 .0019989014 .20698548 .06399536 .18499756 .10798645 .14199829 .10798645 .10798645 .10798645 .08799744 .08198547 .08799744 .053985597 .08799744 .025985718 .10798645 0 .14199829 0 .15699768 0 .17199707 .004989624 .18199158 .015991211Z"/>
<path id="font_4_3" d="M.47299195 .31976319C.47299195 .38682557 .46998597 .47288514 .43499757 .5479431 .3909912 .64201357 .31498719 .6660156 .25698854 .6660156 .19699097 .6660156 .12098694 .64201357 .07699585 .5459442 .04499817 .47688294 .039993287 .39582826 .039993287 .31976319 .039993287 .25471498 .041992189 .15765381 .084991458 .07858276 .13198853-.0064697267 .20999146-.022460938 .2559967-.022460938 .32099916-.022460938 .394989 .0055389406 .43699647 .097595218 .46699525 .1646576 .47299195 .23971558 .47299195 .31976319M.25698854 .002532959C.22698975 .002532959 .15499878 .016540528 .13598633 .12962342 .12599182 .18867493 .12599182 .2747345 .12599182 .33177186 .12599182 .39982606 .12599182 .47888185 .13798523 .53393557 .1579895 .6230011 .22200012 .64100649 .2559967 .64100649 .2939911 .64100649 .35699464 .62098696 .37599183 .5279236 .3869934 .47288514 .3869934 .39482118 .3869934 .33177186 .3869934 .2697296 .3869934 .18566895 .3769989 .12661743 .35598756 .012542725 .28199769 .002532959 .25698854 .002532959Z"/>
<path id="font_4_2" d="M.2979889 .25097657C.2979889 .3329773 .28599549 .4429779 .23399353 .5539856 .1749878 .6769867 .08198547 .75 .069992069 .75 .05999756 .75 .057998659 .74198916 .057998659 .7389984 .057998659 .73399356 .05999756 .73098757 .066986087 .72398379 .125 .6719818 .23498535 .5359802 .23498535 .25097657 .23498535 .10797119 .20899964-.091033939 .06399536-.22602844 .06199646-.22903443 .057998659-.23303223 .057998659-.23803711 .057998659-.24102783 .05999756-.24902344 .069992069-.24902344 .08198547-.24902344 .17199707-.17703247 .22599793-.06802368 .27398683 .02796936 .2979889 .13098145 .2979889 .25097657Z"/>
<path id="font_4_5" d="M.46199037 .17704773H.43399049C.43199159 .16404724 .42399598 .10501099 .41099549 .08900452 .40499879 .07998657 .33599855 .07998657 .31599427 .07998657H.13798523L.23699951 .17404175C.40098573 .3161316 .46199037 .36915589 .46199037 .4711914 .46199037 .5860901 .36698915 .6660156 .24398804 .6660156 .1289978 .6660156 .050994874 .575119 .050994874 .4841919 .050994874 .43418885 .09399414 .42919923 .102996829 .42919923 .125 .42919923 .15499878 .44519044 .15499878 .48120118 .15499878 .51119998 .13398743 .5332031 .102996829 .5332031 .09799194 .5332031 .09498596 .5332031 .09098816 .53219607 .114990238 .6030731 .1789856 .63500979 .23298645 .63500979 .33499146 .63500979 .36999513 .5401764 .36999513 .4711914 .36999513 .36915589 .29299928 .28611756 .24499512 .23408509L.06199646 .035995485C.050994874 .024993897 .050994874 .022994996 .050994874 0H.43399049L.46199037 .17704773Z"/>
<path id="font_5_1" d="M.272995 .36865235H.3869934C.37199403 .30575563 .34599305 .20193482 .34599305 .11906433 .34599305 .112075809 .34599305 .075149539 .35499574 .03919983 .36499024 .0012512207 .37399293-.0107421879 .3939972-.0107421879 .4149933-.0107421879 .43699647 .007247925 .43699647 .030212403 .43699647 .037200929 .43598939 .04020691 .42999269 .05317688 .39898683 .123062137 .39898683 .19694519 .39898683 .21990967 .39898683 .24485779 .39898683 .28878785 .41600038 .36865235H.5329895C.54599 .36865235 .58299258 .36865235 .58299258 .4046631 .58299258 .43066407 .5609894 .43066407 .5419922 .43066407H.19599915C.17199707 .43066407 .13699341 .43066407 .08999634 .38365174 .06298828 .3566742 .026992798 .30177308 .026992798 .29377748 .026992798 .2828064 .037994386 .2828064 .040985109 .2828064 .04899597 .2828064 .050994874 .28479005 .056991579 .29478456 .10598755 .36865235 .16699219 .36865235 .18699646 .36865235H.24398804C.20098877 .21791077 .13198853 .07614136 .125 .061172487 .117996219 .047195436 .10798645 .026229859 .10798645 .018234253 .10798645 .0052490236 .116989139-.0107421879 .13899231-.0107421879 .1749878-.0107421879 .18399048 .025222779 .20498657 .10609436L.272995 .36865235Z"/>
<path id="font_5_3" d="M.49198915 .40434266C.45498658 .39733888 .44400025 .3653412 .44400025 .3503418 .44400025 .33132936 .45799256 .31433106 .48298646 .31433106 .5109863 .31433106 .5379944 .33833314 .5379944 .3733368 .5379944 .41937257 .48799134 .4423828 .44099427 .4423828 .3809967 .4423828 .34599305 .38934327 .33399964 .3683319 .31498719 .41737367 .2709961 .4423828 .22299195 .4423828 .115997318 .4423828 .057998659 .31433106 .057998659 .28833009 .057998659 .2793274 .06498718 .2763214 .07199097 .2763214 .08099365 .2763214 .083999637 .2813263 .085998538 .287323 .116989139 .38633729 .18299866 .41737367 .22099304 .41737367 .25 .41737367 .27598573 .3983307 .27598573 .35133363 .27598573 .31533814 .23298645 .15530396 .21998596 .107284549 .21199036 .076293949 .18199158 .014251709 .1269989 .014251709 .10699463 .014251709 .085998538 .021270752 .07598877 .027282715 .102996829 .032287599 .12298584 .055282594 .12298584 .08128357 .12298584 .106292728 .10398865 .11729431 .084991458 .11729431 .055999757 .11729431 .02999878 .092285159 .02999878 .058288576 .02999878 .009246826 .083999637-.0107421879 .12599182-.0107421879 .18399048-.0107421879 .21798706 .03729248 .23298645 .06428528 .2579956-.0017547608 .31698609-.0107421879 .34399415-.0107421879 .45199586-.0107421879 .5089874 .11929321 .5089874 .14329529 .5089874 .14830017 .5059967 .15530396 .49598695 .15530396 .4850006 .15530396 .48399354 .1512909 .47898866 .1362915 .45700074 .06428528 .39898683 .014251709 .34700013 .014251709 .31799317 .014251709 .29100038 .032287599 .29100038 .08029175 .29100038 .10229492 .30499269 .15730286 .31399537 .1953125 .31799317 .21331787 .34498597 .32133485 .34700013 .32833863 .35899354 .3643341 .3889923 .41737367 .43998719 .41737367 .45799256 .41737367 .47698976 .41436769 .49198915 .40434266Z"/>
<path id="font_5_4" d="M.5019989 .38536073C.5029907 .3903656 .5049896 .39637757 .5049896 .40237428 .5049896 .41537477 .49598695 .43138124 .47399903 .43138124 .46099855 .43138124 .44299317 .42337037 .43499757 .40437318 .43399049 .40037538 .42399598 .35935975 .41799928 .33735658L.36799623 .13728333C.3600006 .10827637 .3600006 .106277469 .35798646 .09727478 .35699464 .09327698 .31498719 .014251709 .24299622 .014251709 .18099976 .014251709 .18099976 .07727051 .18099976 .09628296 .18099976 .14129639 .19400025 .19030762 .23699951 .30233766 .24499512 .3253479 .25099183 .33935548 .25099183 .35835267 .25099183 .40737916 .21398926 .4423828 .16499329 .4423828 .068984989 .4423828 .0289917 .30033876 .0289917 .28833009 .0289917 .2793274 .035995485 .27633668 .042999269 .27633668 .053985597 .27633668 .054992677 .28233338 .05899048 .29533387 .07998657 .3693695 .11999512 .41737367 .1619873 .41737367 .18598938 .41737367 .18598938 .39837647 .18598938 .3843689 .18598938 .36735536 .18199158 .34934999 .17298889 .3253479 .12599182 .2013092 .11299133 .15930176 .11299133 .11128235 .11299133 .00024414063 .20298767-.0107421879 .23999024-.0107421879 .2889862-.0107421879 .32398988 .01524353 .34199525 .0332489 .32899476-.017745972 .31799317-.0627594 .2789917-.11276245 .24899292-.15286255 .20899964-.18008423 .16499329-.18008423 .13699341-.18008423 .10398865-.16999817 .08999634-.14176941 .14299011-.14176941 .1499939-.09776306 .1499939-.087768558 .1499939-.06576538 .13398743-.051757814 .11199951-.051757814 .08799744-.051757814 .055999757-.07077026 .055999757-.116760257 .055999757-.16899109 .101989749-.20507813 .16499329-.20507813 .2669983-.20507813 .37599183-.117767337 .40499879-.00074768069L.5019989 .38536073Z"/>
<path id="font_5_5" d="M.13899231 .08526611C.1599884 .11027527 .21499634 .16029358 .2579956 .19630432 .33198548 .25933839 .35499574 .28134156 .36799623 .29534913 .44999696 .3743744 .47698976 .42536927 .47698976 .43138124 .47698976 .43237306 .47698976 .4423828 .46398927 .4423828 .45498658 .4423828 .45298768 .43937684 .44799806 .43138124 .43499757 .41137696 .4079895 .3683777 .37399293 .3683777 .35398866 .3683777 .34098817 .37937928 .31799317 .40538026 .2939911 .43138124 .2749939 .4423828 .24899292 .4423828 .17199707 .4423828 .125 .3503723 .125 .32536317 .125 .32235719 .1269989 .3143463 .13798523 .3143463 .147995 .3143463 .15098572 .32035829 .1519928 .32336427 .17098999 .3713684 .22999573 .3713684 .23799134 .3713684 .26098634 .3713684 .2849884 .36437989 .30699159 .35636903 .34700013 .34336854 .3639984 .34336854 .3789978 .34336854 .34799195 .3083496 .2919922 .2603302 .22898865 .20631409 .1789856 .16329956 .147995 .13328552 .12599182 .11126709 .08898926 .072250369 .04399109 .011245728 .04399109 .00024414063 .04399109-.0067443849 .04899597-.0107421879 .056991579-.0107421879 .06599426-.0107421879 .067993167-.0067443849 .07299805-.00074768069 .11199951 .059249879 .14898682 .06324768 .1599884 .06324768 .18499756 .06324768 .19898987 .04824829 .22099304 .022247315 .24398804-.002746582 .2659912-.0107421879 .28599549-.0107421879 .3889923-.0107421879 .44898988 .11727905 .44898988 .14428711 .44898988 .1532898 .44198609 .15629578 .43499757 .15629578 .4249878 .15629578 .4229889 .14929199 .42099 .14527893 .3939972 .071258548 .32299806 .060256959 .29699708 .060256959 .27799989 .060256959 .2579956 .06524658 .22799683 .07525635 .20799256 .08125305 .18399048 .088256839 .16299439 .088256839 .15299988 .088256839 .14299011 .086257938 .13899231 .08526611Z"/>
</defs>
<path transform="matrix(1.00005,0,0,-1,95.95303,116.129)" stroke-width=".3985" stroke-linecap="butt" stroke-miterlimit="10" stroke-linejoin="miter" fill="none" stroke="#dfdfdf" d="M-16.54266-12.17899 126.83598-28.97498M-42.26439-26.0386 101.11424-42.83461M-67.98615-39.89825 75.3925-56.69424"/>
<path transform="matrix(1.00005,0,0,-1,95.95303,116.129)" stroke-width=".3985" stroke-linecap="butt" stroke-miterlimit="10" stroke-linejoin="miter" fill="none" stroke="#dfdfdf" d="M7.7095-9.95874-59.16571-45.9931M62.86227-16.41957-4.01295-52.45393M118.01505-22.88042 51.13982-58.91478"/>
<path transform="matrix(1.00005,0,0,-1,95.95303,116.129)" stroke-width=".19925" stroke-linecap="butt" stroke-miterlimit="10" stroke-linejoin="miter" fill="none" stroke="#7f807f" d="M-16.54266-12.17899-12.31909-12.67375M-42.26439-26.0386-38.04083-26.53337M-67.98615-39.89825-63.76257-40.39302M126.83598-28.97498 122.61241-28.48021M101.11424-42.83461 96.89069-42.33984M75.3925-56.69424 71.16893-56.1995"/>
<path transform="matrix(1.00005,0,0,-1,95.95303,116.129)" stroke-width=".19925" stroke-linecap="butt" stroke-miterlimit="10" stroke-linejoin="miter" fill="none" stroke="#7f807f" d="M7.7095-9.95874 3.96625-11.97572M62.86227-16.41957 59.11902-18.43655M118.01505-22.88042 114.27179-24.8974M-59.16571-45.9931-55.42245-43.97614M-4.01295-52.45393-.26968-50.43697M51.13982-58.91478 54.88307-56.89781"/>
<path transform="matrix(1.00005,0,0,-1,95.95303,116.129)" stroke-width=".3985" stroke-linecap="butt" stroke-miterlimit="10" stroke-linejoin="miter" fill="none" stroke="#000000" d="M-8.82704-8.02158-75.70227-44.05594"/>
<path transform="matrix(1.00005,0,0,-1,95.95303,116.129)" stroke-width=".3985" stroke-linecap="butt" stroke-miterlimit="10" stroke-linejoin="miter" fill="none" stroke="#000000" d="M134.5516-24.81757 67.67638-60.85193"/>
<path transform="matrix(1.00005,0,0,-1,95.95303,116.129)" stroke-width=".3985" stroke-linecap="butt" stroke-miterlimit="10" stroke-linejoin="miter" fill="none" stroke="#000000" d="M-8.82704-8.02158 134.5516-24.81757"/>
<path transform="matrix(1.00005,0,0,-1,95.95303,116.129)" stroke-width=".3985" stroke-linecap="butt" stroke-miterlimit="10" stroke-linejoin="miter" fill="none" stroke="#000000" d="M-75.70227-44.05594 67.67638-60.85193"/>
<use data-text="&#x2212;" xlink:href="#font_1_1" transform="matrix(6.9741489,0,0,-6.9738,224.20745,154.254)"/>
<use data-text="1" xlink:href="#font_2_2" transform="matrix(6.9741489,0,0,-6.9738,230.43376,154.254)"/>
<use data-text="0" xlink:href="#font_2_1" transform="matrix(6.9741489,0,0,-6.9738,200.33924,167.114)"/>
<use data-text="1" xlink:href="#font_2_2" transform="matrix(6.9741489,0,0,-6.9738,174.61698,180.974)"/>
<use data-text="&#x2212;" xlink:href="#font_1_1" transform="matrix(6.9741489,0,0,-6.9738,27.67163,170.676)"/>
<use data-text="1" xlink:href="#font_2_2" transform="matrix(6.9741489,0,0,-6.9738,33.89795,170.676)"/>
<use data-text="0" xlink:href="#font_2_1" transform="matrix(6.9741489,0,0,-6.9738,86.37556,176.823)"/>
<use data-text="1" xlink:href="#font_2_2" transform="matrix(6.9741489,0,0,-6.9738,141.53131,183.284)"/>
<path transform="matrix(1.00005,0,0,-1,95.95303,116.129)" stroke-width=".19925" stroke-linecap="butt" stroke-miterlimit="10" stroke-linejoin="miter" fill="none" stroke="#7f807f" d="M-16.54266 110.17389-12.31909 109.67912M-42.26439 96.31425-38.04083 95.81949M-67.98615 82.4546-63.76257 81.95985"/>
<path transform="matrix(1.00005,0,0,-1,95.95303,116.129)" stroke-width=".19925" stroke-linecap="butt" stroke-miterlimit="10" stroke-linejoin="miter" fill="none" stroke="#7f807f" d="M7.7095 112.39412 3.96625 110.37714M62.86227 105.93329 59.11902 103.9163M118.01505 99.47246 114.27179 97.45547"/>
<path transform="matrix(1.00005,0,0,-1,95.95303,116.129)" stroke-width=".3985" stroke-linecap="butt" stroke-miterlimit="10" stroke-linejoin="miter" fill="none" stroke="#000000" d="M-8.82704 114.33128-75.70227 78.29694"/>
<path transform="matrix(1.00005,0,0,-1,95.95303,116.129)" stroke-width=".3985" stroke-linecap="butt" stroke-miterlimit="10" stroke-linejoin="miter" fill="none" stroke="#000000" d="M-8.82704 114.33128 134.5516 97.5353"/>
<path transform="matrix(1.00005,0,0,-1,95.95303,116.129)" stroke-width=".3985" stroke-linecap="butt" stroke-miterlimit="10" stroke-linejoin="miter" fill="none" stroke="#dfdfdf" d="M7.7095-9.95874V112.39412M62.86227-16.41957V105.93329M118.01505-22.88042V99.47246"/>
<path transform="matrix(1.00005,0,0,-1,95.95303,116.129)" stroke-width=".19925" stroke-linecap="butt" stroke-miterlimit="10" stroke-linejoin="miter" fill="none" stroke="#7f807f" d="M7.7095-9.95874V-5.70694M62.86227-16.41957V-12.16776M118.01505-22.88042V-18.6286M7.7095 112.39412V108.1423M62.86227 105.93329V101.68147M118.01505 99.47246V95.22064"/>
<path transform="matrix(1.00005,0,0,-1,95.95303,116.129)" stroke-width=".3985" stroke-linecap="butt" stroke-miterlimit="10" stroke-linejoin="miter" fill="none" stroke="#dfdfdf" d="M-8.82704 6.09561 134.5516-10.70038M-8.82704 29.62523 134.5516 12.82922M-8.82704 53.15485 134.5516 36.35886M-8.82704 76.68448 134.5516 59.88847M-8.82704 100.2141 134.5516 83.41809"/>
<path transform="matrix(1.00005,0,0,-1,95.95303,116.129)" stroke-width=".19925" stroke-linecap="butt" stroke-miterlimit="10" stroke-linejoin="miter" fill="none" stroke="#7f807f" d="M-8.82704 6.09561-4.60347 5.60085M-8.82704 29.62523-4.60347 29.13046M-8.82704 53.15485-4.60347 52.66008M-8.82704 76.68448-4.60347 76.18971M-8.82704 100.2141-4.60347 99.71933M134.5516-10.70038 130.32805-10.20561M134.5516 12.82922 130.32805 13.32399M134.5516 36.35886 130.32805 36.85362M134.5516 59.88847 130.32805 60.38324M134.5516 83.41809 130.32805 83.91286"/>
<path transform="matrix(1.00005,0,0,-1,95.95303,116.129)" stroke-width=".3985" stroke-linecap="butt" stroke-miterlimit="10" stroke-linejoin="miter" fill="none" stroke="#000000" d="M-8.82704-8.02158V114.33128"/>
<path transform="matrix(1.00005,0,0,-1,95.95303,116.129)" stroke-width=".3985" stroke-linecap="butt" stroke-miterlimit="10" stroke-linejoin="miter" fill="none" stroke="#000000" d="M134.5516-24.81757V97.5353"/>
<path transform="matrix(1.00005,0,0,-1,95.95303,116.129)" stroke-width=".19925" stroke-linecap="butt" stroke-miterlimit="10" stroke-linejoin="miter" fill="none" stroke="#7f807f" d="M-59.16571-45.9931V-41.7413M-4.01295-52.45393V-48.20212M51.13982-58.91478V-54.66296"/>
<path transform="matrix(1.00005,0,0,-1,95.95303,116.129)" stroke-width=".19925" stroke-linecap="butt" stroke-miterlimit="10" stroke-linejoin="miter" fill="none" stroke="#7f807f" d="M-75.70227-29.93874-71.47871-30.4335M-75.70227-6.40912-71.47871-6.90388M-75.70227 17.12048-71.47871 16.62573M-75.70227 40.65012-71.47871 40.15535M-75.70227 64.17973-71.47871 63.68497"/>
<path transform="matrix(1.00005,0,0,-1,95.95303,116.129)" stroke-width=".3985" stroke-linecap="butt" stroke-miterlimit="10" stroke-linejoin="miter" fill="none" stroke="#000000" d="M-75.70227-44.05594V78.29694"/>
<use data-text="0" xlink:href="#font_2_1" transform="matrix(6.9741489,0,0,-6.9738,12.755875,149.366)"/>
<use data-text="2" xlink:href="#font_2_3" transform="matrix(6.9741489,0,0,-6.9738,12.755875,125.837)"/>
<use data-text="4" xlink:href="#font_2_4" transform="matrix(6.9741489,0,0,-6.9738,12.755875,102.307)"/>
<use data-text="6" xlink:href="#font_2_5" transform="matrix(6.9741489,0,0,-6.9738,12.755875,78.77699)"/>
<use data-text="8" xlink:href="#font_2_6" transform="matrix(6.9741489,0,0,-6.9738,12.755875,55.247999)"/>
<path transform="matrix(1.00005,0,0,-1,95.95303,116.129)" stroke-width=".3985" stroke-linecap="butt" stroke-miterlimit="10" stroke-linejoin="miter" fill="none" stroke="#dfdfdf" d="M-16.54266-12.17899V110.17389M-42.26439-26.0386V96.31425M-67.98615-39.89825V82.4546"/>
<path transform="matrix(1.00005,0,0,-1,95.95303,116.129)" stroke-width=".19925" stroke-linecap="butt" stroke-miterlimit="10" stroke-linejoin="miter" fill="none" stroke="#7f807f" d="M-16.54266-12.17899V-7.92717M-42.26439-26.0386V-21.7868M-67.98615-39.89825V-35.64644M-16.54266 110.17389V105.92207M-42.26439 96.31425V92.06244M-67.98615 82.4546V78.2028"/>
<path transform="matrix(1.00005,0,0,-1,95.95303,116.129)" stroke-width=".3985" stroke-linecap="butt" stroke-miterlimit="10" stroke-linejoin="miter" fill="none" stroke="#dfdfdf" d="M-8.82704 6.09561-75.70227-29.93874M-8.82704 29.62523-75.70227-6.40912M-8.82704 53.15485-75.70227 17.12048M-8.82704 76.68448-75.70227 40.65012M-8.82704 100.2141-75.70227 64.17973"/>
<path transform="matrix(1.00005,0,0,-1,95.95303,116.129)" stroke-width=".19925" stroke-linecap="butt" stroke-miterlimit="10" stroke-linejoin="miter" fill="none" stroke="#7f807f" d="M-8.82704 6.09561-12.5703 4.07863M-8.82704 29.62523-12.5703 27.60825M-8.82704 53.15485-12.5703 51.13786M-8.82704 76.68448-12.5703 74.6675M-8.82704 100.2141-12.5703 98.19711M-75.70227-29.93874-71.95901-27.92177M-75.70227-6.40912-71.95901-4.39215M-75.70227 17.12048-71.95901 19.13747M-75.70227 40.65012-71.95901 42.66708M-75.70227 64.17973-71.95901 66.1967"/>
<path transform="matrix(1.00005,0,0,-1,95.95303,116.129)" stroke-width=".19925" stroke-linecap="butt" stroke-miterlimit="10" stroke-linejoin="miter" fill="none" stroke="#7f807f" d="M126.83598-28.97498V-24.72318M101.11424-42.83461V-38.5828M75.3925-56.69424V-52.44244"/>
<path transform="matrix(1.00005,0,0,-1,95.95303,116.129)" stroke-width=".19925" stroke-linecap="butt" stroke-miterlimit="10" stroke-linejoin="miter" fill="none" stroke="#7f807f" d="M134.5516-10.70038 130.80835-12.71736M134.5516 12.82922 130.80835 10.81224M134.5516 36.35886 130.80835 34.34187M134.5516 59.88847 130.80835 57.87149M134.5516 83.41809 130.80835 81.40111"/>
<g clip-path="url(#clip_3)">
<path transform="matrix(1.00005,0,0,-1,95.95303,116.129)" stroke-width="1.19553" stroke-linecap="butt" stroke-miterlimit="10" stroke-linejoin="miter" fill="none" stroke="#0000ff" d="M3.70317-34.17906 6.64955-33.87907 9.6587-33.5402 12.72386-33.16066 15.83604-32.74022 18.98622-32.27832 22.16449-31.77452 25.36348-31.22807 28.57341-30.63957 31.78603-30.00798 34.99185-29.33412 38.18217-28.6176 41.34778-27.85904 44.48053-27.05852 47.57155-26.21715 50.6118-25.33475 53.5933-24.41238 56.50688-23.45135 59.34494-22.45178 62.09949-21.41508 64.76381-20.34233 67.32828-19.23514 69.78838-18.09444 72.13478-16.92203 74.36325-15.71912 76.4669-14.48755 78.43805-13.22902 80.27357-11.94513 81.96686-10.63765 83.51357-9.30899 84.91061-7.96109 86.15054-6.59544 87.23524-5.21432 88.15787-3.81996 88.91508-2.41414 89.5088-.99947 89.93597 .42206 90.1917 1.84781 90.27946 3.27602 90.19759 4.70438 89.94472 6.13031 89.5249 7.55168 88.93727 8.96654 88.18208 10.37254 87.26582 11.76738 86.18713 13.14883 84.94998 14.5151 83.55713 15.86366 82.01474 17.19283 80.32571 18.50084 78.49495 19.7853 76.52618 21.04425 74.42772 22.27672 72.20305 23.48027 69.85976 24.65317 67.40141 25.79485 64.84026 26.90283 62.17941 27.97629 59.42694 29.01337 56.59132 30.01398 53.68036 30.97615 50.70203 31.89915 47.66322 32.78235 44.57439 33.62515 41.44266 34.4264 38.27681 35.18579 35.08717 35.90338 31.88235 36.57806 28.66876 37.21039 25.4584 37.80035 22.25981 38.34743 19.08101 38.85234 15.9299 39.31538 12.81627 39.73674 9.7509 40.11719 6.73946 40.45723 3.79005 40.75761 .91344 41.01942-1.885 41.24341-4.59566 41.43114-7.21071 41.58316-9.72354 41.70164-12.12848 41.78673-14.4169 41.84163-16.58247 41.8661-18.62068 41.86336-20.52454 41.83421-22.28935 41.78087-23.91013 41.70491-25.3822 41.6085-26.69957 41.4938-27.86295 41.36221-28.8663 41.21664-29.70686 41.05858-30.3827 40.89049-30.89247 40.71458-31.2339 40.53313-31.40533 40.34814-31.40756 40.16205-31.24002 39.977-30.9046 39.79523-30.40019 39.6195-29.72833 39.45107-28.89314 39.29297-27.89374 39.14691-26.73688 39.01523-25.4217 38.89977-23.95416 38.80263-22.33806 38.72667-20.57732 38.67245-18.67818 38.64264-16.64302 38.63905-14.48048 38.66315-12.19673 38.71686-9.79495 38.80183-7.28453 38.91945-4.67184 39.07076-1.96368 39.25752 .82986 39.48064 3.70367 39.74182"/>
<path transform="matrix(1.00005,0,0,-1,95.95303,116.129)" stroke-width="1.19553" stroke-linecap="butt" stroke-miterlimit="10" stroke-linejoin="miter" fill="none" stroke="#0000ff" d="M60.60622 28.57811 60.09726 28.75739"/>
<path transform="matrix(-.9431671,-.33234,-.3323566,.94312,159.08267,88.43904)" d="M6.66628 0 1.93044 1.79556 3.5108 0 1.93044-1.79556Z" fill="#0000ff"/>
<path transform="matrix(-.9431671,-.33234,-.3323566,.94312,159.08267,88.43904)" stroke-width="1.19553" stroke-linecap="butt" stroke-miterlimit="10" stroke-linejoin="miter" fill="none" stroke="#0000ff" d="M6.66628 0 1.93044 1.79556 3.5108 0 1.93044-1.79556Z"/>
<path transform="matrix(1.00005,0,0,-1,95.95303,116.129)" stroke-width="1.19553" stroke-linecap="butt" stroke-miterlimit="10" stroke-linejoin="miter" fill="none" stroke="#ff0000" d="M3.70317-34.17906V34.58481"/>
<path transform="matrix(0,-1,-1.00005,-0,99.65639,84.75612)" d="M6.66628 0 1.93044 1.79556 3.5108 0 1.93044-1.79556Z" fill="#ff0000"/>
<path transform="matrix(0,-1,-1.00005,-0,99.65639,84.75612)" stroke-width="1.19553" stroke-linecap="butt" stroke-miterlimit="10" stroke-linejoin="miter" fill="none" stroke="#ff0000" d="M6.66628 0 1.93044 1.79556 3.5108 0 1.93044-1.79556Z"/>
<use data-text="(" xlink:href="#font_4_1" transform="matrix(8.966848,0,0,-8.9664,103.17639,152.55)"/>
<use data-text="1" xlink:href="#font_4_4" transform="matrix(8.966848,0,0,-8.9664,106.754169,152.55)"/>
<use data-text="," xlink:href="#font_5_2" transform="matrix(8.966848,0,0,-8.9664,111.3678,152.55)"/>
<use data-text="0" xlink:href="#font_4_3" transform="matrix(8.966848,0,0,-8.9664,115.464008,152.55)"/>
<use data-text="," xlink:href="#font_5_2" transform="matrix(8.966848,0,0,-8.9664,120.072238,152.55)"/>
<use data-text="0" xlink:href="#font_4_3" transform="matrix(8.966848,0,0,-8.9664,124.167438,152.55)"/>
<use data-text=")" xlink:href="#font_4_2" transform="matrix(8.966848,0,0,-8.9664,128.76743,152.55)"/>
<use data-text="(" xlink:href="#font_4_1" transform="matrix(8.966848,0,0,-8.9664,103.17639,70.626)" fill="#009900"/>
<use data-text="1" xlink:href="#font_4_4" transform="matrix(8.966848,0,0,-8.9664,106.754169,70.626)" fill="#009900"/>
<use data-text="," xlink:href="#font_5_2" transform="matrix(8.966848,0,0,-8.9664,111.3678,70.626)" fill="#009900"/>
<use data-text="0" xlink:href="#font_4_3" transform="matrix(8.966848,0,0,-8.9664,115.464008,70.626)" fill="#009900"/>
<use data-text="," xlink:href="#font_5_2" transform="matrix(8.966848,0,0,-8.9664,120.072238,70.626)" fill="#009900"/>
<use data-text="2" xlink:href="#font_4_5" transform="matrix(8.966848,0,0,-8.9664,124.167438,70.626)" fill="#009900"/>
<use data-text="&#x03c0;" xlink:href="#font_5_1" transform="matrix(8.966848,0,0,-8.9664,128.77567,70.626)" fill="#009900"/>
<use data-text=")" xlink:href="#font_4_2" transform="matrix(8.966848,0,0,-8.9664,134.37195,70.626)" fill="#009900"/>
</g>
<path transform="matrix(1.00005,0,0,-1,95.95303,116.129)" d="M5.19759-34.17906C5.19759-33.35371 4.5285-32.68465 3.70317-32.68465 2.87782-32.68465 2.20876-33.35371 2.20876-34.17906 2.20876-35.00441 2.87782-35.67348 3.70317-35.67348 4.5285-35.67348 5.19759-35.00441 5.19759-34.17906ZM3.70317-34.17906"/>
<path transform="matrix(1.00005,0,0,-1,95.95303,116.129)" stroke-width=".3985" stroke-linecap="butt" stroke-miterlimit="10" stroke-linejoin="miter" fill="none" stroke="#000000" d="M5.19759-34.17906C5.19759-33.35371 4.5285-32.68465 3.70317-32.68465 2.87782-32.68465 2.20876-33.35371 2.20876-34.17906 2.20876-35.00441 2.87782-35.67348 3.70317-35.67348 4.5285-35.67348 5.19759-35.00441 5.19759-34.17906ZM3.70317-34.17906"/>
<path transform="matrix(1.00005,0,0,-1,95.95303,116.129)" d="M5.19759 39.74158C5.19759 40.56693 4.5285 41.236 3.70317 41.236 2.87782 41.236 2.20876 40.56693 2.20876 39.74158 2.20876 38.91623 2.87782 38.24716 3.70317 38.24716 4.5285 38.24716 5.19759 38.91623 5.19759 39.74158ZM3.70317 39.74158"/>
<path transform="matrix(1.00005,0,0,-1,95.95303,116.129)" stroke-width=".3985" stroke-linecap="butt" stroke-miterlimit="10" stroke-linejoin="miter" fill="none" stroke="#000000" d="M5.19759 39.74158C5.19759 40.56693 4.5285 41.236 3.70317 41.236 2.87782 41.236 2.20876 40.56693 2.20876 39.74158 2.20876 38.91623 2.87782 38.24716 3.70317 38.24716 4.5285 38.24716 5.19759 38.91623 5.19759 39.74158ZM3.70317 39.74158"/>
<path transform="matrix(1.00005,0,0,-1,95.95303,116.129)" stroke-width=".3985" stroke-linecap="butt" stroke-miterlimit="10" stroke-linejoin="miter" fill="none" stroke="#000000" d=""/>
<use data-text="x" xlink:href="#font_5_3" transform="matrix(8.966848,0,0,-8.9664,212.92789,181.647)"/>
<use data-text="y" xlink:href="#font_5_4" transform="matrix(0,-8.9664,-8.966848,-0,80.405269,192.102)"/>
<use data-text="z" xlink:href="#font_5_5" transform="matrix(0,-8.9664,-8.966848,-0,5.0765,104.61098)"/>
</svg>
