<svg xmlns="http://www.w3.org/2000/svg" xmlns:xlink="http://www.w3.org/1999/xlink" xmlns:inkscape="http://www.inkscape.org/namespaces/inkscape" version="1.1" width="276" height="223" viewBox="0 0 276 223">
<defs>
<path id="font_1_1" d="M.6589966 .23046875C.6759949 .23046875 .69400027 .23046875 .69400027 .25045777 .69400027 .27046205 .6759949 .27046205 .6589966 .27046205H.117996219C.100997928 .27046205 .08299255 .27046205 .08299255 .25045777 .08299255 .23046875 .100997928 .23046875 .117996219 .23046875H.6589966Z"/>
<path id="font_2_4" d="M.2939911 .64004519C.2939911 .66400149 .2939911 .6660156 .2709961 .6660156 .20899964 .60227969 .12098694 .60227969 .08898926 .60227969V.57128909C.10899353 .57128909 .16799927 .57128909 .21998596 .5972748V.07902527C.21998596 .042999269 .21699524 .0309906 .1269989 .0309906H.09498596V0C.12998963 .0029907227 .21699524 .0029907227 .25698854 .0029907227 .29699708 .0029907227 .38398744 .0029907227 .4189911 0V.0309906H.3869934C.29699708 .0309906 .2939911 .041992189 .2939911 .07902527V.64004519Z"/>
<path id="font_2_3" d="M.45999146 .31976319C.45999146 .39982606 .45498658 .47988893 .41999818 .5539398 .37399293 .65000918 .2919922 .6660156 .25 .6660156 .18998719 .6660156 .116989139 .64001467 .07598877 .54693606 .04399109 .47789 .038986207 .39982606 .038986207 .31976319 .038986207 .24472046 .042999269 .15464783 .083999637 .07859802 .1269989-.0024719239 .19999695-.022460938 .24899292-.022460938 .30299378-.022460938 .3789978-.0014648438 .4229889 .09359741 .45498658 .16265869 .45999146 .2407074 .45999146 .31976319M.24899292-.00047302247C.20999146-.00047302247 .15098572 .024551392 .1329956 .12062073 .12199402 .18066406 .12199402 .2727356 .12199402 .3317871 .12199402 .39582826 .12199402 .46188355 .12998963 .5159149 .14898682 .63500979 .22399903 .64401248 .24899292 .64401248 .28199769 .64401248 .34799195 .6259918 .36698915 .52693179 .3769989 .47088624 .3769989 .39482118 .3769989 .3317871 .3769989 .25672914 .3769989 .18867493 .3659973 .12461853 .35099793 .029556275 .2939911-.00047302247 .24899292-.00047302247Z"/>
<path id="font_3_2" d="M.19198609 .052993776C.19198609 .08198547 .16799927 .10598755 .13899231 .10598755 .10998535 .10598755 .085998538 .08198547 .085998538 .052993776 .085998538 .023986817 .10998535 0 .13899231 0 .16799927 0 .19198609 .023986817 .19198609 .052993776Z"/>
<path id="font_2_6" d="M.44898988 .20022583C.44898988 .3193512 .36698915 .41944886 .25898744 .41944886 .21099854 .41944886 .16799927 .40345765 .13198853 .36842347V.5637665C.1519928 .5577698 .18499756 .55078127 .21699524 .55078127 .33999635 .55078127 .4099884 .6417694 .4099884 .6547699 .4099884 .6607666 .40699769 .6657715 .3999939 .6657715 .39898683 .6657715 .39698792 .6657715 .3919983 .66278079 .37199403 .6537781 .32299806 .6337738 .2559967 .6337738 .21598816 .6337738 .16999817 .6407776 .12298584 .6617737 .114990238 .66477969 .11299133 .66477969 .11099243 .66477969 .100997928 .66477969 .100997928 .6567688 .100997928 .6407776V.34439088C.100997928 .32637025 .100997928 .31835938 .114990238 .31835938 .12199402 .31835938 .12399292 .32136537 .12799073 .32736207 .13899231 .3433838 .17599488 .39746095 .25698854 .39746095 .30899049 .39746095 .33399964 .35139466 .34199525 .33337403 .35798646 .29632569 .3600006 .25727845 .3600006 .20722962 .3600006 .17222595 .3600006 .11222839 .33599855 .07035828 .31199647 .031463624 .2749939 .0055389406 .22898865 .0055389406 .1559906 .0055389406 .09899902 .058380128 .08198547 .11723328 .084991458 .1162262 .08799744 .115234378 .09899902 .115234378 .13198853 .115234378 .14898682 .14022827 .14898682 .16423035 .14898682 .18823242 .13198853 .21322632 .09899902 .21322632 .084991458 .21322632 .049987794 .20622254 .049987794 .16023255 .049987794 .07434082 .11898804-.022460938 .23098755-.022460938 .34700013-.022460938 .44898988 .073349 .44898988 .20022583Z"/>
<path id="font_2_1" d="M.33099366-.2400055C.33099366-.23701477 .33099366-.23500061 .31399537-.21800232 .18899536-.0920105 .15699768 .09700012 .15699768 .25 .15699768 .42399598 .19499207 .59799197 .31799317 .72299197 .33099366 .73498538 .33099366 .7369995 .33099366 .73999026 .33099366 .746994 .32699586 .75 .32099916 .75 .31098939 .75 .22099304 .6819916 .1619873 .5549927 .11099243 .44499208 .09899902 .33399964 .09899902 .25 .09899902 .17199707 .10998535 .050994874 .16499329-.06201172 .22499085-.18501282 .31098939-.25 .32099916-.25 .32699586-.25 .33099366-.24700928 .33099366-.2400055Z"/>
<path id="font_3_3" d="M.20298767 .0009918213C.20298767 .066986087 .17799378 .10598755 .13899231 .10598755 .10598755 .10598755 .085998538 .08099365 .085998538 .052993776 .085998538 .025985718 .10598755 0 .13899231 0 .15098572 0 .1639862 .0039978029 .17399597 .0129852299 .1769867 .01499939 .17799378 .015991211 .1789856 .015991211 .17999268 .015991211 .18099976 .01499939 .18099976 .0009918213 .18099976-.07316589 .1459961-.13328552 .11299133-.16635132 .101989749-.17736817 .101989749-.17936707 .101989749-.18237305 .101989749-.18936157 .10699463-.19335938 .11199951-.19335938 .12298584-.19335938 .20298767-.116256717 .20298767 .0009918213Z"/>
<path id="font_2_2" d="M.2889862 .25C.2889862 .32798768 .27799989 .44898988 .22299195 .56199648 .16299439 .68499758 .07699585 .75 .066986087 .75 .06098938 .75 .056991579 .74598696 .056991579 .73999026 .056991579 .7369995 .056991579 .73498538 .07598877 .71699526 .17399597 .6179962 .23098755 .45899964 .23098755 .25 .23098755 .07899475 .19400025-.09700012 .069992069-.2230072 .056991579-.23500061 .056991579-.23701477 .056991579-.2400055 .056991579-.2460022 .06098938-.25 .066986087-.25 .07699585-.25 .16699219-.18200684 .22599793-.055007936 .2769928 .054992677 .2889862 .16600037 .2889862 .25Z"/>
<path id="font_3_5" d="M.20599365 .3996582H.2999878C.31999208 .3996582 .32998658 .3996582 .32998658 .41966249 .32998658 .43066407 .31999208 .43066407 .3019867 .43066407H.21398926C.25 .5724945 .25498963 .59246829 .25498963 .59846499 .25498963 .61546328 .24299622 .62545779 .22599793 .62545779 .22299195 .62545779 .19499207 .62446597 .18598938 .58947756L.14698792 .43066407H.052993776C.032989503 .43066407 .022994996 .43066407 .022994996 .4116516 .022994996 .3996582 .0309906 .3996582 .050994874 .3996582H.13899231C.066986087 .11608887 .06298828 .099121097 .06298828 .08114624 .06298828 .02722168 .100997928-.0107421879 .15499878-.0107421879 .25698854-.0107421879 .31399537 .13505554 .31399537 .14305115 .31399537 .1530304 .30599977 .1530304 .3019867 .1530304 .29299928 .1530304 .2919922 .15003968 .2869873 .13905335 .24398804 .035217287 .19099427 .011245728 .15699768 .011245728 .13598633 .011245728 .12599182 .024230957 .12599182 .057174684 .12599182 .08114624 .12799073 .088134769 .13198853 .10510254L.20599365 .3996582Z"/>
<path id="font_2_7" d="M.68699648 .32714845C.70199587 .32714845 .72099307 .32714845 .72099307 .34713746 .72099307 .36714173 .70199587 .36714173 .6879883 .36714173H.08898926C.07499695 .36714173 .055999757 .36714173 .055999757 .34713746 .055999757 .32714845 .07499695 .32714845 .08999634 .32714845H.68699648M.6879883 .13284302C.70199587 .13284302 .72099307 .13284302 .72099307 .15284729 .72099307 .17285156 .70199587 .17285156 .68699648 .17285156H.08999634C.07499695 .17285156 .055999757 .17285156 .055999757 .15284729 .055999757 .13284302 .07499695 .13284302 .08898926 .13284302H.6879883Z"/>
<path id="font_3_1" d="M.2649994 .37265016H.37799073C.34498597 .22489929 .33599855 .18196106 .33599855 .11508179 .33599855 .100097659 .33599855 .073150638 .34399415 .03919983 .35398866-.0047454836 .36499024-.0107421879 .37998963-.0107421879 .3999939-.0107421879 .42099 .007247925 .42099 .02722168 .42099 .033218385 .42099 .035202028 .4149933 .049179079 .38598634 .12106323 .38598634 .18595886 .38598634 .21391297 .38598634 .26683045 .3929901 .32073976 .4039917 .37265016H.5179901C.5309906 .37265016 .5669861 .37265016 .5669861 .406662 .5669861 .43066407 .54599 .43066407 .5269928 .43066407H.19198609C.16999817 .43066407 .13198853 .43066407 .08799744 .38365174 .052993776 .34469605 .026992798 .29878236 .026992798 .29379273 .026992798 .29278565 .026992798 .28379823 .038986207 .28379823 .04699707 .28379823 .04899597 .28779603 .054992677 .29577638 .10398865 .37265016 .1619873 .37265016 .18199158 .37265016H.23899842C.20698548 .25186158 .15299988 .13105774 .11099243 .04020691 .102996829 .025222779 .102996829 .023223877 .102996829 .016235352 .102996829-.002746582 .11898804-.0107421879 .13198853-.0107421879 .1619873-.0107421879 .16999817 .017242432 .18199158 .05418396 .19599915 .100097659 .19599915 .10209656 .20899964 .15202332L.2649994 .37265016Z"/>
<path id="font_3_4" d="M.43899537 .71199038C.44400025 .72499087 .44400025 .72898867 .44400025 .7299957 .44400025 .7409973 .43499757 .75 .42399598 .75 .4169922 .75 .4099884 .746994 .40699769 .7409973L.05999756-.21200562C.054992677-.2250061 .054992677-.2290039 .054992677-.23001099 .054992677-.24101258 .06399536-.25 .07499695-.25 .08799744-.25 .09098816-.24301148 .09700012-.22601319L.43899537 .71199038Z"/>
<path id="font_2_5" d="M.1269989 .07699585 .23298645 .18003845C.3889923 .31811524 .44898988 .3721466 .44898988 .47216798 .44898988 .5860901 .35899354 .6660156 .23699951 .6660156 .12399292 .6660156 .049987794 .57411196 .049987794 .48516847 .049987794 .4291687 .099990848 .4291687 .102996829 .4291687 .11999512 .4291687 .15499878 .44117738 .15499878 .48217774 .15499878 .5081787 .13699341 .5341797 .101989749 .5341797 .09399414 .5341797 .09199524 .5341797 .08898926 .5331726 .11199951 .59806826 .1659851 .63500979 .22399903 .63500979 .31498719 .63500979 .35798646 .5541382 .35798646 .47216798 .35798646 .39215089 .30799867 .31311036 .25299073 .25108338L.06098938 .036987306C.049987794 .025985718 .049987794 .023986817 .049987794 0H.42099L.44898988 .17404175H.42399598C.4189911 .14402771 .4119873 .1000061 .4019928 .084991458 .394989 .07699585 .32899476 .07699585 .30699159 .07699585H.1269989Z"/>
<path id="font_3_6" d="M.33399964 .30233766C.33999635 .32835389 .36299134 .42037965 .43299867 .42037965 .43798829 .42037965 .46199037 .42037965 .48298646 .40734864 .45498658 .402359 .43499757 .37734986 .43499757 .35334779 .43499757 .33735658 .44599916 .31835938 .47299195 .31835938 .49499513 .31835938 .5269928 .3363495 .5269928 .37635804 .5269928 .42837525 .46798707 .4423828 .43399049 .4423828 .37599183 .4423828 .34098817 .38935853 .32899476 .36634828 .3039856 .43237306 .25 .4423828 .22099304 .4423828 .116989139 .4423828 .05999756 .3133545 .05999756 .28834535 .05999756 .27833558 .069992069 .27833558 .07199097 .27833558 .07998657 .27833558 .08299255 .28033448 .084991458 .28933717 .11898804 .39535523 .18499756 .42037965 .21899414 .42037965 .23799134 .42037965 .272995 .4113617 .272995 .35334779 .272995 .32235719 .2559967 .25532533 .21899414 .11528015 .20298767 .053268434 .16799927 .011245728 .12399292 .011245728 .117996219 .011245728 .09498596 .011245728 .07398987 .024276734 .09899902 .029266358 .12098694 .05027771 .12098694 .07827759 .12098694 .105270389 .09899902 .11328125 .083999637 .11328125 .053985597 .11328125 .0289917 .08728027 .0289917 .055267335 .0289917 .009246826 .07899475-.0107421879 .12298584-.0107421879 .18899536-.0107421879 .22499085 .059280397 .22799683 .0652771 .23999024 .028274537 .27598573-.0107421879 .33599855-.0107421879 .43899537-.0107421879 .49598695 .118270877 .49598695 .14328003 .49598695 .1532898 .4869995 .1532898 .48399354 .1532898 .47499085 .1532898 .47299195 .14929199 .47099305 .14228821 .43798829 .03527832 .36999513 .011245728 .33799745 .011245728 .29899598 .011245728 .2829895 .043273927 .2829895 .07727051 .2829895 .09927368 .2889862 .121276859 .2999878 .16529846L.33399964 .30233766Z"/>
<path id="font_3_7" d="M.48599244 .38136292C.48999024 .39537049 .48999024 .39736939 .48999024 .40437318 .48999024 .42237855 .47599793 .43138124 .46099855 .43138124 .45098878 .43138124 .43499757 .42536927 .42599488 .41036988 .42399598 .405365 .41600038 .37435914 .4119873 .35635377 .40499879 .33035279 .397995 .30334474 .3919983 .27633668L.34700013 .09628296C.34298707 .08126831 .2999878 .011245728 .23399353 .011245728 .18299866 .011245728 .17199707 .055267335 .17199707 .0922699 .17199707 .1382904 .18899536 .20030213 .22299195 .28833009 .23899842 .3293457 .24299622 .3403473 .24299622 .36035157 .24299622 .405365 .21099854 .4423828 .16099549 .4423828 .06599426 .4423828 .0289917 .29733277 .0289917 .28833009 .0289917 .27833558 .038986207 .27833558 .040985109 .27833558 .050994874 .27833558 .051986696 .28033448 .056991579 .29634095 .083999637 .3903656 .12399292 .42037965 .1579895 .42037965 .1659851 .42037965 .18299866 .42037965 .18299866 .3883667 .18299866 .36335755 .17298889 .3373413 .1659851 .31834413 .12599182 .21231079 .10798645 .1552887 .10798645 .10827637 .10798645 .019256592 .17098999-.0107421879 .22999573-.0107421879 .2689972-.0107421879 .30299378 .0062561037 .33099366 .03425598 .31799317-.017745972 .30599977-.06674194 .2659912-.11973572 .23999024-.15385437 .20199585-.18309021 .1559906-.18309021 .14199829-.18309021 .09700012-.18005371 .07998657-.14074707 .09599304-.14074707 .10899353-.14074707 .12298584-.1287384 .1329956-.11973572 .14299011-.10673523 .14299011-.08773804 .14299011-.056747438 .115997318-.052734376 .10598755-.052734376 .08299255-.052734376 .049987794-.068740848 .049987794-.11773682 .049987794-.16796875 .09399414-.20507813 .1559906-.20507813 .25898744-.20507813 .3619995-.11373901 .3899994-.00074768069L.48599244 .38136292Z"/>
<path id="font_3_8" d="M.1329956 .08345032C.18699646 .14138794 .21598816 .16636658 .2519989 .19732666 .2519989 .19833374 .31399537 .25128175 .34999085 .2872467 .44499208 .3803711 .46699525 .42837525 .46699525 .43237306 .46699525 .4423828 .45799256 .4423828 .45599366 .4423828 .44898988 .4423828 .44599916 .44036866 .44099427 .43138124 .41099549 .38337709 .3899994 .3671875 .3659973 .3671875 .34199525 .3671875 .32998658 .38237 .31498719 .3993683 .29599 .42237855 .2789917 .4423828 .24598694 .4423828 .17098999 .4423828 .125 .34918214 .125 .3282013 .125 .3231964 .12799073 .31721498 .13699341 .31721498 .1459961 .31721498 .147995 .3222046 .1499939 .3282013 .16899109 .37434388 .22698975 .37538148 .23498535 .37538148 .2559967 .37538148 .2749939 .36820985 .2979889 .36018373 .33799745 .34518434 .34899903 .34518434 .375 .34518434 .33898927 .30223084 .25498963 .2303009 .23599243 .21430969L.1459961 .13040161C.07798767 .06341553 .042999269 .0062561037 .042999269-.00074768069 .042999269-.0107421879 .052993776-.0107421879 .054992677-.0107421879 .06298828-.0107421879 .06498718-.008743286 .070999149 .002243042 .09399414 .037246705 .12399292 .064453128 .1559906 .064453128 .1789856 .064453128 .18899536 .055252077 .21398926 .026245118 .23098755 .0052490236 .24899292-.0107421879 .27799989-.0107421879 .3769989-.0107421879 .43499757 .1164093 .43499757 .14338684 .43499757 .14837647 .43099977 .15338135 .4229889 .15338135 .4139862 .15338135 .4119873 .14738465 .40899659 .14039612 .38598634 .07543945 .32199098 .056243898 .2889862 .056243898 .2689972 .056243898 .25099183 .06239319 .22999573 .06944275 .19599915 .08244324 .18099976 .08644104 .1599884 .08644104 .1579895 .08644104 .14199829 .08644104 .1329956 .08345032Z"/>
</defs>
<path transform="matrix(1.00002,0,0,-1,105.37282,136.367)" stroke-width=".3985" stroke-linecap="butt" stroke-miterlimit="10" stroke-linejoin="miter" fill="none" stroke="#e5e6e5" d="M-6.32402-3.69894 156.41619-24.39673M-37.94414-22.19366 124.79607-42.89146M-69.56424-40.68839 93.17596-61.38618"/>
<path transform="matrix(1.00002,0,0,-1,105.37282,136.367)" stroke-width=".3985" stroke-linecap="butt" stroke-miterlimit="10" stroke-linejoin="miter" fill="none" stroke="#e5e6e5" d="M13.56168-1.72481-62.32658-46.11215M47.4659-6.03685-28.42238-50.4242M81.3701-10.34889 5.48183-54.73624M115.2743-14.66093 39.38603-59.04828M149.17853-18.97298 73.29025-63.36032"/>
<path transform="matrix(1.00002,0,0,-1,105.37282,136.367)" stroke-width=".19925" stroke-linecap="butt" stroke-miterlimit="10" stroke-linejoin="miter" fill="none" stroke="#7f807f" d="M-6.32402-3.69894-2.10588-4.2354M-37.94414-22.19366-33.726-22.73013M-69.56424-40.68839-65.3461-41.22485M156.41619-24.39673 152.19803-23.86026M124.79607-42.89146 120.57793-42.35498M93.17596-61.38618 88.95781-60.84972"/>
<path transform="matrix(1.00002,0,0,-1,105.37282,136.367)" stroke-width=".19925" stroke-linecap="butt" stroke-miterlimit="10" stroke-linejoin="miter" fill="none" stroke="#7f807f" d="M13.56168-1.72481 9.89134-3.8716M47.4659-6.03685 43.79555-8.18364M81.3701-10.34889 77.69977-12.49568M115.2743-14.66093 111.60397-16.80772M149.17853-18.97298 145.5082-21.11977M-62.32658-46.11215-58.65623-43.96535M-28.42238-50.4242-24.75201-48.27739M5.48183-54.73624 9.15218-52.58943M39.38603-59.04828 43.05638-56.90147M73.29025-63.36032 76.9606-61.21352"/>
<path transform="matrix(1.00002,0,0,-1,105.37282,136.367)" stroke-width=".3985" stroke-linecap="butt" stroke-miterlimit="10" stroke-linejoin="miter" fill="none" stroke="#000000" d="M0 0-75.88828-44.38734"/>
<path transform="matrix(1.00002,0,0,-1,105.37282,136.367)" stroke-width=".3985" stroke-linecap="butt" stroke-miterlimit="10" stroke-linejoin="miter" fill="none" stroke="#000000" d="M162.7402-20.69778 86.85193-65.08513"/>
<path transform="matrix(1.00002,0,0,-1,105.37282,136.367)" stroke-width=".3985" stroke-linecap="butt" stroke-miterlimit="10" stroke-linejoin="miter" fill="none" stroke="#000000" d="M0 0 162.7402-20.69778"/>
<path transform="matrix(1.00002,0,0,-1,105.37282,136.367)" stroke-width=".3985" stroke-linecap="butt" stroke-miterlimit="10" stroke-linejoin="miter" fill="none" stroke="#000000" d="M-75.88828-44.38734 86.85193-65.08513"/>
<use data-text="&#x2212;" xlink:href="#font_1_1" transform="matrix(9.962799,0,0,-9.9626,262.94197,172.09)"/>
<use data-text="1" xlink:href="#font_2_4" transform="matrix(9.962799,0,0,-9.9626,270.6911,172.09)"/>
<use data-text="0" xlink:href="#font_2_3" transform="matrix(9.962799,0,0,-9.9626,233.63738,189.23001)"/>
<use data-text="1" xlink:href="#font_2_4" transform="matrix(9.962799,0,0,-9.9626,202.01676,207.725)"/>
<use data-text="&#x2212;" xlink:href="#font_1_1" transform="matrix(9.962799,0,0,-9.9626,32.188356,193.106)"/>
<use data-text="1" xlink:href="#font_2_4" transform="matrix(9.962799,0,0,-9.9626,39.9375,193.106)"/>
<use data-text="&#x2212;" xlink:href="#font_1_1" transform="matrix(9.962799,0,0,-9.9626,61.954957,197.87702)"/>
<use data-text="0" xlink:href="#font_2_3" transform="matrix(9.962799,0,0,-9.9626,69.7041,197.87702)"/>
<use data-text="." xlink:href="#font_3_2" transform="matrix(9.962799,0,0,-9.9626,74.6862,197.87702)"/>
<use data-text="5" xlink:href="#font_2_6" transform="matrix(9.962799,0,0,-9.9626,77.45326,197.87702)"/>
<use data-text="0" xlink:href="#font_2_3" transform="matrix(9.962799,0,0,-9.9626,104.357799,201.29901)"/>
<use data-text="0" xlink:href="#font_2_3" transform="matrix(9.962799,0,0,-9.9626,134.1254,206.07)"/>
<use data-text="." xlink:href="#font_3_2" transform="matrix(9.962799,0,0,-9.9626,139.1075,206.07)"/>
<use data-text="5" xlink:href="#font_2_6" transform="matrix(9.962799,0,0,-9.9626,141.87454,206.07)"/>
<use data-text="1" xlink:href="#font_2_4" transform="matrix(9.962799,0,0,-9.9626,172.16815,209.923)"/>
<path transform="matrix(1.00002,0,0,-1,105.37282,136.367)" stroke-width=".19925" stroke-linecap="butt" stroke-miterlimit="10" stroke-linejoin="miter" fill="none" stroke="#7f807f" d="M-6.32402 130.86957-2.10588 130.3331M-37.94414 112.37485-33.726 111.83838M-69.56424 93.88011-65.3461 93.34366"/>
<path transform="matrix(1.00002,0,0,-1,105.37282,136.367)" stroke-width=".19925" stroke-linecap="butt" stroke-miterlimit="10" stroke-linejoin="miter" fill="none" stroke="#7f807f" d="M13.56168 132.8437 9.89134 130.6969M47.4659 128.53166 43.79555 126.38486M81.3701 124.21962 77.69977 122.07281M115.2743 119.90758 111.60397 117.76077M149.17853 115.59554 145.5082 113.44875"/>
<path transform="matrix(1.00002,0,0,-1,105.37282,136.367)" stroke-width=".3985" stroke-linecap="butt" stroke-miterlimit="10" stroke-linejoin="miter" fill="none" stroke="#000000" d="M0 134.56851-75.88828 90.18117"/>
<path transform="matrix(1.00002,0,0,-1,105.37282,136.367)" stroke-width=".3985" stroke-linecap="butt" stroke-miterlimit="10" stroke-linejoin="miter" fill="none" stroke="#000000" d="M0 134.56851 162.7402 113.87071"/>
<path transform="matrix(1.00002,0,0,-1,105.37282,136.367)" stroke-width=".3985" stroke-linecap="butt" stroke-miterlimit="10" stroke-linejoin="miter" fill="none" stroke="#e5e6e5" d="M13.56168-1.72481V132.8437M47.4659-6.03685V128.53166M81.3701-10.34889V124.21962M115.2743-14.66093V119.90758M149.17853-18.97298V115.59554"/>
<path transform="matrix(1.00002,0,0,-1,105.37282,136.367)" stroke-width=".19925" stroke-linecap="butt" stroke-miterlimit="10" stroke-linejoin="miter" fill="none" stroke="#7f807f" d="M13.56168-1.72481V2.52716M47.4659-6.03685V-1.78487M81.3701-10.34889V-6.09691M115.2743-14.66093V-10.40895M149.17853-18.97298V-14.721M13.56168 132.8437V128.5917M47.4659 128.53166V124.27966M81.3701 124.21962V119.96762M115.2743 119.90758V115.65558M149.17853 115.59554V111.34354"/>
<path transform="matrix(1.00002,0,0,-1,105.37282,136.367)" stroke-width=".3985" stroke-linecap="butt" stroke-miterlimit="10" stroke-linejoin="miter" fill="none" stroke="#e5e6e5" d="M0 0 162.7402-20.69778M0 37.38014 162.7402 16.68234M0 74.76028 162.7402 54.06248M0 112.14043 162.7402 91.44263"/>
<path transform="matrix(1.00002,0,0,-1,105.37282,136.367)" stroke-width=".19925" stroke-linecap="butt" stroke-miterlimit="10" stroke-linejoin="miter" fill="none" stroke="#7f807f" d="M0 0 4.21812-.53645M0 37.38014 4.21812 36.84367M0 74.76028 4.21812 74.22382M0 112.14043 4.21812 111.60396M162.7402-20.69778 158.52207-20.16132M162.7402 16.68234 158.52207 17.21881M162.7402 54.06248 158.52207 54.59897M162.7402 91.44263 158.52207 91.97911"/>
<path transform="matrix(1.00002,0,0,-1,105.37282,136.367)" stroke-width=".3985" stroke-linecap="butt" stroke-miterlimit="10" stroke-linejoin="miter" fill="none" stroke="#000000" d="M0 0V134.56851"/>
<path transform="matrix(1.00002,0,0,-1,105.37282,136.367)" stroke-width=".3985" stroke-linecap="butt" stroke-miterlimit="10" stroke-linejoin="miter" fill="none" stroke="#000000" d="M162.7402-20.69778V113.87071"/>
<path transform="matrix(1.00002,0,0,-1,105.37282,136.367)" stroke-width=".19925" stroke-linecap="butt" stroke-miterlimit="10" stroke-linejoin="miter" fill="none" stroke="#7f807f" d="M-62.32658-46.11215V-41.86017M-28.42238-50.4242V-46.17221M5.48183-54.73624V-50.48425M39.38603-59.04828V-54.7963M73.29025-63.36032V-59.10834"/>
<path transform="matrix(1.00002,0,0,-1,105.37282,136.367)" stroke-width=".19925" stroke-linecap="butt" stroke-miterlimit="10" stroke-linejoin="miter" fill="none" stroke="#7f807f" d="M-75.88828-44.38734-71.67014-44.9238M-75.88828-7.00719-71.67014-7.54366M-75.88828 30.37294-71.67014 29.83647M-75.88828 67.75308-71.67014 67.21661"/>
<path transform="matrix(1.00002,0,0,-1,105.37282,136.367)" stroke-width=".3985" stroke-linecap="butt" stroke-miterlimit="10" stroke-linejoin="miter" fill="none" stroke="#000000" d="M-75.88828-44.38734V90.18117"/>
<use data-text="0" xlink:href="#font_2_3" transform="matrix(9.962799,0,0,-9.9626,20.982117,185.19101)"/>
<use data-text="0" xlink:href="#font_2_3" transform="matrix(9.962799,0,0,-9.9626,13.232971,148.602)"/>
<use data-text="." xlink:href="#font_3_2" transform="matrix(9.962799,0,0,-9.9626,18.215073,148.602)"/>
<use data-text="5" xlink:href="#font_2_6" transform="matrix(9.962799,0,0,-9.9626,20.982117,148.602)"/>
<use data-text="1" xlink:href="#font_2_4" transform="matrix(9.962799,0,0,-9.9626,20.982117,110.431)"/>
<use data-text="1" xlink:href="#font_2_4" transform="matrix(9.962799,0,0,-9.9626,13.232971,73.841)"/>
<use data-text="." xlink:href="#font_3_2" transform="matrix(9.962799,0,0,-9.9626,18.215073,73.841)"/>
<use data-text="5" xlink:href="#font_2_6" transform="matrix(9.962799,0,0,-9.9626,20.982117,73.841)"/>
<path transform="matrix(1.00002,0,0,-1,105.37282,136.367)" stroke-width=".3985" stroke-linecap="butt" stroke-miterlimit="10" stroke-linejoin="miter" fill="none" stroke="#e5e6e5" d="M-6.32402-3.69894V130.86957M-37.94414-22.19366V112.37485M-69.56424-40.68839V93.88011"/>
<path transform="matrix(1.00002,0,0,-1,105.37282,136.367)" stroke-width=".19925" stroke-linecap="butt" stroke-miterlimit="10" stroke-linejoin="miter" fill="none" stroke="#7f807f" d="M-6.32402-3.69894V.55302M-37.94414-22.19366V-17.94168M-69.56424-40.68839V-36.43642M-6.32402 130.86957V126.61757M-37.94414 112.37485V108.12285M-69.56424 93.88011V89.62813"/>
<path transform="matrix(1.00002,0,0,-1,105.37282,136.367)" stroke-width=".3985" stroke-linecap="butt" stroke-miterlimit="10" stroke-linejoin="miter" fill="none" stroke="#e5e6e5" d="M0 0-75.88828-44.38734M0 37.38014-75.88828-7.00719M0 74.76028-75.88828 30.37294M0 112.14043-75.88828 67.75308"/>
<path transform="matrix(1.00002,0,0,-1,105.37282,136.367)" stroke-width=".19925" stroke-linecap="butt" stroke-miterlimit="10" stroke-linejoin="miter" fill="none" stroke="#7f807f" d="M0 0-3.67033-2.14679M0 37.38014-3.67033 35.23334M0 74.76028-3.67033 72.6135M0 112.14043-3.67033 109.99364M-75.88828-44.38734-72.21791-42.24052M-75.88828-7.00719-72.21791-4.86038M-75.88828 30.37294-72.21791 32.51974M-75.88828 67.75308-72.21791 69.89989"/>
<path transform="matrix(1.00002,0,0,-1,105.37282,136.367)" stroke-width=".19925" stroke-linecap="butt" stroke-miterlimit="10" stroke-linejoin="miter" fill="none" stroke="#7f807f" d="M156.41619-24.39673V-20.14476M124.79607-42.89146V-38.63948M93.17596-61.38618V-57.13422"/>
<path transform="matrix(1.00002,0,0,-1,105.37282,136.367)" stroke-width=".19925" stroke-linecap="butt" stroke-miterlimit="10" stroke-linejoin="miter" fill="none" stroke="#7f807f" d="M162.7402-20.69778 159.06987-22.84459M162.7402 16.68234 159.06987 14.53555M162.7402 54.06248 159.06987 51.9157M162.7402 91.44263 159.06987 89.29584"/>
<path transform="matrix(1.00002,0,0,-1,105.37282,136.367)" stroke-width=".3985" stroke-linecap="butt" stroke-dasharray="2.98883,2.98883" stroke-miterlimit="10" stroke-linejoin="miter" fill="none" stroke="#bfbfbf" d="M11.80585-51.0373 13.62251-51.25911 15.4591-51.46925 17.31769-51.66512 19.19246-51.8486 21.08543-52.01709 22.99358-52.17287 24.91763-52.31398 26.85341-52.44153 28.80077-52.55455 30.76045-52.65361 32.72775-52.73854 34.70268-52.80937 36.68384-52.86545 38.66887-52.90671 40.65956-52.9345 42.6504-52.94676 44.64226-52.94589 46.63289-52.92932 48.6218-52.89925 50.60751-52.85368 52.58653-52.7951 54.55966-52.7207 56.52611-52.63329 58.48232-52.5306 60.42749-52.41458 62.36113-52.28358 64.28073-52.13954 66.18683-51.98073 68.07484-51.80879 69.9474-51.62276 71.79956-51.42352 73.63335-51.21138 75.44394-50.9848 77.23253-50.74597 78.9974-50.49399 80.73796-50.22969 82.45035-49.95189 84.1369-49.66313 85.79128-49.36084 87.41948-49.0478 89.0143-48.72195 90.57726-48.38576 92.10553-48.0375 93.6023-47.67868 95.06111-47.30873 96.48482-46.92894 97.87064-46.53845 99.21661-46.13794 100.52316-45.72815 101.79126-45.30852 103.01598-44.88043 104.19899-44.44344 105.34027-43.998 106.43489-43.54413 107.4886-43.08282 108.49104-42.6143 109.45387-42.13805 110.36519-41.65524 111.23302-41.16646"/>
<path transform="matrix(1.00002,0,0,-1,105.37282,136.367)" stroke-width="1.19553" stroke-linecap="butt" stroke-miterlimit="10" stroke-linejoin="miter" fill="none" stroke="#0000ff" d="M11.80585-51.0373 13.16048-49.71791 14.5278-48.39159 15.9051-47.05798 17.29437-45.71692 18.69164-44.3687 20.10083-43.01251 21.51863-41.64903 22.94633-40.2772 24.38031-38.89793 25.82288-37.51065 27.27197-36.11519 28.72672-34.71272 30.18904-33.3023 31.65657-31.88353 33.12798-30.45677 34.60362-29.02214 36.0811-27.5792 37.56313-26.12825 39.04741-24.66988 40.53293-23.20349 42.01959-21.7286 43.50748-20.24576 44.99449-18.75426 46.48141-17.25517 47.9682-15.74797 49.4515-14.233 50.93333-12.70985 52.41203-11.17934 53.88693-9.64064 55.3563-8.09286 56.82281-6.53735 58.28326-4.97478 59.73988-3.40384 61.18767-1.82426 62.63037-.23901 64.06424 1.35635 65.48921 2.95978 66.90578 4.56958 68.3129 6.18689 69.71153 7.81184 71.09837 9.4451 72.47441 11.0853 73.84174 12.73198 75.19348 14.38742 76.53346 16.04999 77.8607 17.71988 79.17488 19.39629 80.47488 21.08112 81.76155 22.77216 83.03043 24.46944 84.28354 26.17389 85.52086 27.88628 86.74286 29.60393 87.94775 31.32848 89.13327 33.05956 90.3024 34.79697 91.45224 36.54076 92.58496 38.2907 93.695 40.04668 94.78706 41.81004 95.85747 43.5776 96.9088 45.35136 97.93922 47.13109 98.94667 48.91544 99.93483 50.70535 100.89699 52.50085 101.83852 54.30168 102.75514 56.108 103.64922 57.91826 104.5217 59.73325 105.36761 61.553 106.191 63.3789 106.98744 65.20786 107.75972 67.04102 108.50414 68.87892 109.22574 70.72011 109.92117 72.56529 110.59052 74.41357 111.23302 76.26622"/>
<use data-text="(" xlink:href="#font_2_1" transform="matrix(9.962799,0,0,-9.9626,125.68022,179.401)"/>
<use data-text="1" xlink:href="#font_2_4" transform="matrix(9.962799,0,0,-9.9626,129.54579,179.401)"/>
<use data-text="," xlink:href="#font_3_3" transform="matrix(9.962799,0,0,-9.9626,134.5364,179.401)"/>
<use data-text="0" xlink:href="#font_2_3" transform="matrix(9.962799,0,0,-9.9626,138.9645,179.401)"/>
<use data-text="," xlink:href="#font_3_3" transform="matrix(9.962799,0,0,-9.9626,143.94559,179.401)"/>
<use data-text="0" xlink:href="#font_2_3" transform="matrix(9.962799,0,0,-9.9626,148.37368,179.401)"/>
<use data-text=")" xlink:href="#font_2_2" transform="matrix(9.962799,0,0,-9.9626,153.35507,179.401)"/>
<use data-text="," xlink:href="#font_3_3" transform="matrix(9.962799,0,0,-9.9626,157.22986,179.401)"/>
<use data-text="t" xlink:href="#font_3_5" transform="matrix(9.962799,0,0,-9.9626,164.96099,179.401)"/>
<use data-text="=" xlink:href="#font_2_7" transform="matrix(9.962799,0,0,-9.9626,171.34014,179.401)"/>
<use data-text="0" xlink:href="#font_2_3" transform="matrix(9.962799,0,0,-9.9626,181.84093,179.401)"/>
<use data-text="(" xlink:href="#font_2_1" transform="matrix(9.962799,0,0,-9.9626,128.89929,53.093004)"/>
<use data-text="0" xlink:href="#font_2_3" transform="matrix(9.962799,0,0,-9.9626,132.76486,53.093004)"/>
<use data-text="," xlink:href="#font_3_3" transform="matrix(9.962799,0,0,-9.9626,137.75548,53.093004)"/>
<use data-text="1" xlink:href="#font_2_4" transform="matrix(9.962799,0,0,-9.9626,142.18357,53.093004)"/>
<use data-text="," xlink:href="#font_3_3" transform="matrix(9.962799,0,0,-9.9626,147.16466,53.093004)"/>
<use data-text="&#x03c0;" xlink:href="#font_3_1" transform="matrix(9.962799,0,0,-9.9626,151.57819,53.093004)"/>
<use data-text="/" xlink:href="#font_3_4" transform="matrix(9.962799,0,0,-9.9626,157.61565,53.093004)"/>
<use data-text="2" xlink:href="#font_2_5" transform="matrix(9.962799,0,0,-9.9626,162.61098,53.093004)"/>
<use data-text=")" xlink:href="#font_2_2" transform="matrix(9.962799,0,0,-9.9626,167.59238,53.093004)"/>
<use data-text="," xlink:href="#font_3_3" transform="matrix(9.962799,0,0,-9.9626,171.46717,53.093004)"/>
<use data-text="t" xlink:href="#font_3_5" transform="matrix(9.962799,0,0,-9.9626,179.1983,53.093004)"/>
<use data-text="=" xlink:href="#font_2_7" transform="matrix(9.962799,0,0,-9.9626,185.57743,53.093004)"/>
<use data-text="&#x03c0;" xlink:href="#font_3_1" transform="matrix(9.962799,0,0,-9.9626,196.09363,53.093004)"/>
<use data-text="/" xlink:href="#font_3_4" transform="matrix(9.962799,0,0,-9.9626,202.12113,53.093004)"/>
<use data-text="2" xlink:href="#font_2_5" transform="matrix(9.962799,0,0,-9.9626,207.11185,53.093004)"/>
<path transform="matrix(1.00002,0,0,-1,105.37282,136.367)" d="M13.3999-51.0373C13.3999-50.1569 12.68622-49.44324 11.80585-49.44324 10.92548-49.44324 10.2118-50.1569 10.2118-51.0373 10.2118-51.91766 10.92548-52.63133 11.80585-52.63133 12.68622-52.63133 13.3999-51.91766 13.3999-51.0373ZM11.80585-51.0373" fill="#ff0000"/>
<path transform="matrix(1.00002,0,0,-1,105.37282,136.367)" stroke-width=".3985" stroke-linecap="butt" stroke-miterlimit="10" stroke-linejoin="miter" fill="none" stroke="#ff0000" d="M13.3999-51.0373C13.3999-50.1569 12.68622-49.44324 11.80585-49.44324 10.92548-49.44324 10.2118-50.1569 10.2118-51.0373 10.2118-51.91766 10.92548-52.63133 11.80585-52.63133 12.68622-52.63133 13.3999-51.91766 13.3999-51.0373ZM11.80585-51.0373"/>
<path transform="matrix(1.00002,0,0,-1,105.37282,136.367)" d="M112.82843 76.2668C112.82843 77.14717 112.11476 77.86084 111.23439 77.86084 110.354 77.86084 109.64034 77.14717 109.64034 76.2668 109.64034 75.38641 110.354 74.67274 111.23439 74.67274 112.11476 74.67274 112.82843 75.38641 112.82843 76.2668ZM111.23439 76.2668" fill="#ff0000"/>
<path transform="matrix(1.00002,0,0,-1,105.37282,136.367)" stroke-width=".3985" stroke-linecap="butt" stroke-miterlimit="10" stroke-linejoin="miter" fill="none" stroke="#ff0000" d="M112.82843 76.2668C112.82843 77.14717 112.11476 77.86084 111.23439 77.86084 110.354 77.86084 109.64034 77.14717 109.64034 76.2668 109.64034 75.38641 110.354 74.67274 111.23439 74.67274 112.11476 74.67274 112.82843 75.38641 112.82843 76.2668ZM111.23439 76.2668"/>
<path transform="matrix(1.00002,0,0,-1,105.37282,136.367)" stroke-width=".3985" stroke-linecap="butt" stroke-miterlimit="10" stroke-linejoin="miter" fill="none" stroke="#ff0000" d=""/>
<use data-text="x" xlink:href="#font_3_6" transform="matrix(9.962799,0,0,-9.9626,247.97368,204.844)"/>
<use data-text="y" xlink:href="#font_3_7" transform="matrix(9.962799,0,0,-9.9626,93.16257,218.55802)"/>
<use data-text="z" xlink:href="#font_3_8" transform="matrix(0,-9.9626,-9.962799,-0,5.504814,121.33702)"/>
</svg>
