<svg xmlns="http://www.w3.org/2000/svg" xmlns:xlink="http://www.w3.org/1999/xlink" xmlns:inkscape="http://www.inkscape.org/namespaces/inkscape" version="1.1" width="301" height="246" viewBox="0 0 301 246">
<defs>
<path id="font_1_1" d="M.6589966 .23046875C.6759949 .23046875 .69400027 .23046875 .69400027 .25045777 .69400027 .27046205 .6759949 .27046205 .6589966 .27046205H.117996219C.100997928 .27046205 .08299255 .27046205 .08299255 .25045777 .08299255 .23046875 .100997928 .23046875 .117996219 .23046875H.6589966Z"/>
<path id="font_2_5" d="M.2939911 .64004519C.2939911 .66400149 .2939911 .6660156 .2709961 .6660156 .20899964 .60227969 .12098694 .60227969 .08898926 .60227969V.57128909C.10899353 .57128909 .16799927 .57128909 .21998596 .5972748V.07902527C.21998596 .042999269 .21699524 .0309906 .1269989 .0309906H.09498596V0C.12998963 .0029907227 .21699524 .0029907227 .25698854 .0029907227 .29699708 .0029907227 .38398744 .0029907227 .4189911 0V.0309906H.3869934C.29699708 .0309906 .2939911 .041992189 .2939911 .07902527V.64004519Z"/>
<path id="font_2_4" d="M.45999146 .31976319C.45999146 .39982606 .45498658 .47988893 .41999818 .5539398 .37399293 .65000918 .2919922 .6660156 .25 .6660156 .18998719 .6660156 .116989139 .64001467 .07598877 .54693606 .04399109 .47789 .038986207 .39982606 .038986207 .31976319 .038986207 .24472046 .042999269 .15464783 .083999637 .07859802 .1269989-.0024719239 .19999695-.022460938 .24899292-.022460938 .30299378-.022460938 .3789978-.0014648438 .4229889 .09359741 .45498658 .16265869 .45999146 .2407074 .45999146 .31976319M.24899292-.00047302247C.20999146-.00047302247 .15098572 .024551392 .1329956 .12062073 .12199402 .18066406 .12199402 .2727356 .12199402 .3317871 .12199402 .39582826 .12199402 .46188355 .12998963 .5159149 .14898682 .63500979 .22399903 .64401248 .24899292 .64401248 .28199769 .64401248 .34799195 .6259918 .36698915 .52693179 .3769989 .47088624 .3769989 .39482118 .3769989 .3317871 .3769989 .25672914 .3769989 .18867493 .3659973 .12461853 .35099793 .029556275 .2939911-.00047302247 .24899292-.00047302247Z"/>
<path id="font_3_1" d="M.19198609 .052993776C.19198609 .08198547 .16799927 .10598755 .13899231 .10598755 .10998535 .10598755 .085998538 .08198547 .085998538 .052993776 .085998538 .023986817 .10998535 0 .13899231 0 .16799927 0 .19198609 .023986817 .19198609 .052993776Z"/>
<path id="font_2_6" d="M.44898988 .20022583C.44898988 .3193512 .36698915 .41944886 .25898744 .41944886 .21099854 .41944886 .16799927 .40345765 .13198853 .36842347V.5637665C.1519928 .5577698 .18499756 .55078127 .21699524 .55078127 .33999635 .55078127 .4099884 .6417694 .4099884 .6547699 .4099884 .6607666 .40699769 .6657715 .3999939 .6657715 .39898683 .6657715 .39698792 .6657715 .3919983 .66278079 .37199403 .6537781 .32299806 .6337738 .2559967 .6337738 .21598816 .6337738 .16999817 .6407776 .12298584 .6617737 .114990238 .66477969 .11299133 .66477969 .11099243 .66477969 .100997928 .66477969 .100997928 .6567688 .100997928 .6407776V.34439088C.100997928 .32637025 .100997928 .31835938 .114990238 .31835938 .12199402 .31835938 .12399292 .32136537 .12799073 .32736207 .13899231 .3433838 .17599488 .39746095 .25698854 .39746095 .30899049 .39746095 .33399964 .35139466 .34199525 .33337403 .35798646 .29632569 .3600006 .25727845 .3600006 .20722962 .3600006 .17222595 .3600006 .11222839 .33599855 .07035828 .31199647 .031463624 .2749939 .0055389406 .22898865 .0055389406 .1559906 .0055389406 .09899902 .058380128 .08198547 .11723328 .084991458 .1162262 .08799744 .115234378 .09899902 .115234378 .13198853 .115234378 .14898682 .14022827 .14898682 .16423035 .14898682 .18823242 .13198853 .21322632 .09899902 .21322632 .084991458 .21322632 .049987794 .20622254 .049987794 .16023255 .049987794 .07434082 .11898804-.022460938 .23098755-.022460938 .34700013-.022460938 .44898988 .073349 .44898988 .20022583Z"/>
<path id="font_3_7" d="M.20599365 .3996582H.2999878C.31999208 .3996582 .32998658 .3996582 .32998658 .41966249 .32998658 .43066407 .31999208 .43066407 .3019867 .43066407H.21398926C.25 .5724945 .25498963 .59246829 .25498963 .59846499 .25498963 .61546328 .24299622 .62545779 .22599793 .62545779 .22299195 .62545779 .19499207 .62446597 .18598938 .58947756L.14698792 .43066407H.052993776C.032989503 .43066407 .022994996 .43066407 .022994996 .4116516 .022994996 .3996582 .0309906 .3996582 .050994874 .3996582H.13899231C.066986087 .11608887 .06298828 .099121097 .06298828 .08114624 .06298828 .02722168 .100997928-.0107421879 .15499878-.0107421879 .25698854-.0107421879 .31399537 .13505554 .31399537 .14305115 .31399537 .1530304 .30599977 .1530304 .3019867 .1530304 .29299928 .1530304 .2919922 .15003968 .2869873 .13905335 .24398804 .035217287 .19099427 .011245728 .15699768 .011245728 .13598633 .011245728 .12599182 .024230957 .12599182 .057174684 .12599182 .08114624 .12799073 .088134769 .13198853 .10510254L.20599365 .3996582Z"/>
<path id="font_2_7" d="M.68699648 .32714845C.70199587 .32714845 .72099307 .32714845 .72099307 .34713746 .72099307 .36714173 .70199587 .36714173 .6879883 .36714173H.08898926C.07499695 .36714173 .055999757 .36714173 .055999757 .34713746 .055999757 .32714845 .07499695 .32714845 .08999634 .32714845H.68699648M.6879883 .13284302C.70199587 .13284302 .72099307 .13284302 .72099307 .15284729 .72099307 .17285156 .70199587 .17285156 .68699648 .17285156H.08999634C.07499695 .17285156 .055999757 .17285156 .055999757 .15284729 .055999757 .13284302 .07499695 .13284302 .08898926 .13284302H.6879883Z"/>
<path id="font_3_4" d="M.37298585 .37835694C.35499574 .41537477 .32598878 .4423828 .2809906 .4423828 .1639862 .4423828 .039993287 .29533387 .039993287 .14929199 .039993287 .055267335 .09498596-.0107421879 .17298889-.0107421879 .19299317-.0107421879 .24299622-.0067443849 .30299378 .06427002 .31098939 .022247315 .34599305-.0107421879 .3939972-.0107421879 .42900086-.0107421879 .45199586 .012252808 .46798707 .044265748 .4850006 .08027649 .49798585 .14129639 .49798585 .14329529 .49798585 .1532898 .4889984 .1532898 .48599244 .1532898 .47599793 .1532898 .47499085 .14929199 .47200013 .13528443 .45498658 .07026672 .43699647 .011245728 .3959961 .011245728 .36898805 .011245728 .3659973 .037261964 .3659973 .057266237 .3659973 .07926941 .36799623 .08728027 .3789978 .13128662 .3899994 .17329407 .3919983 .18330384 .40098573 .22131348L.43699647 .36135865C.44400025 .38935853 .44400025 .39135743 .44400025 .39537049 .44400025 .41236878 .43199159 .42237855 .4149933 .42237855 .3909912 .42237855 .37599183 .4003601 .37298585 .37835694M.30799867 .119277957C.30299378 .10127258 .30299378 .09927368 .28799439 .08227539 .24398804 .027252198 .20298767 .011245728 .1749878 .011245728 .125 .011245728 .11099243 .06626892 .11099243 .105285648 .11099243 .1552887 .14299011 .27833558 .1659851 .32434083 .19699097 .38336183 .24198914 .42037965 .28199769 .42037965 .34700013 .42037965 .36099244 .3383484 .36099244 .33235169 .36099244 .32633973 .35899354 .32034303 .35798646 .31533814L.30799867 .119277957Z"/>
<path id="font_3_5" d="M.23899842 .68333438C.23899842 .6843262 .23899842 .69433596 .22599793 .69433596 .20298767 .69433596 .12998963 .6863251 .10398865 .6843262 .09599304 .68333438 .084991458 .6823273 .084991458 .6643219 .084991458 .6523285 .09399414 .6523285 .10899353 .6523285 .15699768 .6523285 .15899658 .6453247 .15899658 .6353302 .15899658 .6283264 .1499939 .5943451 .14498902 .573349L.06298828 .24731446C.050994874 .1973114 .04699707 .18130493 .04699707 .14628601 .04699707 .05126953 .099990848-.0107421879 .17399597-.0107421879 .2919922-.0107421879 .4149933 .1382904 .4149933 .28233338 .4149933 .37335206 .3619995 .4423828 .28199769 .4423828 .23599243 .4423828 .19499207 .41337586 .16499329 .38235475L.23899842 .68333438M.14498902 .30534364C.15098572 .3273468 .15098572 .3293457 .1599884 .3403473 .20899964 .405365 .2539978 .42037965 .27999879 .42037965 .31599427 .42037965 .34298707 .3903656 .34298707 .32633973 .34298707 .26733399 .30999757 .15229798 .2919922 .11428833 .25898744 .04725647 .21299744 .011245728 .17399597 .011245728 .13999939 .011245728 .10699463 .038253786 .10699463 .11227417 .10699463 .13128662 .10699463 .15029907 .12298584 .21331787L.14498902 .30534364Z"/>
<path id="font_2_1" d="M.44198609 .69781497C.43499757 .7108154 .43299867 .7158203 .41600038 .7158203 .39898683 .7158203 .39698792 .7108154 .3899994 .69781497L.051986696 .019989014C.04699707 .010986328 .04699707 .008987427 .04699707 .0079956059 .04699707 0 .052993776 0 .068984989 0H.7630005C.7789917 0 .7849884 0 .7849884 .0079956059 .7849884 .008987427 .7849884 .010986328 .7799988 .019989014L.44198609 .69781497M.38398744 .61582949 .6529999 .07598877H.11399841L.38398744 .61582949Z"/>
<path id="font_3_6" d="M.3909912 .37405396C.36299134 .37304688 .34298707 .3510437 .34298707 .32904054 .34298707 .31503297 .35198976 .30003358 .37399293 .30003358 .3959961 .30003358 .41999818 .31703187 .41999818 .35603334 .41999818 .40124513 .3769989 .4423828 .30099488 .4423828 .16899109 .4423828 .13198853 .3400421 .13198853 .29605104 .13198853 .21820069 .20599365 .20323181 .23498535 .19725037 .2869873 .18727112 .33898927 .17628479 .33898927 .12133789 .33898927 .095336917 .31599427 .011245728 .19599915 .011245728 .18199158 .011245728 .10499573 .011245728 .08198547 .064331058 .11999512 .059326173 .14498902 .08934021 .14498902 .11734009 .14498902 .14033509 .1289978 .15234375 .10798645 .15234375 .08198547 .15234375 .051986696 .1313324 .051986696 .08633423 .051986696 .029281617 .10899353-.0107421879 .19499207-.0107421879 .35699464-.0107421879 .3959961 .1103363 .3959961 .15533448 .3959961 .19125366 .3769989 .21620178 .36499024 .22817993 .33799745 .25613404 .30899049 .26112367 .2649994 .27009584 .22898865 .27807618 .18899536 .2850647 .18899536 .33003236 .18899536 .3590393 .21299744 .42037965 .30099488 .42037965 .32598878 .42037965 .37599183 .41333009 .3909912 .37405396Z"/>
<path id="font_4_1" d="M.31298829 .66430667C.31399537 .66630557 .31698609 .67930606 .31698609 .68029788 .31698609 .68530276 .31298829 .6943054 .30099488 .6943054 .2809906 .6943054 .19799805 .6863098 .17298889 .6843109 .16499329 .68330386 .15098572 .682312 .15098572 .66130068 .15098572 .64730837 .16499329 .64730837 .1769867 .64730837 .22499085 .64730837 .22499085 .64030459 .22499085 .63230898 .22499085 .62532046 .22299195 .61932376 .22099304 .61032107L.07998657 .04425049C.07499695 .026229859 .07499695 .024230957 .07499695 .022232056 .07499695 .007232666 .08699036-.009765625 .10899353-.009765625 .13598633-.009765625 .14898682 .010223389 .15499878 .03224182 .15699768 .036239625 .19999695 .21234131 .20399475 .22636414 .2749939 .21936035 .33198548 .19633484 .33198548 .14430237 .33198548 .13929749 .33198548 .1342926 .32998658 .124298099 .32598878 .10928345 .32598878 .104278568 .32598878 .09327698 .32598878 .022232056 .38398744-.009765625 .43199159-.009765625 .5289917-.009765625 .5589905 .14230347 .5589905 .14331055 .5589905 .15631104 .54599 .15631104 .54299929 .15631104 .5289917 .15631104 .5279999 .15130615 .522995 .1322937 .5109863 .089263919 .48399354 .018234253 .43499757 .018234253 .4079895 .018234253 .3999939 .04324341 .3999939 .07026672 .3999939 .087265018 .3999939 .089263919 .4059906 .11528015 .40699769 .11828613 .41099549 .13529969 .41099549 .14630127 .41099549 .23536682 .29100038 .24937439 .24899292 .25238038 .27799989 .27038575 .31498719 .30340577 .33198548 .31840516 .3829956 .3664093 .43299867 .4133911 .4889984 .4133911 .5009918 .4133911 .5139923 .4104004 .5219879 .40040589 .47898866 .3934021 .46998597 .35940553 .46998597 .34440614 .46998597 .32240296 .4869995 .30740357 .5099945 .30740357 .5369873 .30740357 .5669861 .32940675 .5669861 .37139894 .5669861 .4044037 .54299929 .44140626 .48999024 .44140626 .43299867 .44140626 .3809967 .40040589 .32998658 .3534088 .28799439 .31340028 .25498963 .2823944 .21398926 .26538087L.31298829 .66430667Z"/>
<path id="font_2_2" d="M.33099366-.2400055C.33099366-.23701477 .33099366-.23500061 .31399537-.21800232 .18899536-.0920105 .15699768 .09700012 .15699768 .25 .15699768 .42399598 .19499207 .59799197 .31799317 .72299197 .33099366 .73498538 .33099366 .7369995 .33099366 .73999026 .33099366 .746994 .32699586 .75 .32099916 .75 .31098939 .75 .22099304 .6819916 .1619873 .5549927 .11099243 .44499208 .09899902 .33399964 .09899902 .25 .09899902 .17199707 .10998535 .050994874 .16499329-.06201172 .22499085-.18501282 .31098939-.25 .32099916-.25 .32699586-.25 .33099366-.24700928 .33099366-.2400055Z"/>
<path id="font_3_8" d="M.33399964 .30233766C.33999635 .32835389 .36299134 .42037965 .43299867 .42037965 .43798829 .42037965 .46199037 .42037965 .48298646 .40734864 .45498658 .402359 .43499757 .37734986 .43499757 .35334779 .43499757 .33735658 .44599916 .31835938 .47299195 .31835938 .49499513 .31835938 .5269928 .3363495 .5269928 .37635804 .5269928 .42837525 .46798707 .4423828 .43399049 .4423828 .37599183 .4423828 .34098817 .38935853 .32899476 .36634828 .3039856 .43237306 .25 .4423828 .22099304 .4423828 .116989139 .4423828 .05999756 .3133545 .05999756 .28834535 .05999756 .27833558 .069992069 .27833558 .07199097 .27833558 .07998657 .27833558 .08299255 .28033448 .084991458 .28933717 .11898804 .39535523 .18499756 .42037965 .21899414 .42037965 .23799134 .42037965 .272995 .4113617 .272995 .35334779 .272995 .32235719 .2559967 .25532533 .21899414 .11528015 .20298767 .053268434 .16799927 .011245728 .12399292 .011245728 .117996219 .011245728 .09498596 .011245728 .07398987 .024276734 .09899902 .029266358 .12098694 .05027771 .12098694 .07827759 .12098694 .105270389 .09899902 .11328125 .083999637 .11328125 .053985597 .11328125 .0289917 .08728027 .0289917 .055267335 .0289917 .009246826 .07899475-.0107421879 .12298584-.0107421879 .18899536-.0107421879 .22499085 .059280397 .22799683 .0652771 .23999024 .028274537 .27598573-.0107421879 .33599855-.0107421879 .43899537-.0107421879 .49598695 .118270877 .49598695 .14328003 .49598695 .1532898 .4869995 .1532898 .48399354 .1532898 .47499085 .1532898 .47299195 .14929199 .47099305 .14228821 .43798829 .03527832 .36999513 .011245728 .33799745 .011245728 .29899598 .011245728 .2829895 .043273927 .2829895 .07727051 .2829895 .09927368 .2889862 .121276859 .2999878 .16529846L.33399964 .30233766Z"/>
<path id="font_3_2" d="M.20298767 .0009918213C.20298767 .066986087 .17799378 .10598755 .13899231 .10598755 .10598755 .10598755 .085998538 .08099365 .085998538 .052993776 .085998538 .025985718 .10598755 0 .13899231 0 .15098572 0 .1639862 .0039978029 .17399597 .0129852299 .1769867 .01499939 .17799378 .015991211 .1789856 .015991211 .17999268 .015991211 .18099976 .01499939 .18099976 .0009918213 .18099976-.07316589 .1459961-.13328552 .11299133-.16635132 .101989749-.17736817 .101989749-.17936707 .101989749-.18237305 .101989749-.18936157 .10699463-.19335938 .11199951-.19335938 .12298584-.19335938 .20298767-.116256717 .20298767 .0009918213Z"/>
<path id="font_3_9" d="M.48599244 .38136292C.48999024 .39537049 .48999024 .39736939 .48999024 .40437318 .48999024 .42237855 .47599793 .43138124 .46099855 .43138124 .45098878 .43138124 .43499757 .42536927 .42599488 .41036988 .42399598 .405365 .41600038 .37435914 .4119873 .35635377 .40499879 .33035279 .397995 .30334474 .3919983 .27633668L.34700013 .09628296C.34298707 .08126831 .2999878 .011245728 .23399353 .011245728 .18299866 .011245728 .17199707 .055267335 .17199707 .0922699 .17199707 .1382904 .18899536 .20030213 .22299195 .28833009 .23899842 .3293457 .24299622 .3403473 .24299622 .36035157 .24299622 .405365 .21099854 .4423828 .16099549 .4423828 .06599426 .4423828 .0289917 .29733277 .0289917 .28833009 .0289917 .27833558 .038986207 .27833558 .040985109 .27833558 .050994874 .27833558 .051986696 .28033448 .056991579 .29634095 .083999637 .3903656 .12399292 .42037965 .1579895 .42037965 .1659851 .42037965 .18299866 .42037965 .18299866 .3883667 .18299866 .36335755 .17298889 .3373413 .1659851 .31834413 .12599182 .21231079 .10798645 .1552887 .10798645 .10827637 .10798645 .019256592 .17098999-.0107421879 .22999573-.0107421879 .2689972-.0107421879 .30299378 .0062561037 .33099366 .03425598 .31799317-.017745972 .30599977-.06674194 .2659912-.11973572 .23999024-.15385437 .20199585-.18309021 .1559906-.18309021 .14199829-.18309021 .09700012-.18005371 .07998657-.14074707 .09599304-.14074707 .10899353-.14074707 .12298584-.1287384 .1329956-.11973572 .14299011-.10673523 .14299011-.08773804 .14299011-.056747438 .115997318-.052734376 .10598755-.052734376 .08299255-.052734376 .049987794-.068740848 .049987794-.11773682 .049987794-.16796875 .09399414-.20507813 .1559906-.20507813 .25898744-.20507813 .3619995-.11373901 .3899994-.00074768069L.48599244 .38136292Z"/>
<path id="font_3_10" d="M.1329956 .08345032C.18699646 .14138794 .21598816 .16636658 .2519989 .19732666 .2519989 .19833374 .31399537 .25128175 .34999085 .2872467 .44499208 .3803711 .46699525 .42837525 .46699525 .43237306 .46699525 .4423828 .45799256 .4423828 .45599366 .4423828 .44898988 .4423828 .44599916 .44036866 .44099427 .43138124 .41099549 .38337709 .3899994 .3671875 .3659973 .3671875 .34199525 .3671875 .32998658 .38237 .31498719 .3993683 .29599 .42237855 .2789917 .4423828 .24598694 .4423828 .17098999 .4423828 .125 .34918214 .125 .3282013 .125 .3231964 .12799073 .31721498 .13699341 .31721498 .1459961 .31721498 .147995 .3222046 .1499939 .3282013 .16899109 .37434388 .22698975 .37538148 .23498535 .37538148 .2559967 .37538148 .2749939 .36820985 .2979889 .36018373 .33799745 .34518434 .34899903 .34518434 .375 .34518434 .33898927 .30223084 .25498963 .2303009 .23599243 .21430969L.1459961 .13040161C.07798767 .06341553 .042999269 .0062561037 .042999269-.00074768069 .042999269-.0107421879 .052993776-.0107421879 .054992677-.0107421879 .06298828-.0107421879 .06498718-.008743286 .070999149 .002243042 .09399414 .037246705 .12399292 .064453128 .1559906 .064453128 .1789856 .064453128 .18899536 .055252077 .21398926 .026245118 .23098755 .0052490236 .24899292-.0107421879 .27799989-.0107421879 .3769989-.0107421879 .43499757 .1164093 .43499757 .14338684 .43499757 .14837647 .43099977 .15338135 .4229889 .15338135 .4139862 .15338135 .4119873 .14738465 .40899659 .14039612 .38598634 .07543945 .32199098 .056243898 .2889862 .056243898 .2689972 .056243898 .25099183 .06239319 .22999573 .06944275 .19599915 .08244324 .18099976 .08644104 .1599884 .08644104 .1579895 .08644104 .14199829 .08644104 .1329956 .08345032Z"/>
<path id="font_2_3" d="M.2889862 .25C.2889862 .32798768 .27799989 .44898988 .22299195 .56199648 .16299439 .68499758 .07699585 .75 .066986087 .75 .06098938 .75 .056991579 .74598696 .056991579 .73999026 .056991579 .7369995 .056991579 .73498538 .07598877 .71699526 .17399597 .6179962 .23098755 .45899964 .23098755 .25 .23098755 .07899475 .19400025-.09700012 .069992069-.2230072 .056991579-.23500061 .056991579-.23701477 .056991579-.2400055 .056991579-.2460022 .06098938-.25 .066986087-.25 .07699585-.25 .16699219-.18200684 .22599793-.055007936 .2769928 .054992677 .2889862 .16600037 .2889862 .25Z"/>
<path id="font_5_1" d="M.20298767 .3371582V.4501953L.036987306 .44218446V.39518739C.09899902 .39518739 .10598755 .39518739 .10598755 .35617066V.04699707H.036987306V0C.07199097 .0009918213 .116989139 .0029907227 .16299439 .0029907227 .20098877 .0029907227 .2649994 .0029907227 .30099488 0V.04699707H.21398926V.22209168C.21398926 .2921753 .23899842 .41418458 .33898927 .41418458 .33799745 .41319276 .31999208 .39718629 .31999208 .36819459 .31999208 .3271942 .35198976 .30718995 .3809967 .30718995 .4099884 .30718995 .44198609 .32818605 .44198609 .36819459 .44198609 .42118836 .3880005 .4501953 .33599855 .4501953 .2659912 .4501953 .22599793 .40019227 .20298767 .3371582Z"/>
<path id="font_3_3" d="M.7599945 .69506838C.7599945 .69807437 .7579956 .7050781 .7489929 .7050781 .74598696 .7050781 .7449951 .70407107 .73399356 .69306948L.6639862 .61602786C.6549988 .6300354 .60899356 .7050781 .49798585 .7050781 .2749939 .7050781 .049987794 .48391725 .049987794 .25172425 .049987794 .08659363 .16799927-.022460938 .32099916-.022460938 .4079895-.022460938 .48399354 .017532349 .5369873 .063583377 .6299896 .14564514 .6469879 .2367096 .6469879 .23971558 .6469879 .24972534 .6369934 .24972534 .6349945 .24972534 .6289978 .24972534 .6239929 .24772644 .621994 .23971558 .61299136 .21069336 .58999636 .13963318 .5209961 .081588748 .45199586 .025543213 .3889923 .008529663 .33699037 .008529663 .24699402 .008529663 .14099121 .060577394 .14099121 .21670532 .14099121 .27374269 .1619873 .43588258 .2619934 .55296328 .32299806 .62402346 .4169922 .67407229 .5059967 .67407229 .60798647 .67407229 .6669922 .5970001 .6669922 .48091126 .6669922 .44088746 .6639862 .43988038 .6639862 .4298706 .6639862 .41986085 .6749878 .41986085 .67900088 .41986085 .69200137 .41986085 .69200137 .42185975 .69699099 .43988038L.7599945 .69506838Z"/>
</defs>
<path transform="matrix(1.00009,0,0,-1,114.37393,158.32)" stroke-width=".3985" stroke-linecap="butt" stroke-miterlimit="10" stroke-linejoin="miter" fill="none" stroke="#e5e6e5" d="M-9.7966-5.3181 172.27596-26.80792M-42.45198-23.04512 139.62059-44.53494M-75.10735-40.77216 106.96521-62.26198"/>
<path transform="matrix(1.00009,0,0,-1,114.37393,158.32)" stroke-width=".3985" stroke-linecap="butt" stroke-miterlimit="10" stroke-linejoin="miter" fill="none" stroke="#e5e6e5" d="M21.00836-2.47958-63.89558-48.56985M56.02232-6.61224-28.88162-52.70251M91.03629-10.7449 6.13232-56.83517M126.05023-14.87756 41.14627-60.96783M161.0642-19.01022 76.16023-65.1005"/>
<path transform="matrix(1.00009,0,0,-1,114.37393,158.32)" stroke-width=".19925" stroke-linecap="butt" stroke-miterlimit="10" stroke-linejoin="miter" fill="none" stroke="#7f807f" d="M-9.7966-5.3181-5.57373-5.81651M-42.45198-23.04512-38.22911-23.54353M-75.10735-40.77216-70.88448-41.27057M172.27596-26.80792 168.05307-26.3095M139.62059-44.53494 135.3977-44.03651M106.96521-62.26198 102.74234-61.76355"/>
<path transform="matrix(1.00009,0,0,-1,114.37393,158.32)" stroke-width=".19925" stroke-linecap="butt" stroke-miterlimit="10" stroke-linejoin="miter" fill="none" stroke="#7f807f" d="M21.00836-2.47958 17.27153-4.50812M56.02232-6.61224 52.28549-8.64078M91.03629-10.7449 87.29945-12.77344M126.05023-14.87756 122.3134-16.9061M161.0642-19.01022 157.32736-21.03876M-63.89558-48.56985-60.15874-46.5413M-28.88162-52.70251-25.14478-50.67397M6.13232-56.83517 9.86916-54.80663M41.14627-60.96783 44.88312-58.93929M76.16023-65.1005 79.89708-63.07193"/>
<path transform="matrix(1.00009,0,0,-1,114.37393,158.32)" stroke-width=".3985" stroke-linecap="butt" stroke-miterlimit="10" stroke-linejoin="miter" fill="none" stroke="#000000" d="M0 0-84.90396-46.09026"/>
<path transform="matrix(1.00009,0,0,-1,114.37393,158.32)" stroke-width=".3985" stroke-linecap="butt" stroke-miterlimit="10" stroke-linejoin="miter" fill="none" stroke="#000000" d="M182.07257-21.4898 97.16861-67.58008"/>
<path transform="matrix(1.00009,0,0,-1,114.37393,158.32)" stroke-width=".3985" stroke-linecap="butt" stroke-miterlimit="10" stroke-linejoin="miter" fill="none" stroke="#000000" d="M0 0 182.07257-21.4898"/>
<path transform="matrix(1.00009,0,0,-1,114.37393,158.32)" stroke-width=".3985" stroke-linecap="butt" stroke-miterlimit="10" stroke-linejoin="miter" fill="none" stroke="#000000" d="M-84.90396-46.09026 97.16861-67.58008"/>
<use data-text="&#x2212;" xlink:href="#font_1_1" transform="matrix(9.963496,0,0,-9.9626,287.80256,196.36101)"/>
<use data-text="1" xlink:href="#font_2_5" transform="matrix(9.963496,0,0,-9.9626,295.55226,196.36101)"/>
<use data-text="0" xlink:href="#font_2_4" transform="matrix(9.963496,0,0,-9.9626,257.5088,212.80501)"/>
<use data-text="1" xlink:href="#font_2_5" transform="matrix(9.963496,0,0,-9.9626,224.85088,230.53202)"/>
<use data-text="&#x2212;" xlink:href="#font_1_1" transform="matrix(9.963496,0,0,-9.9626,39.485185,217.451)"/>
<use data-text="1" xlink:href="#font_2_5" transform="matrix(9.963496,0,0,-9.9626,47.23488,217.451)"/>
<use data-text="&#x2212;" xlink:href="#font_1_1" transform="matrix(9.963496,0,0,-9.9626,70.37398,222.01102)"/>
<use data-text="0" xlink:href="#font_2_4" transform="matrix(9.963496,0,0,-9.9626,78.12367,222.01102)"/>
<use data-text="." xlink:href="#font_3_1" transform="matrix(9.963496,0,0,-9.9626,83.10512,222.01102)"/>
<use data-text="5" xlink:href="#font_2_6" transform="matrix(9.963496,0,0,-9.9626,85.872379,222.01102)"/>
<use data-text="0" xlink:href="#font_2_4" transform="matrix(9.963496,0,0,-9.9626,113.87989,225.31601)"/>
<use data-text="0" xlink:href="#font_2_4" transform="matrix(9.963496,0,0,-9.9626,144.76767,229.876)"/>
<use data-text="." xlink:href="#font_3_1" transform="matrix(9.963496,0,0,-9.9626,149.74912,229.876)"/>
<use data-text="5" xlink:href="#font_2_6" transform="matrix(9.963496,0,0,-9.9626,152.51738,229.876)"/>
<use data-text="1" xlink:href="#font_2_5" transform="matrix(9.963496,0,0,-9.9626,183.91419,233.582)"/>
<path transform="matrix(1.00009,0,0,-1,114.37393,158.32)" stroke-width=".19925" stroke-linecap="butt" stroke-miterlimit="10" stroke-linejoin="miter" fill="none" stroke="#7f807f" d="M-9.7966 151.2048-5.57373 150.70639M-42.45198 133.47777-38.22911 132.97936M-75.10735 115.75075-70.88448 115.25233"/>
<path transform="matrix(1.00009,0,0,-1,114.37393,158.32)" stroke-width=".19925" stroke-linecap="butt" stroke-miterlimit="10" stroke-linejoin="miter" fill="none" stroke="#7f807f" d="M21.00836 154.0433 17.27153 152.01477M56.02232 149.91066 52.28549 147.88211M91.03629 145.778 87.29945 143.74947M126.05023 141.64534 122.3134 139.6168M161.0642 137.51268 157.32736 135.48415"/>
<path transform="matrix(1.00009,0,0,-1,114.37393,158.32)" stroke-width=".3985" stroke-linecap="butt" stroke-miterlimit="10" stroke-linejoin="miter" fill="none" stroke="#000000" d="M0 156.5229-84.90396 110.43263"/>
<path transform="matrix(1.00009,0,0,-1,114.37393,158.32)" stroke-width=".3985" stroke-linecap="butt" stroke-miterlimit="10" stroke-linejoin="miter" fill="none" stroke="#000000" d="M0 156.5229 182.07257 135.03308"/>
<path transform="matrix(1.00009,0,0,-1,114.37393,158.32)" stroke-width=".3985" stroke-linecap="butt" stroke-miterlimit="10" stroke-linejoin="miter" fill="none" stroke="#e5e6e5" d="M21.00836-2.47958V154.0433M56.02232-6.61224V149.91066M91.03629-10.7449V145.778M126.05023-14.87756V141.64534M161.0642-19.01022V137.51268"/>
<path transform="matrix(1.00009,0,0,-1,114.37393,158.32)" stroke-width=".19925" stroke-linecap="butt" stroke-miterlimit="10" stroke-linejoin="miter" fill="none" stroke="#7f807f" d="M21.00836-2.47958V1.77206M56.02232-6.61224V-2.36058M91.03629-10.7449V-6.49324M126.05023-14.87756V-10.6259M161.0642-19.01022V-14.75856M21.00836 154.0433V149.79164M56.02232 149.91066V145.65898M91.03629 145.778V141.52632M126.05023 141.64534V137.39366M161.0642 137.51268V133.261"/>
<path transform="matrix(1.00009,0,0,-1,114.37393,158.32)" stroke-width=".3985" stroke-linecap="butt" stroke-miterlimit="10" stroke-linejoin="miter" fill="none" stroke="#e5e6e5" d="M0 0 182.07257-21.4898M0 46.03615 182.07257 24.54633M0 92.0723 182.07257 70.58247M0 138.10845 182.07257 116.61862"/>
<path transform="matrix(1.00009,0,0,-1,114.37393,158.32)" stroke-width=".19925" stroke-linecap="butt" stroke-miterlimit="10" stroke-linejoin="miter" fill="none" stroke="#7f807f" d="M0 0 4.22285-.4984M0 46.03615 4.22285 45.53773M0 92.0723 4.22285 91.57388M0 138.10845 4.22285 137.61003M182.07257-21.4898 177.84969-20.99138M182.07257 24.54633 177.84969 25.04475M182.07257 70.58247 177.84969 71.0809M182.07257 116.61862 177.84969 117.11705"/>
<path transform="matrix(1.00009,0,0,-1,114.37393,158.32)" stroke-width=".3985" stroke-linecap="butt" stroke-miterlimit="10" stroke-linejoin="miter" fill="none" stroke="#000000" d="M0 0V156.5229"/>
<path transform="matrix(1.00009,0,0,-1,114.37393,158.32)" stroke-width=".3985" stroke-linecap="butt" stroke-miterlimit="10" stroke-linejoin="miter" fill="none" stroke="#000000" d="M182.07257-21.4898V135.03308"/>
<path transform="matrix(1.00009,0,0,-1,114.37393,158.32)" stroke-width=".19925" stroke-linecap="butt" stroke-miterlimit="10" stroke-linejoin="miter" fill="none" stroke="#7f807f" d="M-63.89558-48.56985V-44.31819M-28.88162-52.70251V-48.45085M6.13232-56.83517V-52.58351M41.14627-60.96783V-56.71617M76.16023-65.1005V-60.84883"/>
<path transform="matrix(1.00009,0,0,-1,114.37393,158.32)" stroke-width=".19925" stroke-linecap="butt" stroke-miterlimit="10" stroke-linejoin="miter" fill="none" stroke="#7f807f" d="M-84.90396-46.09026-80.68109-46.58867M-84.90396-.05411-80.68109-.55252M-84.90396 45.98203-80.68109 45.48361M-84.90396 92.01817-80.68109 91.51976"/>
<path transform="matrix(1.00009,0,0,-1,114.37393,158.32)" stroke-width=".3985" stroke-linecap="butt" stroke-miterlimit="10" stroke-linejoin="miter" fill="none" stroke="#000000" d="M-84.90396-46.09026V110.43263"/>
<use data-text="0" xlink:href="#font_2_4" transform="matrix(9.963496,0,0,-9.9626,20.960526,208.776)"/>
<use data-text="0" xlink:href="#font_2_4" transform="matrix(9.963496,0,0,-9.9626,13.210831,163.48401)"/>
<use data-text="." xlink:href="#font_3_1" transform="matrix(9.963496,0,0,-9.9626,18.192276,163.48401)"/>
<use data-text="5" xlink:href="#font_2_6" transform="matrix(9.963496,0,0,-9.9626,20.96054,163.48401)"/>
<use data-text="1" xlink:href="#font_2_5" transform="matrix(9.963496,0,0,-9.9626,20.960526,116.703)"/>
<use data-text="1" xlink:href="#font_2_5" transform="matrix(9.963496,0,0,-9.9626,13.210831,71.41201)"/>
<use data-text="." xlink:href="#font_3_1" transform="matrix(9.963496,0,0,-9.9626,18.192276,71.41201)"/>
<use data-text="5" xlink:href="#font_2_6" transform="matrix(9.963496,0,0,-9.9626,20.96054,71.41201)"/>
<path transform="matrix(1.00009,0,0,-1,114.37393,158.32)" stroke-width=".3985" stroke-linecap="butt" stroke-miterlimit="10" stroke-linejoin="miter" fill="none" stroke="#e5e6e5" d="M-9.7966-5.3181V151.2048M-42.45198-23.04512V133.47777M-75.10735-40.77216V115.75075"/>
<path transform="matrix(1.00009,0,0,-1,114.37393,158.32)" stroke-width=".19925" stroke-linecap="butt" stroke-miterlimit="10" stroke-linejoin="miter" fill="none" stroke="#7f807f" d="M-9.7966-5.3181V-1.06644M-42.45198-23.04512V-18.79347M-75.10735-40.77216V-36.5205M-9.7966 151.2048V146.95313M-42.45198 133.47777V129.22609M-75.10735 115.75075V111.49907"/>
<path transform="matrix(1.00009,0,0,-1,114.37393,158.32)" stroke-width=".3985" stroke-linecap="butt" stroke-miterlimit="10" stroke-linejoin="miter" fill="none" stroke="#e5e6e5" d="M0 0-84.90396-46.09026M0 46.03615-84.90396-.05411M0 92.0723-84.90396 45.98203M0 138.10845-84.90396 92.01817"/>
<path transform="matrix(1.00009,0,0,-1,114.37393,158.32)" stroke-width=".19925" stroke-linecap="butt" stroke-miterlimit="10" stroke-linejoin="miter" fill="none" stroke="#7f807f" d="M0 0-3.73682-2.02853M0 46.03615-3.73682 44.00761M0 92.0723-3.73682 90.04376M0 138.10845-3.73682 136.07991M-84.90396-46.09026-81.16711-44.0617M-84.90396-.05411-81.16711 1.97443M-84.90396 45.98203-81.16711 48.01057M-84.90396 92.01817-81.16711 94.04672"/>
<path transform="matrix(1.00009,0,0,-1,114.37393,158.32)" stroke-width=".19925" stroke-linecap="butt" stroke-miterlimit="10" stroke-linejoin="miter" fill="none" stroke="#7f807f" d="M172.27596-26.80792V-22.55626M139.62059-44.53494V-40.2833M106.96521-62.26198V-58.01031"/>
<path transform="matrix(1.00009,0,0,-1,114.37393,158.32)" stroke-width=".19925" stroke-linecap="butt" stroke-miterlimit="10" stroke-linejoin="miter" fill="none" stroke="#7f807f" d="M182.07257-21.4898 178.33574-23.51836M182.07257 24.54633 178.33574 22.51779M182.07257 70.58247 178.33574 68.55394M182.07257 116.61862 178.33574 114.59009"/>
<path transform="matrix(1.00009,0,0,-1,114.37393,158.32)" stroke-width="1.19553" stroke-linecap="butt" stroke-miterlimit="10" stroke-linejoin="miter" fill="none" stroke="#0000ff" d="M15.92892-51.51706 17.53325-50.65106 19.15256-49.77646 20.78923-48.89291 22.43791-47.99913 24.10155-47.0963 25.77692-46.18385 27.46507-45.2617 29.16217-44.32971 30.87238-43.3877 32.5899-42.43665 34.31726-41.47426 36.0502-40.50278 37.78905-39.52155 39.53673-38.5296 41.28748-37.52776 43.04027-36.51588 44.79785-35.49405 46.5574-34.4614 48.31801-33.4194 50.07817-32.36688 51.83792-31.30406 53.59592-30.2316 55.3504-29.14897 57.10234-28.05565 58.84944-26.95248 60.59172-25.83989 62.32762-24.71631 64.05591-23.58311 65.77762-22.44012 67.48749-21.28682 69.19049-20.1243 70.88239-18.95157 72.56187-17.76985 74.2274-16.57715 75.88159-15.37537 77.52173-14.16522 79.14513-12.944 80.75305-11.71413 82.34726-10.47552 83.92136-9.2269 85.4776-7.96954 87.01563-6.70358 88.53159-5.42877 90.02725-4.14581 91.50229-2.8536 92.9564-1.55374 94.38464-.24344 95.78957 1.07364 97.17297 2.39804 98.52774 3.73233 99.85751 5.07204 101.16336 6.42097 102.43796 7.77748 103.68515 9.13945 104.90671 10.51018 106.0967 11.88647 107.25587 13.27148 108.38882 14.66261 109.4872 16.05814 110.55266 17.46262 111.58919 18.87083 112.59294 20.2867 113.56013 21.70634 114.49596 23.13347 115.39835 24.56604 116.26425 26.00151 117.09473 27.44409 117.8922 28.88914 118.65326 30.34036 119.3734 31.79619 120.06163 33.25414 120.71349 34.7178 121.32346 36.1837 121.89783 37.65434 122.43558 39.12732 122.93286 40.60333 123.39282 42.08362 123.8146 43.56444 124.19592 45.04831"/>
<path transform="matrix(1.00009,0,0,-1,114.37393,158.32)" stroke-width="1.19553" stroke-linecap="butt" stroke-miterlimit="10" stroke-linejoin="miter" fill="none" stroke="#0000ff" d="M125.84503 58.14368 125.84387 59.25471 125.8195 60.36613 125.77339 61.47824 125.70518 62.58899 125.61589 63.69986 125.5018 64.8107 125.36801 65.92055 125.21054 67.02911 125.032 68.13829 124.83142 69.24568 124.6102 70.35205 124.36557 71.45866 124.09964 72.56296 123.81099 73.66652 123.50179 74.76909 123.17094 75.86963 122.82054 76.97064 122.44405 78.06816 122.05042 79.16422 121.63591 80.25916 121.19911 81.35172 120.73973 82.44215 120.26056 83.53114 119.76085 84.6173 119.24197 85.70139 118.70262 86.78406 118.14107 87.86351 117.56075 88.9406 116.96135 90.01614 116.34181 91.08817 115.70222 92.15718 115.0439 93.22433 114.36581 94.28815 113.6701 95.34846 112.95607 96.40758 112.22089 97.46126 111.46948 98.51443 110.70042 99.56175 109.91273 100.60635 109.10643 101.64917 108.28389 102.68689 107.4448 103.72116 106.58846 104.75258 105.7142 105.77934 104.82512 106.80269 103.91954 107.82263 102.9978 108.83797 102.05952 109.84941 101.10751 110.85757 100.14008 111.86063 99.15715 112.85986 98.16017 113.85562 97.15015 114.84618 96.12271 115.83372 95.08571 116.81429 94.0326 117.79117 92.96712 118.76596 91.88805 119.73337 90.797 120.69568"/>
<path transform="matrix(1.00009,0,0,-1,114.37393,158.32)" stroke-width="2.1918" stroke-linecap="butt" stroke-miterlimit="10" stroke-linejoin="miter" fill="none" stroke="#ff0000" d="M124.19786 45.05351 124.35931 45.73929 124.51347 46.42575 124.66205 47.11336 124.79704 47.80098 124.92795 48.48915 125.0473 49.17574 125.1612 49.86438 125.26671 50.55405 125.36081 51.24263 125.44862 51.93195 125.52644 52.62186 125.59558 53.31122 125.65915 54.0008 125.70995 54.69131 125.75377 55.38127 125.79 56.07129 125.8162 56.76234 125.83687 57.45316 125.84503 58.14368"/>
<path transform="matrix(1.00009,0,0,-1,114.37393,158.32)" stroke-width=".79701" stroke-linecap="butt" stroke-dasharray=".79701,.99628" stroke-miterlimit="10" stroke-linejoin="miter" fill="none" stroke="#ff0000" d="M48.5843-33.79004 124.87613 50.9959"/>
<path transform="matrix(.6689102,-.74333,-.7433969,-.66885,239.52787,107.02791)" stroke-width=".79701" stroke-linecap="round" stroke-linejoin="round" fill="none" stroke="#ff0000" d="M-2.55046 3.11095C-2.0845 1.24435-1.04614 .36295 0 0-1.04614-.36295-2.0845-1.24435-2.55046-3.11095"/>
<use data-text="t" xlink:href="#font_3_7" transform="matrix(9.963496,0,0,-9.9626,141.79541,221.477)"/>
<use data-text="=" xlink:href="#font_2_7" transform="matrix(9.963496,0,0,-9.9626,148.16098,221.477)"/>
<use data-text="a" xlink:href="#font_3_4" transform="matrix(9.963496,0,0,-9.9626,158.67795,221.477)"/>
<use data-text="t" xlink:href="#font_3_7" transform="matrix(9.963496,0,0,-9.9626,180.49788,34.099008)"/>
<use data-text="=" xlink:href="#font_2_7" transform="matrix(9.963496,0,0,-9.9626,186.86347,34.099008)"/>
<use data-text="b" xlink:href="#font_3_5" transform="matrix(9.963496,0,0,-9.9626,197.38042,34.099008)"/>
<use data-text="&#x2206;" xlink:href="#font_2_1" transform="matrix(9.963496,0,0,-9.9626,245.30771,109.38801)"/>
<use data-text="s" xlink:href="#font_3_6" transform="matrix(9.963496,0,0,-9.9626,253.61046,109.38801)"/>
<use data-text="k" xlink:href="#font_4_1" transform="matrix(6.9744279,0,0,-6.9738,258.28089,110.88301)"/>
<use data-text="(" xlink:href="#font_2_2" transform="matrix(9.963496,0,0,-9.9626,187.75554,106.46001)"/>
<use data-text="x" xlink:href="#font_3_8" transform="matrix(9.963496,0,0,-9.9626,191.62989,106.46001)"/>
<use data-text="k" xlink:href="#font_4_1" transform="matrix(6.9744279,0,0,-6.9738,197.3244,107.95501)"/>
<use data-text="," xlink:href="#font_3_2" transform="matrix(9.963496,0,0,-9.9626,202.22682,106.46001)"/>
<use data-text="y" xlink:href="#font_3_9" transform="matrix(9.963496,0,0,-9.9626,206.64066,106.46001)"/>
<use data-text="k" xlink:href="#font_4_1" transform="matrix(6.9744279,0,0,-6.9738,211.53966,107.95501)"/>
<use data-text="," xlink:href="#font_3_2" transform="matrix(9.963496,0,0,-9.9626,216.44211,106.46001)"/>
<use data-text="z" xlink:href="#font_3_10" transform="matrix(9.963496,0,0,-9.9626,220.85593,106.46001)"/>
<use data-text="k" xlink:href="#font_4_1" transform="matrix(6.9744279,0,0,-6.9738,225.5039,107.95501)"/>
<use data-text=")" xlink:href="#font_2_3" transform="matrix(9.963496,0,0,-9.9626,230.40637,106.46001)"/>
<use data-text="r" xlink:href="#font_5_1" transform="matrix(9.963496,0,0,-9.9626,206.61724,151.91501)"/>
<use data-text="(" xlink:href="#font_2_2" transform="matrix(9.963496,0,0,-9.9626,211.33567,151.91501)"/>
<use data-text="t" xlink:href="#font_3_7" transform="matrix(9.963496,0,0,-9.9626,215.21102,151.91501)"/>
<use data-text="k" xlink:href="#font_4_1" transform="matrix(6.9744279,0,0,-6.9738,218.80834,153.41)"/>
<use data-text=")" xlink:href="#font_2_3" transform="matrix(9.963496,0,0,-9.9626,223.71077,151.91501)"/>
<use data-text="C" xlink:href="#font_3_3" transform="matrix(9.963496,0,0,-9.9626,176.33652,192.01902)" fill="#0000ff"/>
<path transform="matrix(1.00009,0,0,-1,114.37393,158.32)" d="M17.42334-51.51706C17.42334-50.69171 16.75427-50.02264 15.92892-50.02264 15.10358-50.02264 14.43451-50.69171 14.43451-51.51706 14.43451-52.3424 15.10358-53.01147 15.92892-53.01147 16.75427-53.01147 17.42334-52.3424 17.42334-51.51706ZM15.92892-51.51706" fill="#ff0000"/>
<path transform="matrix(1.00009,0,0,-1,114.37393,158.32)" stroke-width=".3985" stroke-linecap="butt" stroke-miterlimit="10" stroke-linejoin="miter" fill="none" stroke="#ff0000" d="M17.42334-51.51706C17.42334-50.69171 16.75427-50.02264 15.92892-50.02264 15.10358-50.02264 14.43451-50.69171 14.43451-51.51706 14.43451-52.3424 15.10358-53.01147 15.92892-53.01147 16.75427-53.01147 17.42334-52.3424 17.42334-51.51706ZM15.92892-51.51706"/>
<path transform="matrix(1.00009,0,0,-1,114.37393,158.32)" d="M92.28955 120.7016C92.28955 121.52695 91.62048 122.19601 90.79514 122.19601 89.96979 122.19601 89.30072 121.52695 89.30072 120.7016 89.30072 119.87625 89.96979 119.20718 90.79514 119.20718 91.62048 119.20718 92.28955 119.87625 92.28955 120.7016ZM90.79514 120.7016" fill="#ff0000"/>
<path transform="matrix(1.00009,0,0,-1,114.37393,158.32)" stroke-width=".3985" stroke-linecap="butt" stroke-miterlimit="10" stroke-linejoin="miter" fill="none" stroke="#ff0000" d="M92.28955 120.7016C92.28955 121.52695 91.62048 122.19601 90.79514 122.19601 89.96979 122.19601 89.30072 121.52695 89.30072 120.7016 89.30072 119.87625 89.96979 119.20718 90.79514 119.20718 91.62048 119.20718 92.28955 119.87625 92.28955 120.7016ZM90.79514 120.7016"/>
<path transform="matrix(1.00009,0,0,-1,114.37393,158.32)" d="M126.90361 51.58833C126.90361 52.41368 126.23454 53.08275 125.4092 53.08275 124.58385 53.08275 123.91478 52.41368 123.91478 51.58833 123.91478 50.76299 124.58385 50.09392 125.4092 50.09392 126.23454 50.09392 126.90361 50.76299 126.90361 51.58833ZM125.4092 51.58833" fill="#ff0000"/>
<path transform="matrix(1.00009,0,0,-1,114.37393,158.32)" stroke-width=".3985" stroke-linecap="butt" stroke-miterlimit="10" stroke-linejoin="miter" fill="none" stroke="#ff0000" d="M126.90361 51.58833C126.90361 52.41368 126.23454 53.08275 125.4092 53.08275 124.58385 53.08275 123.91478 52.41368 123.91478 51.58833 123.91478 50.76299 124.58385 50.09392 125.4092 50.09392 126.23454 50.09392 126.90361 50.76299 126.90361 51.58833ZM125.4092 51.58833"/>
<path transform="matrix(1.00009,0,0,-1,114.37393,158.32)" stroke-width=".3985" stroke-linecap="butt" stroke-miterlimit="10" stroke-linejoin="miter" fill="none" stroke="#ff0000" d=""/>
<use data-text="x" xlink:href="#font_3_8" transform="matrix(9.963496,0,0,-9.9626,271.85713,228.27701)"/>
<use data-text="y" xlink:href="#font_3_9" transform="matrix(9.963496,0,0,-9.9626,102.32185,242.48601)"/>
<use data-text="z" xlink:href="#font_3_10" transform="matrix(0,-9.9626,-9.963496,-0,5.5051348,133.70104)"/>
</svg>
