<svg xmlns="http://www.w3.org/2000/svg" xmlns:xlink="http://www.w3.org/1999/xlink" xmlns:inkscape="http://www.inkscape.org/namespaces/inkscape" version="1.1" width="298" height="246" viewBox="0 0 298 246">
<defs>
<path id="font_1_3" d="M.45999146 .31976319C.45999146 .39982606 .45498658 .47988893 .41999818 .5539398 .37399293 .65000918 .2919922 .6660156 .25 .6660156 .18998719 .6660156 .116989139 .64001467 .07598877 .54693606 .04399109 .47789 .038986207 .39982606 .038986207 .31976319 .038986207 .24472046 .042999269 .15464783 .083999637 .07859802 .1269989-.0024719239 .19999695-.022460938 .24899292-.022460938 .30299378-.022460938 .3789978-.0014648438 .4229889 .09359741 .45498658 .16265869 .45999146 .2407074 .45999146 .31976319M.24899292-.00047302247C.20999146-.00047302247 .15098572 .024551392 .1329956 .12062073 .12199402 .18066406 .12199402 .2727356 .12199402 .3317871 .12199402 .39582826 .12199402 .46188355 .12998963 .5159149 .14898682 .63500979 .22399903 .64401248 .24899292 .64401248 .28199769 .64401248 .34799195 .6259918 .36698915 .52693179 .3769989 .47088624 .3769989 .39482118 .3769989 .3317871 .3769989 .25672914 .3769989 .18867493 .3659973 .12461853 .35099793 .029556275 .2939911-.00047302247 .24899292-.00047302247Z"/>
<path id="font_1_4" d="M.2939911 .64004519C.2939911 .66400149 .2939911 .6660156 .2709961 .6660156 .20899964 .60227969 .12098694 .60227969 .08898926 .60227969V.57128909C.10899353 .57128909 .16799927 .57128909 .21998596 .5972748V.07902527C.21998596 .042999269 .21699524 .0309906 .1269989 .0309906H.09498596V0C.12998963 .0029907227 .21699524 .0029907227 .25698854 .0029907227 .29699708 .0029907227 .38398744 .0029907227 .4189911 0V.0309906H.3869934C.29699708 .0309906 .2939911 .041992189 .2939911 .07902527V.64004519Z"/>
<path id="font_2_1" d="M.6589966 .23046875C.6759949 .23046875 .69400027 .23046875 .69400027 .25045777 .69400027 .27046205 .6759949 .27046205 .6589966 .27046205H.117996219C.100997928 .27046205 .08299255 .27046205 .08299255 .25045777 .08299255 .23046875 .100997928 .23046875 .117996219 .23046875H.6589966Z"/>
<path id="font_3_2" d="M.19198609 .052993776C.19198609 .08198547 .16799927 .10598755 .13899231 .10598755 .10998535 .10598755 .085998538 .08198547 .085998538 .052993776 .085998538 .023986817 .10998535 0 .13899231 0 .16799927 0 .19198609 .023986817 .19198609 .052993776Z"/>
<path id="font_1_5" d="M.1269989 .07699585 .23298645 .18003845C.3889923 .31811524 .44898988 .3721466 .44898988 .47216798 .44898988 .5860901 .35899354 .6660156 .23699951 .6660156 .12399292 .6660156 .049987794 .57411196 .049987794 .48516847 .049987794 .4291687 .099990848 .4291687 .102996829 .4291687 .11999512 .4291687 .15499878 .44117738 .15499878 .48217774 .15499878 .5081787 .13699341 .5341797 .101989749 .5341797 .09399414 .5341797 .09199524 .5341797 .08898926 .5331726 .11199951 .59806826 .1659851 .63500979 .22399903 .63500979 .31498719 .63500979 .35798646 .5541382 .35798646 .47216798 .35798646 .39215089 .30799867 .31311036 .25299073 .25108338L.06098938 .036987306C.049987794 .025985718 .049987794 .023986817 .049987794 0H.42099L.44898988 .17404175H.42399598C.4189911 .14402771 .4119873 .1000061 .4019928 .084991458 .394989 .07699585 .32899476 .07699585 .30699159 .07699585H.1269989Z"/>
<path id="font_1_6" d="M.2939911 .16503906V.07800293C.2939911 .041992189 .2919922 .0309906 .21798706 .0309906H.19699097V0C.23799134 .0029907227 .2899933 .0029907227 .33198548 .0029907227 .37399293 .0029907227 .4269867 .0029907227 .46798707 0V.0309906H.44699098C.37298585 .0309906 .37098695 .041992189 .37098695 .07800293V.16503906H.47099305V.19602967H.37098695V.65075686C.37098695 .67074587 .37098695 .6767578 .35499574 .6767578 .34599305 .6767578 .34298707 .6767578 .33499146 .66474917L.027999878 .19602967V.16503906H.2939911M.2999878 .19602967H.055999757L.2999878 .5688019V.19602967Z"/>
<path id="font_1_8" d="M.13198853 .327713V.35173036C.13198853 .6047821 .2559967 .64100649 .30699159 .64100649 .33099366 .64100649 .37298585 .634964 .394989 .6007538 .37998963 .6007538 .33999635 .6007538 .33999635 .5557556 .33999635 .524765 .3639984 .5097656 .38598634 .5097656 .4019928 .5097656 .43199159 .51875308 .43199159 .5577545 .43199159 .6178589 .3880005 .6660156 .30499269 .6660156 .1769867 .6660156 .041992189 .5367584 .041992189 .31570436 .041992189 .048553468 .1579895-.022460938 .25099183-.022460938 .3619995-.022460938 .45700074 .07156372 .45700074 .2036438 .45700074 .33070375 .36799623 .4267578 .25698854 .4267578 .18899536 .4267578 .1519928 .37573243 .13198853 .327713M.25099183 .0055389406C.18798828 .0055389406 .1579895 .06556702 .1519928 .080566409 .13398743 .127594 .13398743 .2076416 .13398743 .22564698 .13398743 .30369569 .1659851 .40374757 .2559967 .40374757 .27198792 .40374757 .31799317 .40374757 .34899903 .34172059 .36698915 .30470277 .36698915 .2536621 .36698915 .20463562 .36698915 .15661621 .36698915 .10658264 .34999085 .0705719 .31999208 .010528564 .27398683 .0055389406 .25099183 .0055389406Z"/>
<path id="font_1_9" d="M.16299439 .4569702C.116989139 .486969 .11299133 .52098086 .11299133 .5379791 .11299133 .598999 .17799378 .64100649 .24899292 .64100649 .32199098 .64100649 .38598634 .58898928 .38598634 .51698306 .38598634 .45996095 .34700013 .4119568 .2869873 .37695313L.16299439 .4569702M.30899049 .36193849C.3809967 .3989563 .42999269 .45095826 .42999269 .51698306 .42999269 .6090088 .34098817 .6660156 .25 .6660156 .1499939 .6660156 .068984989 .59199526 .068984989 .49897767 .068984989 .4809723 .070999149 .43595887 .11299133 .38894654 .12399292 .37695313 .16099549 .35194398 .18598938 .33494569 .12799073 .30592347 .041992189 .24984741 .041992189 .15072632 .041992189 .04458618 .14399719-.022460938 .24899292-.022460938 .3619995-.022460938 .45700074 .06060791 .45700074 .16773987 .45700074 .20379639 .44599916 .24885559 .4079895 .2909088 .3889923 .31193543 .37298585 .3219452 .30899049 .36193849M.20899964 .3199463 .33198548 .24183655C.3600006 .2228241 .40699769 .19277954 .40699769 .13169861 .40699769 .05760193 .33198548 .0055389406 .25 .0055389406 .1639862 .0055389406 .09199524 .067611698 .09199524 .15072632 .09199524 .20880127 .12399292 .27288819 .20899964 .3199463Z"/>
<path id="font_1_7" d="M.44898988 .20022583C.44898988 .3193512 .36698915 .41944886 .25898744 .41944886 .21099854 .41944886 .16799927 .40345765 .13198853 .36842347V.5637665C.1519928 .5577698 .18499756 .55078127 .21699524 .55078127 .33999635 .55078127 .4099884 .6417694 .4099884 .6547699 .4099884 .6607666 .40699769 .6657715 .3999939 .6657715 .39898683 .6657715 .39698792 .6657715 .3919983 .66278079 .37199403 .6537781 .32299806 .6337738 .2559967 .6337738 .21598816 .6337738 .16999817 .6407776 .12298584 .6617737 .114990238 .66477969 .11299133 .66477969 .11099243 .66477969 .100997928 .66477969 .100997928 .6567688 .100997928 .6407776V.34439088C.100997928 .32637025 .100997928 .31835938 .114990238 .31835938 .12199402 .31835938 .12399292 .32136537 .12799073 .32736207 .13899231 .3433838 .17599488 .39746095 .25698854 .39746095 .30899049 .39746095 .33399964 .35139466 .34199525 .33337403 .35798646 .29632569 .3600006 .25727845 .3600006 .20722962 .3600006 .17222595 .3600006 .11222839 .33599855 .07035828 .31199647 .031463624 .2749939 .0055389406 .22898865 .0055389406 .1559906 .0055389406 .09899902 .058380128 .08198547 .11723328 .084991458 .1162262 .08799744 .115234378 .09899902 .115234378 .13198853 .115234378 .14898682 .14022827 .14898682 .16423035 .14898682 .18823242 .13198853 .21322632 .09899902 .21322632 .084991458 .21322632 .049987794 .20622254 .049987794 .16023255 .049987794 .07434082 .11898804-.022460938 .23098755-.022460938 .34700013-.022460938 .44898988 .073349 .44898988 .20022583Z"/>
<path id="font_1_1" d="M.33099366-.2400055C.33099366-.23701477 .33099366-.23500061 .31399537-.21800232 .18899536-.0920105 .15699768 .09700012 .15699768 .25 .15699768 .42399598 .19499207 .59799197 .31799317 .72299197 .33099366 .73498538 .33099366 .7369995 .33099366 .73999026 .33099366 .746994 .32699586 .75 .32099916 .75 .31098939 .75 .22099304 .6819916 .1619873 .5549927 .11099243 .44499208 .09899902 .33399964 .09899902 .25 .09899902 .17199707 .10998535 .050994874 .16499329-.06201172 .22499085-.18501282 .31098939-.25 .32099916-.25 .32699586-.25 .33099366-.24700928 .33099366-.2400055Z"/>
<path id="font_3_3" d="M.20298767 .0009918213C.20298767 .066986087 .17799378 .10598755 .13899231 .10598755 .10598755 .10598755 .085998538 .08099365 .085998538 .052993776 .085998538 .025985718 .10598755 0 .13899231 0 .15098572 0 .1639862 .0039978029 .17399597 .0129852299 .1769867 .01499939 .17799378 .015991211 .1789856 .015991211 .17999268 .015991211 .18099976 .01499939 .18099976 .0009918213 .18099976-.07316589 .1459961-.13328552 .11299133-.16635132 .101989749-.17736817 .101989749-.17936707 .101989749-.18237305 .101989749-.18936157 .10699463-.19335938 .11199951-.19335938 .12298584-.19335938 .20298767-.116256717 .20298767 .0009918213Z"/>
<path id="font_1_2" d="M.2889862 .25C.2889862 .32798768 .27799989 .44898988 .22299195 .56199648 .16299439 .68499758 .07699585 .75 .066986087 .75 .06098938 .75 .056991579 .74598696 .056991579 .73999026 .056991579 .7369995 .056991579 .73498538 .07598877 .71699526 .17399597 .6179962 .23098755 .45899964 .23098755 .25 .23098755 .07899475 .19400025-.09700012 .069992069-.2230072 .056991579-.23500061 .056991579-.23701477 .056991579-.2400055 .056991579-.2460022 .06098938-.25 .066986087-.25 .07699585-.25 .16699219-.18200684 .22599793-.055007936 .2769928 .054992677 .2889862 .16600037 .2889862 .25Z"/>
<path id="font_3_1" d="M.2649994 .37265016H.37799073C.34498597 .22489929 .33599855 .18196106 .33599855 .11508179 .33599855 .100097659 .33599855 .073150638 .34399415 .03919983 .35398866-.0047454836 .36499024-.0107421879 .37998963-.0107421879 .3999939-.0107421879 .42099 .007247925 .42099 .02722168 .42099 .033218385 .42099 .035202028 .4149933 .049179079 .38598634 .12106323 .38598634 .18595886 .38598634 .21391297 .38598634 .26683045 .3929901 .32073976 .4039917 .37265016H.5179901C.5309906 .37265016 .5669861 .37265016 .5669861 .406662 .5669861 .43066407 .54599 .43066407 .5269928 .43066407H.19198609C.16999817 .43066407 .13198853 .43066407 .08799744 .38365174 .052993776 .34469605 .026992798 .29878236 .026992798 .29379273 .026992798 .29278565 .026992798 .28379823 .038986207 .28379823 .04699707 .28379823 .04899597 .28779603 .054992677 .29577638 .10398865 .37265016 .1619873 .37265016 .18199158 .37265016H.23899842C.20698548 .25186158 .15299988 .13105774 .11099243 .04020691 .102996829 .025222779 .102996829 .023223877 .102996829 .016235352 .102996829-.002746582 .11898804-.0107421879 .13198853-.0107421879 .1619873-.0107421879 .16999817 .017242432 .18199158 .05418396 .19599915 .100097659 .19599915 .10209656 .20899964 .15202332L.2649994 .37265016Z"/>
<path id="font_3_4" d="M.43899537 .71199038C.44400025 .72499087 .44400025 .72898867 .44400025 .7299957 .44400025 .7409973 .43499757 .75 .42399598 .75 .4169922 .75 .4099884 .746994 .40699769 .7409973L.05999756-.21200562C.054992677-.2250061 .054992677-.2290039 .054992677-.23001099 .054992677-.24101258 .06399536-.25 .07499695-.25 .08799744-.25 .09098816-.24301148 .09700012-.22601319L.43899537 .71199038Z"/>
<path id="font_3_5" d="M.7599945 .69506838C.7599945 .69807437 .7579956 .7050781 .7489929 .7050781 .74598696 .7050781 .7449951 .70407107 .73399356 .69306948L.6639862 .61602786C.6549988 .6300354 .60899356 .7050781 .49798585 .7050781 .2749939 .7050781 .049987794 .48391725 .049987794 .25172425 .049987794 .08659363 .16799927-.022460938 .32099916-.022460938 .4079895-.022460938 .48399354 .017532349 .5369873 .063583377 .6299896 .14564514 .6469879 .2367096 .6469879 .23971558 .6469879 .24972534 .6369934 .24972534 .6349945 .24972534 .6289978 .24972534 .6239929 .24772644 .621994 .23971558 .61299136 .21069336 .58999636 .13963318 .5209961 .081588748 .45199586 .025543213 .3889923 .008529663 .33699037 .008529663 .24699402 .008529663 .14099121 .060577394 .14099121 .21670532 .14099121 .27374269 .1619873 .43588258 .2619934 .55296328 .32299806 .62402346 .4169922 .67407229 .5059967 .67407229 .60798647 .67407229 .6669922 .5970001 .6669922 .48091126 .6669922 .44088746 .6639862 .43988038 .6639862 .4298706 .6639862 .41986085 .6749878 .41986085 .67900088 .41986085 .69200137 .41986085 .69200137 .42185975 .69699099 .43988038L.7599945 .69506838Z"/>
<path id="font_3_6" d="M.33399964 .30233766C.33999635 .32835389 .36299134 .42037965 .43299867 .42037965 .43798829 .42037965 .46199037 .42037965 .48298646 .40734864 .45498658 .402359 .43499757 .37734986 .43499757 .35334779 .43499757 .33735658 .44599916 .31835938 .47299195 .31835938 .49499513 .31835938 .5269928 .3363495 .5269928 .37635804 .5269928 .42837525 .46798707 .4423828 .43399049 .4423828 .37599183 .4423828 .34098817 .38935853 .32899476 .36634828 .3039856 .43237306 .25 .4423828 .22099304 .4423828 .116989139 .4423828 .05999756 .3133545 .05999756 .28834535 .05999756 .27833558 .069992069 .27833558 .07199097 .27833558 .07998657 .27833558 .08299255 .28033448 .084991458 .28933717 .11898804 .39535523 .18499756 .42037965 .21899414 .42037965 .23799134 .42037965 .272995 .4113617 .272995 .35334779 .272995 .32235719 .2559967 .25532533 .21899414 .11528015 .20298767 .053268434 .16799927 .011245728 .12399292 .011245728 .117996219 .011245728 .09498596 .011245728 .07398987 .024276734 .09899902 .029266358 .12098694 .05027771 .12098694 .07827759 .12098694 .105270389 .09899902 .11328125 .083999637 .11328125 .053985597 .11328125 .0289917 .08728027 .0289917 .055267335 .0289917 .009246826 .07899475-.0107421879 .12298584-.0107421879 .18899536-.0107421879 .22499085 .059280397 .22799683 .0652771 .23999024 .028274537 .27598573-.0107421879 .33599855-.0107421879 .43899537-.0107421879 .49598695 .118270877 .49598695 .14328003 .49598695 .1532898 .4869995 .1532898 .48399354 .1532898 .47499085 .1532898 .47299195 .14929199 .47099305 .14228821 .43798829 .03527832 .36999513 .011245728 .33799745 .011245728 .29899598 .011245728 .2829895 .043273927 .2829895 .07727051 .2829895 .09927368 .2889862 .121276859 .2999878 .16529846L.33399964 .30233766Z"/>
<path id="font_3_7" d="M.48599244 .38136292C.48999024 .39537049 .48999024 .39736939 .48999024 .40437318 .48999024 .42237855 .47599793 .43138124 .46099855 .43138124 .45098878 .43138124 .43499757 .42536927 .42599488 .41036988 .42399598 .405365 .41600038 .37435914 .4119873 .35635377 .40499879 .33035279 .397995 .30334474 .3919983 .27633668L.34700013 .09628296C.34298707 .08126831 .2999878 .011245728 .23399353 .011245728 .18299866 .011245728 .17199707 .055267335 .17199707 .0922699 .17199707 .1382904 .18899536 .20030213 .22299195 .28833009 .23899842 .3293457 .24299622 .3403473 .24299622 .36035157 .24299622 .405365 .21099854 .4423828 .16099549 .4423828 .06599426 .4423828 .0289917 .29733277 .0289917 .28833009 .0289917 .27833558 .038986207 .27833558 .040985109 .27833558 .050994874 .27833558 .051986696 .28033448 .056991579 .29634095 .083999637 .3903656 .12399292 .42037965 .1579895 .42037965 .1659851 .42037965 .18299866 .42037965 .18299866 .3883667 .18299866 .36335755 .17298889 .3373413 .1659851 .31834413 .12599182 .21231079 .10798645 .1552887 .10798645 .10827637 .10798645 .019256592 .17098999-.0107421879 .22999573-.0107421879 .2689972-.0107421879 .30299378 .0062561037 .33099366 .03425598 .31799317-.017745972 .30599977-.06674194 .2659912-.11973572 .23999024-.15385437 .20199585-.18309021 .1559906-.18309021 .14199829-.18309021 .09700012-.18005371 .07998657-.14074707 .09599304-.14074707 .10899353-.14074707 .12298584-.1287384 .1329956-.11973572 .14299011-.10673523 .14299011-.08773804 .14299011-.056747438 .115997318-.052734376 .10598755-.052734376 .08299255-.052734376 .049987794-.068740848 .049987794-.11773682 .049987794-.16796875 .09399414-.20507813 .1559906-.20507813 .25898744-.20507813 .3619995-.11373901 .3899994-.00074768069L.48599244 .38136292Z"/>
<path id="font_3_8" d="M.1329956 .08345032C.18699646 .14138794 .21598816 .16636658 .2519989 .19732666 .2519989 .19833374 .31399537 .25128175 .34999085 .2872467 .44499208 .3803711 .46699525 .42837525 .46699525 .43237306 .46699525 .4423828 .45799256 .4423828 .45599366 .4423828 .44898988 .4423828 .44599916 .44036866 .44099427 .43138124 .41099549 .38337709 .3899994 .3671875 .3659973 .3671875 .34199525 .3671875 .32998658 .38237 .31498719 .3993683 .29599 .42237855 .2789917 .4423828 .24598694 .4423828 .17098999 .4423828 .125 .34918214 .125 .3282013 .125 .3231964 .12799073 .31721498 .13699341 .31721498 .1459961 .31721498 .147995 .3222046 .1499939 .3282013 .16899109 .37434388 .22698975 .37538148 .23498535 .37538148 .2559967 .37538148 .2749939 .36820985 .2979889 .36018373 .33799745 .34518434 .34899903 .34518434 .375 .34518434 .33898927 .30223084 .25498963 .2303009 .23599243 .21430969L.1459961 .13040161C.07798767 .06341553 .042999269 .0062561037 .042999269-.00074768069 .042999269-.0107421879 .052993776-.0107421879 .054992677-.0107421879 .06298828-.0107421879 .06498718-.008743286 .070999149 .002243042 .09399414 .037246705 .12399292 .064453128 .1559906 .064453128 .1789856 .064453128 .18899536 .055252077 .21398926 .026245118 .23098755 .0052490236 .24899292-.0107421879 .27799989-.0107421879 .3769989-.0107421879 .43499757 .1164093 .43499757 .14338684 .43499757 .14837647 .43099977 .15338135 .4229889 .15338135 .4139862 .15338135 .4119873 .14738465 .40899659 .14039612 .38598634 .07543945 .32199098 .056243898 .2889862 .056243898 .2689972 .056243898 .25099183 .06239319 .22999573 .06944275 .19599915 .08244324 .18099976 .08644104 .1599884 .08644104 .1579895 .08644104 .14199829 .08644104 .1329956 .08345032Z"/>
</defs>
<path transform="matrix(1.00006,0,0,-1,114.36794,158.319)" stroke-width=".3985" stroke-linecap="butt" stroke-miterlimit="10" stroke-linejoin="miter" fill="none" stroke="#e5e6e5" d="M-15.9192-8.64186 166.15671-30.13138M-68.98323-37.44809 113.09268-58.9376"/>
<path transform="matrix(1.00006,0,0,-1,114.36794,158.319)" stroke-width=".3985" stroke-linecap="butt" stroke-miterlimit="10" stroke-linejoin="miter" fill="none" stroke="#e5e6e5" d="M11.37973-1.3431-73.52269-47.43306M34.13922-4.02928-50.7632-50.11925M56.89871-6.71547-28.00371-52.80544M79.6582-9.40166-5.24422-55.49162M102.4177-12.08784 17.51526-58.17781M125.17719-14.77403 40.27475-60.864M147.93668-17.46022 63.03424-63.55019M170.69617-20.14641 85.79373-66.23637"/>
<path transform="matrix(1.00006,0,0,-1,114.36794,158.319)" stroke-width=".19925" stroke-linecap="butt" stroke-miterlimit="10" stroke-linejoin="miter" fill="none" stroke="#7f807f" d="M-15.9192-8.64186-11.69595-9.1403M-68.98323-37.44809-64.75998-37.94653M166.15671-30.13138 161.93344-29.63292M113.09268-58.9376 108.86942-58.43915"/>
<path transform="matrix(1.00006,0,0,-1,114.36794,158.319)" stroke-width=".19925" stroke-linecap="butt" stroke-miterlimit="10" stroke-linejoin="miter" fill="none" stroke="#7f807f" d="M11.37973-1.3431 7.64278-3.37172M34.13922-4.02928 30.40227-6.0579M56.89871-6.71547 53.16176-8.7441M79.6582-9.40166 75.92123-11.43028M102.4177-12.08784 98.68073-14.11647M125.17719-14.77403 121.44022-16.80266M147.93668-17.46022 144.1997-19.48885M170.69617-20.14641 166.9592-22.17505M-73.52269-47.43306-69.7857-45.4044M-50.7632-50.11925-47.02621-48.0906M-28.00371-52.80544-24.26672-50.7768M-5.24422-55.49162-1.50723-53.46298M17.51526-58.17781 21.25224-56.14917M40.27475-60.864 44.01173-58.83536M63.03424-63.55019 66.77121-61.52155M85.79373-66.23637 89.5307-64.20773"/>
<path transform="matrix(1.00006,0,0,-1,114.36794,158.319)" stroke-width=".3985" stroke-linecap="butt" stroke-miterlimit="10" stroke-linejoin="miter" fill="none" stroke="#000000" d="M0 0-84.90244-46.08997"/>
<path transform="matrix(1.00006,0,0,-1,114.36794,158.319)" stroke-width=".3985" stroke-linecap="butt" stroke-miterlimit="10" stroke-linejoin="miter" fill="none" stroke="#000000" d="M182.07592-21.4895 97.17348-67.57947"/>
<path transform="matrix(1.00006,0,0,-1,114.36794,158.319)" stroke-width=".3985" stroke-linecap="butt" stroke-miterlimit="10" stroke-linejoin="miter" fill="none" stroke="#000000" d="M0 0 182.07592-21.4895"/>
<path transform="matrix(1.00006,0,0,-1,114.36794,158.319)" stroke-width=".3985" stroke-linecap="butt" stroke-miterlimit="10" stroke-linejoin="miter" fill="none" stroke="#000000" d="M-84.90244-46.08997 97.17348-67.57947"/>
<use data-text="0" xlink:href="#font_1_3" transform="matrix(9.963197,0,0,-9.9626,284.0371,198.4)"/>
<use data-text="1" xlink:href="#font_1_4" transform="matrix(9.963197,0,0,-9.9626,230.96994,227.206)"/>
<use data-text="&#x2212;" xlink:href="#font_2_1" transform="matrix(9.963197,0,0,-9.9626,25.725632,216.73999)"/>
<use data-text="0" xlink:href="#font_1_3" transform="matrix(9.963197,0,0,-9.9626,33.475099,216.73999)"/>
<use data-text="." xlink:href="#font_3_2" transform="matrix(9.963197,0,0,-9.9626,38.457384,216.73999)"/>
<use data-text="2" xlink:href="#font_1_5" transform="matrix(9.963197,0,0,-9.9626,41.22455,216.73999)"/>
<use data-text="0" xlink:href="#font_1_3" transform="matrix(9.963197,0,0,-9.9626,56.974504,218.599)"/>
<use data-text="0" xlink:href="#font_1_3" transform="matrix(9.963197,0,0,-9.9626,75.60661,221.71302)"/>
<use data-text="." xlink:href="#font_3_2" transform="matrix(9.963197,0,0,-9.9626,80.58891,221.71302)"/>
<use data-text="2" xlink:href="#font_1_5" transform="matrix(9.963197,0,0,-9.9626,83.35608,221.71302)"/>
<use data-text="0" xlink:href="#font_1_3" transform="matrix(9.963197,0,0,-9.9626,98.36798,224.399)"/>
<use data-text="." xlink:href="#font_3_2" transform="matrix(9.963197,0,0,-9.9626,103.35028,224.399)"/>
<use data-text="4" xlink:href="#font_1_6" transform="matrix(9.963197,0,0,-9.9626,106.11745,224.399)"/>
<use data-text="0" xlink:href="#font_1_3" transform="matrix(9.963197,0,0,-9.9626,121.12835,227.08499)"/>
<use data-text="." xlink:href="#font_3_2" transform="matrix(9.963197,0,0,-9.9626,126.11065,227.08499)"/>
<use data-text="6" xlink:href="#font_1_8" transform="matrix(9.963197,0,0,-9.9626,128.8778,227.08499)"/>
<use data-text="0" xlink:href="#font_1_3" transform="matrix(9.963197,0,0,-9.9626,143.88971,229.771)"/>
<use data-text="." xlink:href="#font_3_2" transform="matrix(9.963197,0,0,-9.9626,148.87201,229.771)"/>
<use data-text="8" xlink:href="#font_1_9" transform="matrix(9.963197,0,0,-9.9626,151.63918,229.771)"/>
<use data-text="1" xlink:href="#font_1_4" transform="matrix(9.963197,0,0,-9.9626,170.77933,232.03)"/>
<use data-text="1" xlink:href="#font_1_4" transform="matrix(9.963197,0,0,-9.9626,189.41144,235.144)"/>
<use data-text="." xlink:href="#font_3_2" transform="matrix(9.963197,0,0,-9.9626,194.39374,235.144)"/>
<use data-text="2" xlink:href="#font_1_5" transform="matrix(9.963197,0,0,-9.9626,197.16092,235.144)"/>
<path transform="matrix(1.00006,0,0,-1,114.36794,158.319)" stroke-width=".19925" stroke-linecap="butt" stroke-miterlimit="10" stroke-linejoin="miter" fill="none" stroke="#7f807f" d="M-15.9192 147.87921-11.69595 147.38077M-68.98323 119.07298-64.75998 118.57454"/>
<path transform="matrix(1.00006,0,0,-1,114.36794,158.319)" stroke-width=".19925" stroke-linecap="butt" stroke-miterlimit="10" stroke-linejoin="miter" fill="none" stroke="#7f807f" d="M11.37973 155.178 7.64278 153.14936M34.13922 152.49179 30.40227 150.46317M56.89871 149.8056 53.16176 147.77698M79.6582 147.11942 75.92123 145.09079M102.4177 144.43323 98.68073 142.4046M125.17719 141.74704 121.44022 139.71842M147.93668 139.06085 144.1997 137.03223M170.69617 136.37467 166.9592 134.34604"/>
<path transform="matrix(1.00006,0,0,-1,114.36794,158.319)" stroke-width=".3985" stroke-linecap="butt" stroke-miterlimit="10" stroke-linejoin="miter" fill="none" stroke="#000000" d="M0 156.52109-84.90244 110.43112"/>
<path transform="matrix(1.00006,0,0,-1,114.36794,158.319)" stroke-width=".3985" stroke-linecap="butt" stroke-miterlimit="10" stroke-linejoin="miter" fill="none" stroke="#000000" d="M0 156.52109 182.07592 135.03157"/>
<path transform="matrix(1.00006,0,0,-1,114.36794,158.319)" stroke-width=".3985" stroke-linecap="butt" stroke-miterlimit="10" stroke-linejoin="miter" fill="none" stroke="#e5e6e5" d="M11.37973-1.3431V155.178M34.13922-4.02928V152.49179M56.89871-6.71547V149.8056M79.6582-9.40166V147.11942M102.4177-12.08784V144.43323M125.17719-14.77403V141.74704M147.93668-17.46022V139.06085M170.69617-20.14641V136.37467"/>
<path transform="matrix(1.00006,0,0,-1,114.36794,158.319)" stroke-width=".19925" stroke-linecap="butt" stroke-miterlimit="10" stroke-linejoin="miter" fill="none" stroke="#7f807f" d="M11.37973-1.3431V2.90858M34.13922-4.02928V.2224M56.89871-6.71547V-2.46378M79.6582-9.40166V-5.14996M102.4177-12.08784V-7.83615M125.17719-14.77403V-10.52234M147.93668-17.46022V-13.20854M170.69617-20.14641V-15.89473M11.37973 155.178V150.92629M34.13922 152.49179V148.2401M56.89871 149.8056V145.55391M79.6582 147.11942V142.86772M102.4177 144.43323V140.18152M125.17719 141.74704V137.49533M147.93668 139.06085V134.80915M170.69617 136.37467V132.12296"/>
<path transform="matrix(1.00006,0,0,-1,114.36794,158.319)" stroke-width=".3985" stroke-linecap="butt" stroke-miterlimit="10" stroke-linejoin="miter" fill="none" stroke="#e5e6e5" d="M0 0 182.07592-21.4895M0 41.18976 182.07592 19.70024M0 82.37952 182.07592 60.89M0 123.56927 182.07592 102.07976"/>
<path transform="matrix(1.00006,0,0,-1,114.36794,158.319)" stroke-width=".19925" stroke-linecap="butt" stroke-miterlimit="10" stroke-linejoin="miter" fill="none" stroke="#7f807f" d="M0 0 4.22324-.49843M0 41.18976 4.22324 40.69131M0 82.37952 4.22324 81.88107M0 123.56927 4.22324 123.07083M182.07592-21.4895 177.85265-20.99106M182.07592 19.70024 177.85265 20.1987M182.07592 60.89 177.85265 61.38846M182.07592 102.07976 177.85265 102.57822"/>
<path transform="matrix(1.00006,0,0,-1,114.36794,158.319)" stroke-width=".3985" stroke-linecap="butt" stroke-miterlimit="10" stroke-linejoin="miter" fill="none" stroke="#000000" d="M0 0V156.52109"/>
<path transform="matrix(1.00006,0,0,-1,114.36794,158.319)" stroke-width=".3985" stroke-linecap="butt" stroke-miterlimit="10" stroke-linejoin="miter" fill="none" stroke="#000000" d="M182.07592-21.4895V135.03157"/>
<path transform="matrix(1.00006,0,0,-1,114.36794,158.319)" stroke-width=".19925" stroke-linecap="butt" stroke-miterlimit="10" stroke-linejoin="miter" fill="none" stroke="#7f807f" d="M-73.52269-47.43306V-43.18137M-50.7632-50.11925V-45.86755M-28.00371-52.80544V-48.55374M-5.24422-55.49162V-51.23993M17.51526-58.17781V-53.92612M40.27475-60.864V-56.6123M63.03424-63.55019V-59.29851M85.79373-66.23637V-61.9847"/>
<path transform="matrix(1.00006,0,0,-1,114.36794,158.319)" stroke-width=".19925" stroke-linecap="butt" stroke-miterlimit="10" stroke-linejoin="miter" fill="none" stroke="#7f807f" d="M-84.90244-46.08997-80.67918-46.5884M-84.90244-4.90019-80.67918-5.39864M-84.90244 36.28955-80.67918 35.7911M-84.90244 77.47931-80.67918 76.98087"/>
<path transform="matrix(1.00006,0,0,-1,114.36794,158.319)" stroke-width=".3985" stroke-linecap="butt" stroke-miterlimit="10" stroke-linejoin="miter" fill="none" stroke="#000000" d="M-84.90244-46.08997V110.43112"/>
<use data-text="0" xlink:href="#font_1_3" transform="matrix(9.963197,0,0,-9.9626,20.959336,208.774)"/>
<use data-text="0" xlink:href="#font_1_3" transform="matrix(9.963197,0,0,-9.9626,13.209885,168.32901)"/>
<use data-text="." xlink:href="#font_3_2" transform="matrix(9.963197,0,0,-9.9626,18.192185,168.32901)"/>
<use data-text="5" xlink:href="#font_1_7" transform="matrix(9.963197,0,0,-9.9626,20.95935,168.32901)"/>
<use data-text="1" xlink:href="#font_1_4" transform="matrix(9.963197,0,0,-9.9626,20.959336,126.395008)"/>
<use data-text="1" xlink:href="#font_1_4" transform="matrix(9.963197,0,0,-9.9626,13.209885,85.95)"/>
<use data-text="." xlink:href="#font_3_2" transform="matrix(9.963197,0,0,-9.9626,18.192185,85.95)"/>
<use data-text="5" xlink:href="#font_1_7" transform="matrix(9.963197,0,0,-9.9626,20.95935,85.95)"/>
<path transform="matrix(1.00006,0,0,-1,114.36794,158.319)" stroke-width=".3985" stroke-linecap="butt" stroke-miterlimit="10" stroke-linejoin="miter" fill="none" stroke="#e5e6e5" d="M-15.9192-8.64186V147.87921M-68.98323-37.44809V119.07298"/>
<path transform="matrix(1.00006,0,0,-1,114.36794,158.319)" stroke-width=".19925" stroke-linecap="butt" stroke-miterlimit="10" stroke-linejoin="miter" fill="none" stroke="#7f807f" d="M-15.9192-8.64186V-4.39017M-68.98323-37.44809V-33.1964M-15.9192 147.87921V143.6275M-68.98323 119.07298V114.82127"/>
<path transform="matrix(1.00006,0,0,-1,114.36794,158.319)" stroke-width=".3985" stroke-linecap="butt" stroke-miterlimit="10" stroke-linejoin="miter" fill="none" stroke="#e5e6e5" d="M0 0-84.90244-46.08997M0 41.18976-84.90244-4.90019M0 82.37952-84.90244 36.28955M0 123.56927-84.90244 77.47931"/>
<path transform="matrix(1.00006,0,0,-1,114.36794,158.319)" stroke-width=".19925" stroke-linecap="butt" stroke-miterlimit="10" stroke-linejoin="miter" fill="none" stroke="#7f807f" d="M0 0-3.73695-2.02863M0 41.18976-3.73695 39.16112M0 82.37952-3.73695 80.35089M0 123.56927-3.73695 121.54065M-84.90244-46.08997-81.16545-44.06131M-84.90244-4.90019-81.16545-2.87155M-84.90244 36.28955-81.16545 38.31819M-84.90244 77.47931-81.16545 79.50795"/>
<path transform="matrix(1.00006,0,0,-1,114.36794,158.319)" stroke-width=".19925" stroke-linecap="butt" stroke-miterlimit="10" stroke-linejoin="miter" fill="none" stroke="#7f807f" d="M166.15671-30.13138V-25.87968M113.09268-58.9376V-54.68591"/>
<path transform="matrix(1.00006,0,0,-1,114.36794,158.319)" stroke-width=".19925" stroke-linecap="butt" stroke-miterlimit="10" stroke-linejoin="miter" fill="none" stroke="#7f807f" d="M182.07592-21.4895 178.33895-23.51814M182.07592 19.70024 178.33895 17.67162M182.07592 60.89 178.33895 58.86137M182.07592 102.07976 178.33895 100.05113"/>
<path transform="matrix(1.00006,0,0,-1,114.36794,158.319)" stroke-width=".79701" stroke-linecap="butt" stroke-dasharray="2.98883,2.98883" stroke-miterlimit="10" stroke-linejoin="miter" fill="none" stroke="#7f807f" d="M-34.844-41.47737-31.79521-41.82283-28.71301-42.15012-25.5939-42.45512-22.44992-42.74063-19.2708-43.00327-16.06627-43.24612-12.83955-43.46562-9.59093-43.66425-6.3217-43.84038-3.03513-43.99507 .2675-44.12674 3.58186-44.23703 6.90834-44.32417 10.24023-44.38882 13.57877-44.43182 16.92209-44.45119 20.2631-44.4492 23.60489-44.42351 26.9422-44.37692 30.27351-44.30579 33.59589-44.21466 36.90604-44.09859 40.20781-43.96225 43.4891-43.80244 46.7557-43.62126 49.99852-43.41765 53.22336-43.19296 56.41882-42.94589 59.58897-42.67792 62.73276-42.38896 65.83983-42.07777 68.91669-41.7469 71.9553-41.3947 74.95808-41.02283 77.9192-40.62918 80.83965-40.21779 83.71404-39.7855 86.54323-39.33563 89.32077-38.86494 92.05435-38.37746 94.72794-37.86995 97.35362-37.34555 99.91899-36.80351 102.43031-36.24493 104.87677-35.66817 107.26549-35.07686 109.58948-34.46883 111.8505-33.84457 114.04367-33.20601 116.17123-32.55269 118.22601-31.8862 120.2113-31.20557 122.12663-30.51175 123.96361-29.80484 125.73137-29.08661 127.41751-28.3563 129.03226-27.61507 130.56046-26.86295 132.01625-26.10124"/>
<path transform="matrix(1.00006,0,0,-1,114.36794,158.319)" stroke-width=".3985" stroke-linecap="butt" stroke-dasharray=".3985,.99628" stroke-miterlimit="10" stroke-linejoin="miter" fill="none" stroke="#7f807f" d="M132.01747-26.1021V103.29964"/>
<path transform="matrix(1.00006,0,0,-1,114.36794,158.319)" stroke-width="2.1918" stroke-linecap="butt" stroke-miterlimit="10" stroke-linejoin="miter" fill="none" stroke="#ff0000" d="M-34.844-41.47737-32.57065-40.09976-30.27823-38.71106-27.96455-37.31152-25.63306-35.90009-23.28708-34.47702-20.92435-33.04262-18.5461-31.59601-16.15062-30.13707-13.7441-28.6661-11.32152-27.18265-8.89075-25.68648-6.4505-24.17917-3.99525-22.65993-1.53465-21.128 .93468-19.58308 3.4111-18.02603 5.89177-16.45616 8.38113-14.87328 10.86763-13.27917 13.36055-11.67183 15.85776-10.05234 18.35367-8.42079 20.85149-6.77542 23.34677-5.11713 25.838-3.4475 28.32903-1.76521 30.81584-.07016 33.29689 1.6368 35.77206 3.35634 38.23904 5.08952 40.69911 6.83475 43.1511 8.59212 45.59224 10.36163 48.0242 12.14348 50.44423 13.93689 52.84946 15.74257 55.24312 17.56154 57.62039 19.39194 59.98125 21.2337 62.32901 23.0879 64.65527 24.95375 66.96513 26.831 69.25586 28.71893 71.52725 30.61967 73.77538 32.53262 76.00223 34.45581 78.20764 36.38992 80.38832 38.3347 82.54523 40.29138 84.67697 42.25766 86.78221 44.2352 88.8576 46.22357 90.90663 48.22246 92.92871 50.23152 94.92049 52.25049 96.88315 54.27919 98.81331 56.31734 100.71037 58.36534 102.57545 60.4238 104.40645 62.49084 106.20499 64.56732 107.96838 66.65181 109.697 68.746 111.39052 70.8482 113.04599 72.95912 114.66234 75.07884 116.2413 77.20683 117.77963 79.34138 119.28004 81.48389 120.74304 83.6347 122.16492 85.79176 123.54623 87.95535 124.88449 90.1272 126.17763 92.3061 127.42928 94.48955 128.64078 96.68056 129.80675 98.87695 130.93056 101.07903 132.0099 103.287"/>
<use data-text="(" xlink:href="#font_1_1" transform="matrix(9.963197,0,0,-9.9626,89.019428,210.788)"/>
<use data-text="1" xlink:href="#font_1_4" transform="matrix(9.963197,0,0,-9.9626,92.88516,210.788)"/>
<use data-text="," xlink:href="#font_3_3" transform="matrix(9.963197,0,0,-9.9626,97.87596,210.788)"/>
<use data-text="0" xlink:href="#font_1_3" transform="matrix(9.963197,0,0,-9.9626,102.30423,210.788)"/>
<use data-text="," xlink:href="#font_3_3" transform="matrix(9.963197,0,0,-9.9626,107.28552,210.788)"/>
<use data-text="0" xlink:href="#font_1_3" transform="matrix(9.963197,0,0,-9.9626,111.71379,210.788)"/>
<use data-text=")" xlink:href="#font_1_2" transform="matrix(9.963197,0,0,-9.9626,116.69537,210.788)"/>
<use data-text="(" xlink:href="#font_1_1" transform="matrix(9.963197,0,0,-9.9626,251.90619,47.016)"/>
<use data-text="0" xlink:href="#font_1_3" transform="matrix(9.963197,0,0,-9.9626,255.77191,47.016)"/>
<use data-text="," xlink:href="#font_3_3" transform="matrix(9.963197,0,0,-9.9626,260.76274,47.016)"/>
<use data-text="1" xlink:href="#font_1_4" transform="matrix(9.963197,0,0,-9.9626,265.19099,47.016)"/>
<use data-text="," xlink:href="#font_3_3" transform="matrix(9.963197,0,0,-9.9626,270.17228,47.016)"/>
<use data-text="&#x03c0;" xlink:href="#font_3_1" transform="matrix(9.963197,0,0,-9.9626,274.586,47.016)"/>
<use data-text="/" xlink:href="#font_3_4" transform="matrix(9.963197,0,0,-9.9626,280.62367,47.016)"/>
<use data-text="2" xlink:href="#font_1_5" transform="matrix(9.963197,0,0,-9.9626,285.6192,47.016)"/>
<use data-text=")" xlink:href="#font_1_2" transform="matrix(9.963197,0,0,-9.9626,290.6008,47.016)"/>
<use data-text="C" xlink:href="#font_3_5" transform="matrix(9.963197,0,0,-9.9626,158.19858,139.555)" fill="#ff0000"/>
<path transform="matrix(1.00006,0,0,-1,114.36794,158.319)" d="M-33.34958-41.47737C-33.34958-40.65202-34.01865-39.98296-34.844-39.98296-35.66934-39.98296-36.33841-40.65202-36.33841-41.47737-36.33841-42.30272-35.66934-42.97179-34.844-42.97179-34.01865-42.97179-33.34958-42.30272-33.34958-41.47737ZM-34.844-41.47737" fill="#ff0000"/>
<path transform="matrix(1.00006,0,0,-1,114.36794,158.319)" stroke-width=".3985" stroke-linecap="butt" stroke-miterlimit="10" stroke-linejoin="miter" fill="none" stroke="#ff0000" d="M-33.34958-41.47737C-33.34958-40.65202-34.01865-39.98296-34.844-39.98296-35.66934-39.98296-36.33841-40.65202-36.33841-41.47737-36.33841-42.30272-35.66934-42.97179-34.844-42.97179-34.01865-42.97179-33.34958-42.30272-33.34958-41.47737ZM-34.844-41.47737"/>
<path transform="matrix(1.00006,0,0,-1,114.36794,158.319)" d="M133.51189 103.29964C133.51189 104.12498 132.84282 104.79405 132.01747 104.79405 131.19213 104.79405 130.52306 104.12498 130.52306 103.29964 130.52306 102.47429 131.19213 101.80522 132.01747 101.80522 132.84282 101.80522 133.51189 102.47429 133.51189 103.29964ZM132.01747 103.29964" fill="#ff0000"/>
<path transform="matrix(1.00006,0,0,-1,114.36794,158.319)" stroke-width=".3985" stroke-linecap="butt" stroke-miterlimit="10" stroke-linejoin="miter" fill="none" stroke="#ff0000" d="M133.51189 103.29964C133.51189 104.12498 132.84282 104.79405 132.01747 104.79405 131.19213 104.79405 130.52306 104.12498 130.52306 103.29964 130.52306 102.47429 131.19213 101.80522 132.01747 101.80522 132.84282 101.80522 133.51189 102.47429 133.51189 103.29964ZM132.01747 103.29964"/>
<path transform="matrix(1.00006,0,0,-1,114.36794,158.319)" stroke-width=".3985" stroke-linecap="butt" stroke-miterlimit="10" stroke-linejoin="miter" fill="none" stroke="#ff0000" d=""/>
<use data-text="x" xlink:href="#font_3_6" transform="matrix(9.963197,0,0,-9.9626,268.42518,224.42)"/>
<use data-text="y" xlink:href="#font_3_7" transform="matrix(9.963197,0,0,-9.9626,102.319217,242.485)"/>
<use data-text="z" xlink:href="#font_3_8" transform="matrix(0,-9.9626,-9.963197,-0,5.5054247,133.70001)"/>
</svg>
