<svg xmlns="http://www.w3.org/2000/svg" xmlns:xlink="http://www.w3.org/1999/xlink" xmlns:inkscape="http://www.inkscape.org/namespaces/inkscape" version="1.1" width="319" height="241" viewBox="0 0 319 241">
<defs>
<path id="font_1_6" d="M.46199037 .33935548C.46699525 .36135865 .47698976 .3983612 .47698976 .40437318 .47698976 .42237855 .46299745 .43138124 .44799806 .43138124 .43598939 .43138124 .41799928 .42337037 .41099549 .4033661 .4079895 .3963623 .36099244 .205307 .35398866 .17930603 .34700013 .14929199 .34498597 .13128662 .34498597 .11328125 .34498597 .10227966 .34498597 .10028076 .34599305 .09527588 .32299806 .042266847 .29299928 .011245728 .2539978 .011245728 .17399597 .011245728 .17399597 .08526611 .17399597 .10227966 .17399597 .1342926 .1789856 .17329407 .22599793 .29634095 .23699951 .32633973 .24299622 .3403473 .24299622 .36035157 .24299622 .405365 .20999146 .4423828 .16099549 .4423828 .06599426 .4423828 .0289917 .29733277 .0289917 .28833009 .0289917 .27833558 .038986207 .27833558 .040985109 .27833558 .050994874 .27833558 .051986696 .28033448 .056991579 .29634095 .083999637 .38935853 .12298584 .42037965 .1579895 .42037965 .16699219 .42037965 .18299866 .41937257 .18299866 .38735963 .18299866 .36235047 .17199707 .3343506 .16499329 .31733705 .12098694 .1993103 .10899353 .1532898 .10899353 .11528015 .10899353 .024261475 .17599488-.0107421879 .25099183-.0107421879 .2679901-.0107421879 .31498719-.0107421879 .35499574 .059265138 .3809967-.0047454836 .44999696-.0107421879 .47999574-.0107421879 .5549927-.0107421879 .598999 .052261354 .625 .11227417 .6589966 .19030762 .69099429 .32434083 .69099429 .37236024 .69099429 .42736817 .6639862 .4423828 .6469879 .4423828 .621994 .4423828 .5970001 .41636659 .5970001 .3943634 .5970001 .38136292 .6029968 .3753662 .6119995 .36735536 .6230011 .35635377 .647995 .33035279 .647995 .28233338 .647995 .24832154 .61898806 .15029907 .59298709 .09927368 .5669861 .04626465 .5319977 .011245728 .48298646 .011245728 .43598939 .011245728 .40899659 .041259767 .40899659 .09828186 .40899659 .12628174 .41600038 .1572876 .41999818 .17129517L.46199037 .33935548Z"/>
<path id="font_2_4" d="M.68699648 .32714845C.70199587 .32714845 .72099307 .32714845 .72099307 .34713746 .72099307 .36714173 .70199587 .36714173 .6879883 .36714173H.08898926C.07499695 .36714173 .055999757 .36714173 .055999757 .34713746 .055999757 .32714845 .07499695 .32714845 .08999634 .32714845H.68699648M.6879883 .13284302C.70199587 .13284302 .72099307 .13284302 .72099307 .15284729 .72099307 .17285156 .70199587 .17285156 .68699648 .17285156H.08999634C.07499695 .17285156 .055999757 .17285156 .055999757 .15284729 .055999757 .13284302 .07499695 .13284302 .08898926 .13284302H.6879883Z"/>
<path id="font_1_4" d="M.36698915 .3996582H.45298768C.47299195 .3996582 .48298646 .3996582 .48298646 .41966249 .48298646 .43066407 .47299195 .43066407 .45599366 .43066407H.37298585L.3939972 .5449524C.397995 .5660095 .4119873 .6370239 .41799928 .6490326 .4269867 .66804507 .44400025 .68307498 .46499635 .68307498 .46899415 .68307498 .49499513 .68307498 .5139923 .66503909 .46998597 .661026 .45999146 .6260376 .45999146 .6110382 .45999146 .58802798 .47799684 .57603457 .49699403 .57603457 .522995 .57603457 .5519867 .5980377 .5519867 .6360321 .5519867 .6820679 .5059967 .7050781 .46499635 .7050781 .43099977 .7050781 .36799623 .68707278 .33799745 .58802798 .33198548 .56700137 .32899476 .5569763 .30499269 .43066407H.23599243C.21699524 .43066407 .20599365 .43066407 .20599365 .4116516 .20599365 .3996582 .21499634 .3996582 .23399353 .3996582H.2999878L.22499085 .0048828127C.20698548-.09207153 .18998719-.18309021 .13798523-.18309021 .13398743-.18309021 .10899353-.18309021 .08999634-.16506958 .13598633-.1620636 .14498902-.12606812 .14498902-.111068729 .14498902-.08807373 .1269989-.07606506 .10798645-.07606506 .08198547-.07606506 .052993776-.09806824 .052993776-.13606262 .052993776-.18109131 .09700012-.20507813 .13798523-.20507813 .19299317-.20507813 .23298645-.14607239 .25099183-.108062747 .2829895-.04508972 .30599977 .07583618 .30699159 .082839969L.36698915 .3996582Z"/>
<path id="font_2_1" d="M.33099366-.2400055C.33099366-.23701477 .33099366-.23500061 .31399537-.21800232 .18899536-.0920105 .15699768 .09700012 .15699768 .25 .15699768 .42399598 .19499207 .59799197 .31799317 .72299197 .33099366 .73498538 .33099366 .7369995 .33099366 .73999026 .33099366 .746994 .32699586 .75 .32099916 .75 .31098939 .75 .22099304 .6819916 .1619873 .5549927 .11099243 .44499208 .09899902 .33399964 .09899902 .25 .09899902 .17199707 .10998535 .050994874 .16499329-.06201172 .22499085-.18501282 .31098939-.25 .32099916-.25 .32699586-.25 .33099366-.24700928 .33099366-.2400055Z"/>
<path id="font_1_7" d="M.33399964 .30233766C.33999635 .32835389 .36299134 .42037965 .43299867 .42037965 .43798829 .42037965 .46199037 .42037965 .48298646 .40734864 .45498658 .402359 .43499757 .37734986 .43499757 .35334779 .43499757 .33735658 .44599916 .31835938 .47299195 .31835938 .49499513 .31835938 .5269928 .3363495 .5269928 .37635804 .5269928 .42837525 .46798707 .4423828 .43399049 .4423828 .37599183 .4423828 .34098817 .38935853 .32899476 .36634828 .3039856 .43237306 .25 .4423828 .22099304 .4423828 .116989139 .4423828 .05999756 .3133545 .05999756 .28834535 .05999756 .27833558 .069992069 .27833558 .07199097 .27833558 .07998657 .27833558 .08299255 .28033448 .084991458 .28933717 .11898804 .39535523 .18499756 .42037965 .21899414 .42037965 .23799134 .42037965 .272995 .4113617 .272995 .35334779 .272995 .32235719 .2559967 .25532533 .21899414 .11528015 .20298767 .053268434 .16799927 .011245728 .12399292 .011245728 .117996219 .011245728 .09498596 .011245728 .07398987 .024276734 .09899902 .029266358 .12098694 .05027771 .12098694 .07827759 .12098694 .105270389 .09899902 .11328125 .083999637 .11328125 .053985597 .11328125 .0289917 .08728027 .0289917 .055267335 .0289917 .009246826 .07899475-.0107421879 .12298584-.0107421879 .18899536-.0107421879 .22499085 .059280397 .22799683 .0652771 .23999024 .028274537 .27598573-.0107421879 .33599855-.0107421879 .43899537-.0107421879 .49598695 .118270877 .49598695 .14328003 .49598695 .1532898 .4869995 .1532898 .48399354 .1532898 .47499085 .1532898 .47299195 .14929199 .47099305 .14228821 .43798829 .03527832 .36999513 .011245728 .33799745 .011245728 .29899598 .011245728 .2829895 .043273927 .2829895 .07727051 .2829895 .09927368 .2889862 .121276859 .2999878 .16529846L.33399964 .30233766Z"/>
<path id="font_1_1" d="M.20298767 .0009918213C.20298767 .066986087 .17799378 .10598755 .13899231 .10598755 .10598755 .10598755 .085998538 .08099365 .085998538 .052993776 .085998538 .025985718 .10598755 0 .13899231 0 .15098572 0 .1639862 .0039978029 .17399597 .0129852299 .1769867 .01499939 .17799378 .015991211 .1789856 .015991211 .17999268 .015991211 .18099976 .01499939 .18099976 .0009918213 .18099976-.07316589 .1459961-.13328552 .11299133-.16635132 .101989749-.17736817 .101989749-.17936707 .101989749-.18237305 .101989749-.18936157 .10699463-.19335938 .11199951-.19335938 .12298584-.19335938 .20298767-.116256717 .20298767 .0009918213Z"/>
<path id="font_1_8" d="M.48599244 .38136292C.48999024 .39537049 .48999024 .39736939 .48999024 .40437318 .48999024 .42237855 .47599793 .43138124 .46099855 .43138124 .45098878 .43138124 .43499757 .42536927 .42599488 .41036988 .42399598 .405365 .41600038 .37435914 .4119873 .35635377 .40499879 .33035279 .397995 .30334474 .3919983 .27633668L.34700013 .09628296C.34298707 .08126831 .2999878 .011245728 .23399353 .011245728 .18299866 .011245728 .17199707 .055267335 .17199707 .0922699 .17199707 .1382904 .18899536 .20030213 .22299195 .28833009 .23899842 .3293457 .24299622 .3403473 .24299622 .36035157 .24299622 .405365 .21099854 .4423828 .16099549 .4423828 .06599426 .4423828 .0289917 .29733277 .0289917 .28833009 .0289917 .27833558 .038986207 .27833558 .040985109 .27833558 .050994874 .27833558 .051986696 .28033448 .056991579 .29634095 .083999637 .3903656 .12399292 .42037965 .1579895 .42037965 .1659851 .42037965 .18299866 .42037965 .18299866 .3883667 .18299866 .36335755 .17298889 .3373413 .1659851 .31834413 .12599182 .21231079 .10798645 .1552887 .10798645 .10827637 .10798645 .019256592 .17098999-.0107421879 .22999573-.0107421879 .2689972-.0107421879 .30299378 .0062561037 .33099366 .03425598 .31799317-.017745972 .30599977-.06674194 .2659912-.11973572 .23999024-.15385437 .20199585-.18309021 .1559906-.18309021 .14199829-.18309021 .09700012-.18005371 .07998657-.14074707 .09599304-.14074707 .10899353-.14074707 .12298584-.1287384 .1329956-.11973572 .14299011-.10673523 .14299011-.08773804 .14299011-.056747438 .115997318-.052734376 .10598755-.052734376 .08299255-.052734376 .049987794-.068740848 .049987794-.11773682 .049987794-.16796875 .09399414-.20507813 .1559906-.20507813 .25898744-.20507813 .3619995-.11373901 .3899994-.00074768069L.48599244 .38136292Z"/>
<path id="font_1_9" d="M.1329956 .08345032C.18699646 .14138794 .21598816 .16636658 .2519989 .19732666 .2519989 .19833374 .31399537 .25128175 .34999085 .2872467 .44499208 .3803711 .46699525 .42837525 .46699525 .43237306 .46699525 .4423828 .45799256 .4423828 .45599366 .4423828 .44898988 .4423828 .44599916 .44036866 .44099427 .43138124 .41099549 .38337709 .3899994 .3671875 .3659973 .3671875 .34199525 .3671875 .32998658 .38237 .31498719 .3993683 .29599 .42237855 .2789917 .4423828 .24598694 .4423828 .17098999 .4423828 .125 .34918214 .125 .3282013 .125 .3231964 .12799073 .31721498 .13699341 .31721498 .1459961 .31721498 .147995 .3222046 .1499939 .3282013 .16899109 .37434388 .22698975 .37538148 .23498535 .37538148 .2559967 .37538148 .2749939 .36820985 .2979889 .36018373 .33799745 .34518434 .34899903 .34518434 .375 .34518434 .33898927 .30223084 .25498963 .2303009 .23599243 .21430969L.1459961 .13040161C.07798767 .06341553 .042999269 .0062561037 .042999269-.00074768069 .042999269-.0107421879 .052993776-.0107421879 .054992677-.0107421879 .06298828-.0107421879 .06498718-.008743286 .070999149 .002243042 .09399414 .037246705 .12399292 .064453128 .1559906 .064453128 .1789856 .064453128 .18899536 .055252077 .21398926 .026245118 .23098755 .0052490236 .24899292-.0107421879 .27799989-.0107421879 .3769989-.0107421879 .43499757 .1164093 .43499757 .14338684 .43499757 .14837647 .43099977 .15338135 .4229889 .15338135 .4139862 .15338135 .4119873 .14738465 .40899659 .14039612 .38598634 .07543945 .32199098 .056243898 .2889862 .056243898 .2689972 .056243898 .25099183 .06239319 .22999573 .06944275 .19599915 .08244324 .18099976 .08644104 .1599884 .08644104 .1579895 .08644104 .14199829 .08644104 .1329956 .08345032Z"/>
<path id="font_2_2" d="M.2889862 .25C.2889862 .32798768 .27799989 .44898988 .22299195 .56199648 .16299439 .68499758 .07699585 .75 .066986087 .75 .06098938 .75 .056991579 .74598696 .056991579 .73999026 .056991579 .7369995 .056991579 .73498538 .07598877 .71699526 .17399597 .6179962 .23098755 .45899964 .23098755 .25 .23098755 .07899475 .19400025-.09700012 .069992069-.2230072 .056991579-.23500061 .056991579-.23701477 .056991579-.2400055 .056991579-.2460022 .06098938-.25 .066986087-.25 .07699585-.25 .16699219-.18200684 .22599793-.055007936 .2769928 .054992677 .2889862 .16600037 .2889862 .25Z"/>
<path id="font_1_5" d="M.20599365 .3996582H.2999878C.31999208 .3996582 .32998658 .3996582 .32998658 .41966249 .32998658 .43066407 .31999208 .43066407 .3019867 .43066407H.21398926C.25 .5724945 .25498963 .59246829 .25498963 .59846499 .25498963 .61546328 .24299622 .62545779 .22599793 .62545779 .22299195 .62545779 .19499207 .62446597 .18598938 .58947756L.14698792 .43066407H.052993776C.032989503 .43066407 .022994996 .43066407 .022994996 .4116516 .022994996 .3996582 .0309906 .3996582 .050994874 .3996582H.13899231C.066986087 .11608887 .06298828 .099121097 .06298828 .08114624 .06298828 .02722168 .100997928-.0107421879 .15499878-.0107421879 .25698854-.0107421879 .31399537 .13505554 .31399537 .14305115 .31399537 .1530304 .30599977 .1530304 .3019867 .1530304 .29299928 .1530304 .2919922 .15003968 .2869873 .13905335 .24398804 .035217287 .19099427 .011245728 .15699768 .011245728 .13598633 .011245728 .12599182 .024230957 .12599182 .057174684 .12599182 .08114624 .12799073 .088134769 .13198853 .10510254L.20599365 .3996582Z"/>
<path id="font_1_2" d="M.46299745 .33891297C.45298768 .40098573 .4119873 .45703126 .33399964 .45703126 .272995 .45703126 .20799256 .44102479 .12998963 .36294557 .04699707 .2798462 .039993287 .18673706 .039993287 .15570069 .039993287 .09362793 .083999637-.022460938 .22399903-.022460938 .46199037-.022460938 .56599429 .31388856 .56599429 .45703126 .56599429 .61628726 .47299195 .7158203 .34999085 .7158203 .20498657 .7158203 .15899658 .58631899 .15899658 .5583191 .15899658 .5443268 .16699219 .5233154 .19699097 .5233154 .22999573 .5233154 .25099183 .5533142 .25099183 .57632449 .25099183 .6113281 .21998596 .6113281 .20399475 .6113281 .24798584 .684845 .31900025 .69081118 .34799195 .69081118 .42099 .69081118 .4909973 .6391449 .4909973 .51026919 .4909973 .4710846 .4850006 .42001344 .46398927 .33891297H.46299745M.22698975 .0055389406C.116989139 .0055389406 .116989139 .10864258 .116989139 .1186676 .116989139 .14569092 .14199829 .28585816 .18299866 .34591676 .22299195 .40298463 .27198792 .43502809 .33399964 .43502809 .44299317 .43502809 .44499208 .32289125 .44499208 .3028717 .44499208 .23078919 .3809967 .0055389406 .22698975 .0055389406Z"/>
<path id="font_1_3" d="M.5159912 .68333438C.5159912 .6843262 .5159912 .69433596 .5029907 .69433596 .48799134 .69433596 .3929901 .68533328 .37599183 .68333438 .36799623 .6823273 .3619995 .6773224 .3619995 .6643219 .3619995 .6523285 .37098695 .6523285 .38598634 .6523285 .43399049 .6523285 .43598939 .6453247 .43598939 .6353302L.43299867 .6153412 .37298585 .37835694C.35499574 .41537477 .32598878 .4423828 .2809906 .4423828 .1639862 .4423828 .039993287 .29533387 .039993287 .14929199 .039993287 .055267335 .09498596-.0107421879 .17298889-.0107421879 .19299317-.0107421879 .24299622-.0067443849 .30299378 .06427002 .31098939 .022247315 .34599305-.0107421879 .3939972-.0107421879 .42900086-.0107421879 .45199586 .012252808 .46798707 .044265748 .4850006 .08027649 .49798585 .14129639 .49798585 .14329529 .49798585 .1532898 .4889984 .1532898 .48599244 .1532898 .47599793 .1532898 .47499085 .14929199 .47200013 .13528443 .45498658 .07026672 .43699647 .011245728 .3959961 .011245728 .36898805 .011245728 .3659973 .037261964 .3659973 .057266237 .3659973 .08126831 .36799623 .088272098 .37199403 .105285648L.5159912 .68333438M.30799867 .119277957C.30299378 .10127258 .30299378 .09927368 .28799439 .08227539 .24398804 .027252198 .20298767 .011245728 .1749878 .011245728 .125 .011245728 .11099243 .06626892 .11099243 .105285648 .11099243 .1552887 .14299011 .27833558 .1659851 .32434083 .19699097 .38336183 .24198914 .42037965 .28199769 .42037965 .34700013 .42037965 .36099244 .3383484 .36099244 .33235169 .36099244 .32633973 .35899354 .32034303 .35798646 .31533814L.30799867 .119277957Z"/>
<path id="font_3_46" d="M.70700076 .33580018C.70700076 .52568057 .57199099 .6826172 .40098573 .6826172H.034988405V.6516113H.05899048C.13598633 .6516113 .13798523 .64060977 .13798523 .6046295V.07795715C.13798523 .041992189 .13598633 .0309906 .05899048 .0309906H.034988405V0H.40098573C.56900027 0 .70700076 .1479187 .70700076 .33580018M.6069946 .33580018C.6069946 .22486878 .58799746 .16490174 .5519867 .11593628 .5319977 .08895874 .47499085 .0309906 .37399293 .0309906H.272995C.22599793 .0309906 .22399903 .037994386 .22399903 .07096863V.6116333C.22399903 .64460757 .22599793 .6516113 .272995 .6516113H.37298585C.43499757 .6516113 .5039978 .6296234 .5549927 .55867007 .59799197 .49969483 .6069946 .41375733 .6069946 .33580018Z"/>
<path id="font_3_50" d="M.4149933 .11933899C.4149933 .12934876 .40699769 .13134766 .4019928 .13134766 .3929901 .13134766 .3909912 .12535095 .3889923 .11734009 .35398866 .014251709 .2639923 .014251709 .2539978 .014251709 .20399475 .014251709 .1639862 .044281007 .14099121 .08131409 .11099243 .12934876 .11099243 .19540406 .11099243 .23144531H.3899994C.4119873 .23144531 .4149933 .23144531 .4149933 .2524414 .4149933 .35131837 .36099244 .4482422 .23599243 .4482422 .11999512 .4482422 .027999878 .34532167 .027999878 .22042847 .027999878 .08631897 .1329956-.0107421879 .24798584-.0107421879 .36999513-.0107421879 .4149933 .10032654 .4149933 .11933899M.34899903 .2524414H.11199951C.117996219 .40126039 .20199585 .426239 .23599243 .426239 .33898927 .426239 .34899903 .2913971 .34899903 .2524414Z"/>
<path id="font_3_84" d="M.5209961 .21636963C.5209961 .34336854 .42399598 .4423828 .31199647 .4423828 .23399353 .4423828 .19198609 .39837647 .17199707 .3763733V.4423828L.027999878 .43066407V.3996582C.09899902 .3996582 .10598755 .3936615 .10598755 .34973146V-.117996219C.10598755-.16308594 .09498596-.16308594 .027999878-.16308594V-.1940918L.13999939-.19110108 .25299073-.1940918V-.16308594C.18598938-.16308594 .1749878-.16308594 .1749878-.117996219V.050186159 .059173585C.17999268 .04319763 .22200012-.0107421879 .2979889-.0107421879 .4169922-.0107421879 .5209961 .087127689 .5209961 .21594239V.21636963M.43798829 .21594239C.43798829 .09512329 .36799623 .011245728 .2939911 .011245728 .2539978 .011245728 .21598816 .031219483 .18899536 .07215881 .1749878 .09312439 .1749878 .09411621 .1749878 .114089969V.33674623C.20399475 .38838197 .25299073 .41737367 .3039856 .41737367 .3769989 .41737367 .43798829 .32937623 .43798829 .21636963V.21594239Z"/>
<path id="font_3_77" d="M.5349884 0V.0309906C.48298646 .0309906 .45799256 .0309906 .45700074 .061019899V.25221253C.45700074 .3383026 .45700074 .36932374 .42599488 .405365 .4119873 .42237855 .3789978 .4423828 .32099916 .4423828 .24798584 .4423828 .20098877 .39935304 .17298889 .33729554V.4423828L.03199768 .43066407V.3996582C.101989749 .3996582 .10998535 .39266969 .10998535 .34370423V.07595825C.10998535 .0309906 .09899902 .0309906 .03199768 .0309906V0L.14498902 .0029907227 .25698854 0V.0309906C.18998719 .0309906 .1789856 .0309906 .1789856 .07595825V.25978089C.1789856 .36431886 .25 .42037965 .31399537 .42037965 .3769989 .42037965 .3880005 .36631776 .3880005 .30926515V.076034549C.3880005 .0309906 .3769989 .0309906 .30999757 .0309906V0L.4229889 .0029907227 .5349884 0Z"/>
<path id="font_3_47" d="M.5269928 0V.0309906C.45700074 .0309906 .44898988 .038009645 .44898988 .0871582V.69433596L.30499269 .6826172V.6516113C.375 .6516113 .3829956 .64463809 .3829956 .59580996V.38035584C.35398866 .41636659 .31098939 .4423828 .25698854 .4423828 .13899231 .4423828 .033996583 .3443451 .033996583 .21531677 .033996583 .088272098 .13198853-.0107421879 .24598694-.0107421879 .30999757-.0107421879 .35499574 .023254395 .37998963 .055267335V-.0107421879L.5269928 0M.37998963 .117996219C.37998963 .099990848 .37998963 .09799194 .36898805 .08099365 .33898927 .033218385 .2939911 .011245728 .25099183 .011245728 .20599365 .011245728 .16999817 .037216188 .1459961 .075164798 .11999512 .1161499 .116989139 .17320252 .116989139 .21421814 .116989139 .25125123 .11898804 .31129457 .147995 .35632325 .16899109 .38734437 .20698548 .42037965 .26098634 .42037965 .29599 .42037965 .33799745 .405365 .36898805 .3603363 .37998963 .34332276 .37998963 .34132386 .37998963 .32330323V.117996219Z"/>
<path id="font_3_105" d="M.33198548 .12385559V.18066406H.30699159V.12585449C.30699159 .052108766 .2769928 .014251709 .23999024 .014251709 .17298889 .014251709 .17298889 .10491943 .17298889 .12187195V.3996582H.31599427V.43066407H.17298889V.6142578H.147995C.14698792 .5324249 .116989139 .42565919 .018997193 .42166139V.3996582H.10398865V.12408447C.10398865 .0012512207 .19699097-.0107421879 .23298645-.0107421879 .3039856-.0107421879 .33198548 .060180665 .33198548 .12408447V.12385559Z"/>
<path id="font_3_112" d="M.5079956 .3996582V.43066407C.4850006 .4286499 .45599366 .42765809 .43299867 .42765809L.34599305 .43066407V.3996582C.3829956 .39865113 .3939972 .37568666 .3939972 .35671998 .3939972 .34773255 .3919983 .34373475 .3880005 .3327484L.28599549 .078125 .17399597 .35671998C.16799927 .3697052 .16799927 .37368775 .16799927 .37368775 .16799927 .3996582 .20698548 .3996582 .22499085 .3996582V.43066407L.115997318 .42765809C.08898926 .42765809 .04899597 .4286499 .018997193 .43066407V.3996582C.08198547 .3996582 .085998538 .3936615 .09899902 .36271668L.24299622 .008224487C.24899292-.0057525637 .25099183-.0107421879 .2639923-.0107421879 .2769928-.0107421879 .2809906-.0017700195 .2849884 .008224487L.41600038 .3327484C.4249878 .3557129 .44198609 .39865113 .5079956 .3996582Z"/>
<path id="font_3_28" d="M.48298646 .08912659V.14511109H.45799256V.08912659C.45799256 .03112793 .43299867 .025131226 .42199708 .025131226 .3889923 .025131226 .3849945 .070129398 .3849945 .07511902V.27508546C.3849945 .31707765 .3849945 .3560791 .34899903 .39312745 .30999757 .43223573 .2599945 .4482422 .21199036 .4482422 .12998963 .4482422 .06098938 .40115357 .06098938 .335083 .06098938 .30508424 .08099365 .28808595 .10699463 .28808595 .1349945 .28808595 .15299988 .30807496 .15299988 .33407594 .15299988 .3460846 .147995 .37908937 .101989749 .38008119 .1289978 .41519166 .17799378 .426239 .20999146 .426239 .25898744 .426239 .31599427 .38710023 .31599427 .29808045V.26107789C.2649994 .25808717 .19499207 .25508119 .13198853 .22509766 .056991579 .19110108 .03199768 .13911438 .03199768 .09512329 .03199768 .014251709 .1289978-.0107421879 .19198609-.0107421879 .2579956-.0107421879 .3039856 .029251099 .32299806 .07624817 .32699586 .036132814 .35398866-.005859375 .40098573-.005859375 .42199708-.005859375 .48298646 .008132935 .48298646 .08912659M.31599427 .14013672C.31599427 .04525757 .24398804 .011245728 .19898987 .011245728 .1499939 .011245728 .10899353 .04624939 .10899353 .09625244 .10899353 .15124512 .15098572 .23425293 .31599427 .24024964V.14013672Z"/>
<path id="font_3_96" d="M.3639984 .38137818C.3639984 .41337586 .33299256 .4423828 .2899933 .4423828 .21699524 .4423828 .18099976 .37538148 .16699219 .3323822V.4423828L.027999878 .43066407V.3996582C.09799194 .3996582 .10598755 .39266969 .10598755 .34370423V.07595825C.10598755 .0309906 .09498596 .0309906 .027999878 .0309906V0L.14199829 .0029907227C.18199158 .0029907227 .22898865 .0029907227 .2689972 0V.0309906H.24798584C.17399597 .0309906 .17199707 .04197693 .17199707 .07795715V.23181153C.17199707 .33137513 .21398926 .42037965 .2899933 .42037965 .29699708 .42037965 .29899598 .42037965 .30099488 .41937257 .2979889 .41838075 .27799989 .40637208 .27799989 .3803711 .27799989 .35237123 .29899598 .33737184 .32099916 .33737184 .33898927 .33737184 .3639984 .3493805 .3639984 .38137818Z"/>
<path id="font_3_66" d="M.24699402 0V.0309906C.18099976 .0309906 .1769867 .035995485 .1769867 .075042728V.4423828L.036987306 .43066407V.3996582C.101989749 .3996582 .11099243 .3936615 .11099243 .3447113V.07595825C.11099243 .0309906 .099990848 .0309906 .032989503 .0309906V0L.14299011 .0029907227C.17799378 .0029907227 .21299744 .0009918213 .24699402 0M.19198609 .603775C.19198609 .6307678 .16899109 .6567688 .13899231 .6567688 .10499573 .6567688 .084991458 .6287689 .084991458 .603775 .084991458 .57676699 .10798645 .55078127 .13798523 .55078127 .17199707 .55078127 .19198609 .5787811 .19198609 .603775Z"/>
<path id="font_3_35" d="M.5209961 .2163086C.5209961 .34335328 .4229889 .4423828 .30899049 .4423828 .23098755 .4423828 .18798828 .39537049 .17199707 .3773651V.69433596L.027999878 .68333438V.6523285C.09799194 .6523285 .10598755 .6453247 .10598755 .596344V.00024414063H.1309967L.16699219 .06227112C.18199158 .039260866 .22399903-.0107421879 .2979889-.0107421879 .4169922-.0107421879 .5209961 .08728027 .5209961 .2163086M.43798829 .21731568C.43798829 .18029785 .43598939 .120285037 .40699769 .07527161 .38598634 .044265748 .34799195 .011245728 .2939911 .011245728 .24899292 .011260986 .21299744 .03526306 .18899536 .072265628 .1749878 .09326172 .1749878 .09625244 .1749878 .11425781V.32034303C.1749878 .3393402 .1749878 .3403473 .18598938 .35635377 .22499085 .41236878 .27999879 .42037965 .3039856 .42037965 .34899903 .42037965 .3849945 .3943634 .40899659 .35635377 .43499757 .31533814 .43798829 .25831605 .43798829 .21730042V.21731568Z"/>
<path id="font_3_72" d="M.25498963 0V.0309906C.18798828 .0309906 .1769867 .0309906 .1769867 .07601929V.69433596L.032989503 .6826172V.6516113C.102996829 .6516113 .11099243 .64460757 .11099243 .5956421V.07595825C.11099243 .0309906 .099990848 .0309906 .032989503 .0309906V0L.14399719 .0029907227 .25498963 0Z"/>
<path id="font_3_65" d="M.33299256 0V.0309906H.30699159C.22799683 .0309906 .22499085 .041992189 .22499085 .07795715V.6046295C.22499085 .64060977 .22799683 .6516113 .30699159 .6516113H.33299256V.6826172C.2979889 .6796112 .21899414 .6796112 .18099976 .6796112 .14199829 .6796112 .06298828 .6796112 .027999878 .6826172V.6516113H.053985597C.1329956 .6516113 .13598633 .64060977 .13598633 .6046295V.07795715C.13598633 .041992189 .1329956 .0309906 .053985597 .0309906H.027999878V0C.06298828 .0029907227 .14199829 .0029907227 .17999268 .0029907227 .21899414 .0029907227 .2979889 .0029907227 .33299256 0Z"/>
<path id="font_3_75" d="M.8129883 0V.0309906C.7609863 .0309906 .73599246 .0309906 .7350006 .061019899V.25221253C.7350006 .3383026 .7350006 .36932374 .70399478 .405365 .6899872 .42237855 .6569977 .4423828 .598999 .4423828 .5149994 .4423828 .47099305 .38233949 .45399476 .34429933 .43998719 .43138124 .3659973 .4423828 .32099916 .4423828 .24798584 .4423828 .20098877 .39935304 .17298889 .33729554V.4423828L.03199768 .43066407V.3996582C.101989749 .3996582 .10998535 .39266969 .10998535 .34370423V.07595825C.10998535 .0309906 .09899902 .0309906 .03199768 .0309906V0L.14498902 .0029907227 .25698854 0V.0309906C.18998719 .0309906 .1789856 .0309906 .1789856 .07595825V.25978089C.1789856 .36431886 .25 .42037965 .31399537 .42037965 .3769989 .42037965 .3880005 .36631776 .3880005 .30926515V.076034549C.3880005 .0309906 .3769989 .0309906 .30999757 .0309906V0L.4229889 .0029907227 .5349884 0V.0309906C.46798707 .0309906 .45700074 .0309906 .45700074 .076034549V.2602234C.45700074 .36431886 .5279999 .42037965 .59199526 .42037965 .6549988 .42037965 .66600039 .36631776 .66600039 .30926515V.076034549C.66600039 .0309906 .6549988 .0309906 .58799746 .0309906V0L.70098879 .0029907227 .8129883 0Z"/>
<path id="font_3_98" d="M.3600006 .12823487C.3600006 .18122864 .32998658 .21122742 .31799317 .22323609 .2849884 .25523377 .24598694 .26322938 .20399475 .27124024 .147995 .28224183 .08099365 .29522706 .08099365 .35324098 .08099365 .38822938 .10699463 .42922975 .19299317 .42922975 .30299378 .42922975 .30799867 .3392334 .30999757 .30822755 .31098939 .2992401 .32199098 .2992401 .32199098 .2992401 .33499146 .2992401 .33499146 .30422975 .33499146 .32322694V.4242401C.33499146 .4412384 .33499146 .4482422 .32398988 .4482422 .31900025 .4482422 .31698609 .4482422 .3039856 .43623353 .30099488 .43223573 .29100038 .42323304 .2869873 .42022706 .24899292 .4482422 .20799256 .4482422 .19299317 .4482422 .070999149 .4482422 .032989503 .38124085 .032989503 .3252411 .032989503 .29023744 .04899597 .26223756 .07598877 .24023438 .10798645 .2142334 .13598633 .2082367 .20799256 .19422913 .22999573 .19021607 .31199647 .17422486 .31199647 .10221863 .31199647 .051223756 .2769928 .011245728 .19898987 .011245728 .114990238 .011245728 .07899475 .068222049 .05999756 .1532135 .056991579 .16621399 .055999757 .17021179 .04598999 .17021179 .032989503 .17021179 .032989503 .16322327 .032989503 .1452179V.013214111C.032989503-.003753662 .032989503-.0107421879 .04399109-.0107421879 .04899597-.0107421879 .049987794-.009750366 .068984989 .009246826 .070999149 .011245728 .070999149 .013214111 .08898926 .032226564 .1329956-.009750366 .17799378-.0107421879 .19898987-.0107421879 .31399537-.0107421879 .3600006 .05621338 .3600006 .1282196V.12823487Z"/>
<path id="font_2_3" d="M.40899659 .23046875H.6879883C.70199587 .23046875 .72099307 .23046875 .72099307 .25045777 .72099307 .27046205 .70199587 .27046205 .6879883 .27046205H.40899659V.5500183C.40899659 .56399539 .40899659 .5830078 .3889923 .5830078 .36898805 .5830078 .36898805 .56399539 .36898805 .5500183V.27046205H.08898926C.07499695 .27046205 .055999757 .27046205 .055999757 .25045777 .055999757 .23046875 .07499695 .23046875 .08898926 .23046875H.36898805V-.05000305C.36898805-.06401062 .36898805-.08300781 .3889923-.08300781 .40899659-.08300781 .40899659-.06401062 .40899659-.05000305V.23046875Z"/>
</defs>
<path transform="matrix(1,0,0,-1.00003,86.966,103.280719)" stroke-width=".3985" stroke-linecap="butt" stroke-miterlimit="10" stroke-linejoin="miter" fill="none" stroke="#b68235" d="M-4.25183 77.95372-68.03217 22.67752"/>
<path transform="matrix(1,0,0,-1.00003,86.966,103.280719)" stroke-width=".3985" stroke-linecap="butt" stroke-miterlimit="10" stroke-linejoin="miter" fill="none" stroke="#b68235" d="M0 76.53629V24.09494"/>
<path transform="matrix(1,0,0,-1.00003,86.966,103.280719)" stroke-width=".3985" stroke-linecap="butt" stroke-miterlimit="10" stroke-linejoin="miter" fill="none" stroke="#b68235" d="M4.25183 77.95372 68.03217 22.67752"/>
<path transform="matrix(1,0,0,-1.00003,86.966,103.280719)" stroke-width=".3985" stroke-linecap="butt" stroke-miterlimit="10" stroke-linejoin="miter" fill="none" stroke="#b68235" d="M-65.19774 8.50412-4.25183-65.19774"/>
<path transform="matrix(1,0,0,-1.00003,86.966,103.280719)" stroke-width=".3985" stroke-linecap="butt" stroke-miterlimit="10" stroke-linejoin="miter" fill="none" stroke="#b68235" d="M0 8.50412V-65.19774"/>
<path transform="matrix(1,0,0,-1.00003,86.966,103.280719)" stroke-width=".3985" stroke-linecap="butt" stroke-miterlimit="10" stroke-linejoin="miter" fill="none" stroke="#b68235" d="M65.19774 8.50412 4.25183-65.19774"/>
<path transform="matrix(1,0,0,-1.00003,86.966,103.280719)" d="M2.59032 85.04042C2.59032 86.47104 1.4306 87.63075 0 87.63075-1.4306 87.63075-2.59032 86.47104-2.59032 85.04042-2.59032 83.6098-1.4306 82.45009 0 82.45009 1.4306 82.45009 2.59032 83.6098 2.59032 85.04042ZM0 85.04042" fill="#b68235"/>
<path transform="matrix(1,0,0,-1.00003,86.966,103.280719)" d="M-68.27669 15.59082C-68.27669 17.02144-69.4364 18.18115-70.867 18.18115-72.29762 18.18115-73.45734 17.02144-73.45734 15.59082-73.45734 14.1602-72.29762 13.0005-70.867 13.0005-69.4364 13.0005-68.27669 14.1602-68.27669 15.59082ZM-70.867 15.59082" fill="#b68235"/>
<path transform="matrix(1,0,0,-1.00003,86.966,103.280719)" d="M2.59032 15.59082C2.59032 17.02144 1.4306 18.18115 0 18.18115-1.4306 18.18115-2.59032 17.02144-2.59032 15.59082-2.59032 14.1602-1.4306 13.0005 0 13.0005 1.4306 13.0005 2.59032 14.1602 2.59032 15.59082ZM0 15.59082" fill="#b68235"/>
<path transform="matrix(1,0,0,-1.00003,86.966,103.280719)" d="M73.45734 15.59082C73.45734 17.02144 72.29762 18.18115 70.867 18.18115 69.4364 18.18115 68.27669 17.02144 68.27669 15.59082 68.27669 14.1602 69.4364 13.0005 70.867 13.0005 72.29762 13.0005 73.45734 14.1602 73.45734 15.59082ZM70.867 15.59082" fill="#b68235"/>
<path transform="matrix(1,0,0,-1.00003,86.966,103.280719)" d="M2.59032-70.867C2.59032-69.4364 1.4306-68.27669 0-68.27669-1.4306-68.27669-2.59032-69.4364-2.59032-70.867-2.59032-72.29762-1.4306-73.45734 0-73.45734 1.4306-73.45734 2.59032-72.29762 2.59032-70.867ZM0-70.867" fill="#b68235"/>
<use data-text="w" xlink:href="#font_1_6" transform="matrix(9.9626,0,0,-9.962899,57.343004,9.3918919)" fill="#f3f2f2"/>
<use data-text="=" xlink:href="#font_2_4" transform="matrix(9.9626,0,0,-9.962899,67.511,9.3918919)" fill="#f3f2f2"/>
<use data-text="f" xlink:href="#font_1_4" transform="matrix(9.9626,0,0,-9.962899,78.02701,9.3918919)" fill="#f3f2f2"/>
<use data-text="(" xlink:href="#font_2_1" transform="matrix(9.9626,0,0,-9.962899,83.977008,9.3918919)" fill="#f3f2f2"/>
<use data-text="x" xlink:href="#font_1_7" transform="matrix(9.9626,0,0,-9.962899,87.851,9.3918919)" fill="#f3f2f2"/>
<use data-text="," xlink:href="#font_1_1" transform="matrix(9.9626,0,0,-9.962899,93.53964,9.3918919)" fill="#f3f2f2"/>
<use data-text="y" xlink:href="#font_1_8" transform="matrix(9.9626,0,0,-9.962899,97.95308,9.3918919)" fill="#f3f2f2"/>
<use data-text="," xlink:href="#font_1_1" transform="matrix(9.9626,0,0,-9.962899,103.193408,9.3918919)" fill="#f3f2f2"/>
<use data-text="z" xlink:href="#font_1_9" transform="matrix(9.9626,0,0,-9.962899,107.616809,9.3918919)" fill="#f3f2f2"/>
<use data-text=")" xlink:href="#font_2_2" transform="matrix(9.9626,0,0,-9.962899,112.714008,9.3918919)" fill="#f3f2f2"/>
<use data-text="x" xlink:href="#font_1_7" transform="matrix(9.9626,0,0,-9.962899,1.2160034,89.83431)" fill="#f3f2f2"/>
<use data-text="y" xlink:href="#font_1_8" transform="matrix(9.9626,0,0,-9.962899,96.15501,99.75161)" fill="#f3f2f2"/>
<use data-text="z" xlink:href="#font_1_9" transform="matrix(9.9626,0,0,-9.962899,167.022,89.83431)" fill="#f3f2f2"/>
<use data-text="t" xlink:href="#font_1_5" transform="matrix(9.9626,0,0,-9.962899,85.167,189.4673)" fill="#f3f2f2"/>
<use data-text="&#x2202;" xlink:href="#font_1_2" transform="matrix(9.9626,0,0,-9.962899,23.653,40.422826)" fill="#f3f2f2"/>
<use data-text="w" xlink:href="#font_1_6" transform="matrix(9.9626,0,0,-9.962899,29.481125,40.422826)" fill="#f3f2f2"/>
<path transform="matrix(1,0,0,-1.00003,-149.509,-43.124685)" stroke-width=".3985" stroke-linecap="butt" stroke-miterlimit="10" stroke-linejoin="miter" fill="none" stroke="#f3f2f2" d="M173.162-87.794H186.405"/>
<use data-text="&#x2202;" xlink:href="#font_1_2" transform="matrix(9.9626,0,0,-9.962899,24.505997,53.996229)" fill="#f3f2f2"/>
<use data-text="x" xlink:href="#font_1_7" transform="matrix(9.9626,0,0,-9.962899,30.334122,53.996229)" fill="#f3f2f2"/>
<use data-text="&#x2202;" xlink:href="#font_1_2" transform="matrix(9.9626,0,0,-9.962899,64.756008,50.79314)" fill="#f3f2f2"/>
<use data-text="w" xlink:href="#font_1_6" transform="matrix(9.9626,0,0,-9.962899,70.58413,50.79314)" fill="#f3f2f2"/>
<path transform="matrix(1,0,0,-1.00003,-108.406,-32.754369)" stroke-width=".3985" stroke-linecap="butt" stroke-miterlimit="10" stroke-linejoin="miter" fill="none" stroke="#f3f2f2" d="M173.162-87.794H186.405"/>
<use data-text="&#x2202;" xlink:href="#font_1_2" transform="matrix(9.9626,0,0,-9.962899,65.835,64.36655)" fill="#f3f2f2"/>
<use data-text="y" xlink:href="#font_1_8" transform="matrix(9.9626,0,0,-9.962899,71.663127,64.36655)" fill="#f3f2f2"/>
<use data-text="&#x2202;" xlink:href="#font_1_2" transform="matrix(9.9626,0,0,-9.962899,137.037,40.422826)" fill="#f3f2f2"/>
<use data-text="w" xlink:href="#font_1_6" transform="matrix(9.9626,0,0,-9.962899,142.86513,40.422826)" fill="#f3f2f2"/>
<path transform="matrix(1,0,0,-1.00003,-36.125,-43.124685)" stroke-width=".3985" stroke-linecap="butt" stroke-miterlimit="10" stroke-linejoin="miter" fill="none" stroke="#f3f2f2" d="M173.162-87.794H186.405"/>
<use data-text="&#x2202;" xlink:href="#font_1_2" transform="matrix(9.9626,0,0,-9.962899,138.201,53.996229)" fill="#f3f2f2"/>
<use data-text="z" xlink:href="#font_1_9" transform="matrix(9.9626,0,0,-9.962899,144.02913,53.996229)" fill="#f3f2f2"/>
<use data-text="d" xlink:href="#font_1_3" transform="matrix(9.9626,0,0,-9.962899,28.850998,131.13556)" fill="#f3f2f2"/>
<use data-text="x" xlink:href="#font_1_7" transform="matrix(9.9626,0,0,-9.962899,34.031557,131.13556)" fill="#f3f2f2"/>
<path transform="matrix(1,0,0,-1.00003,-144.311,47.588045)" stroke-width=".3985" stroke-linecap="butt" stroke-miterlimit="10" stroke-linejoin="miter" fill="none" stroke="#f3f2f2" d="M173.162-87.794H184.041"/>
<use data-text="d" xlink:href="#font_1_3" transform="matrix(9.9626,0,0,-9.962899,29.899003,144.70896)" fill="#f3f2f2"/>
<use data-text="t" xlink:href="#font_1_5" transform="matrix(9.9626,0,0,-9.962899,35.07956,144.70896)" fill="#f3f2f2"/>
<use data-text="d" xlink:href="#font_1_3" transform="matrix(9.9626,0,0,-9.962899,95.934009,125.46538)" fill="#f3f2f2"/>
<use data-text="y" xlink:href="#font_1_8" transform="matrix(9.9626,0,0,-9.962899,101.11456,125.46538)" fill="#f3f2f2"/>
<path transform="matrix(1,0,0,-1.00003,-77.228,41.917875)" stroke-width=".3985" stroke-linecap="butt" stroke-miterlimit="10" stroke-linejoin="miter" fill="none" stroke="#f3f2f2" d="M173.162-87.794H183.589"/>
<use data-text="d" xlink:href="#font_1_3" transform="matrix(9.9626,0,0,-9.962899,96.756,139.03879)" fill="#f3f2f2"/>
<use data-text="t" xlink:href="#font_1_5" transform="matrix(9.9626,0,0,-9.962899,101.936557,139.03879)" fill="#f3f2f2"/>
<use data-text="d" xlink:href="#font_1_3" transform="matrix(9.9626,0,0,-9.962899,134.202,131.13556)" fill="#f3f2f2"/>
<use data-text="z" xlink:href="#font_1_9" transform="matrix(9.9626,0,0,-9.962899,139.38257,131.13556)" fill="#f3f2f2"/>
<path transform="matrix(1,0,0,-1.00003,-38.96,47.588045)" stroke-width=".3985" stroke-linecap="butt" stroke-miterlimit="10" stroke-linejoin="miter" fill="none" stroke="#f3f2f2" d="M173.162-87.794H183.418"/>
<use data-text="d" xlink:href="#font_1_3" transform="matrix(9.9626,0,0,-9.962899,134.939,144.70896)" fill="#f3f2f2"/>
<use data-text="t" xlink:href="#font_1_5" transform="matrix(9.9626,0,0,-9.962899,140.11957,144.70896)" fill="#f3f2f2"/>
<use data-text="D" xlink:href="#font_3_46" transform="matrix(9.9626,0,0,-9.962899,220.881,15.059067)" fill="#8f8c87"/>
<use data-text="e" xlink:href="#font_3_50" transform="matrix(9.9626,0,0,-9.962899,228.49242,15.059067)" fill="#8f8c87"/>
<use data-text="p" xlink:href="#font_3_84" transform="matrix(9.9626,0,0,-9.962899,232.91582,15.059067)" fill="#8f8c87"/>
<use data-text="e" xlink:href="#font_3_50" transform="matrix(9.9626,0,0,-9.962899,238.73397,15.059067)" fill="#8f8c87"/>
<use data-text="n" xlink:href="#font_3_77" transform="matrix(9.9626,0,0,-9.962899,243.15737,15.059067)" fill="#8f8c87"/>
<use data-text="d" xlink:href="#font_3_47" transform="matrix(9.9626,0,0,-9.962899,248.69657,15.059067)" fill="#8f8c87"/>
<use data-text="e" xlink:href="#font_3_50" transform="matrix(9.9626,0,0,-9.962899,254.23577,15.059067)" fill="#8f8c87"/>
<use data-text="n" xlink:href="#font_3_77" transform="matrix(9.9626,0,0,-9.962899,258.65919,15.059067)" fill="#8f8c87"/>
<use data-text="t" xlink:href="#font_3_105" transform="matrix(9.9626,0,0,-9.962899,263.92939,15.059067)" fill="#8f8c87"/>
<use data-text="v" xlink:href="#font_3_112" transform="matrix(9.9626,0,0,-9.962899,271.11244,15.059067)" fill="#8f8c87"/>
<use data-text="a" xlink:href="#font_3_28" transform="matrix(9.9626,0,0,-9.962899,275.8247,15.059067)" fill="#8f8c87"/>
<use data-text="r" xlink:href="#font_3_96" transform="matrix(9.9626,0,0,-9.962899,280.80604,15.059067)" fill="#8f8c87"/>
<use data-text="i" xlink:href="#font_3_66" transform="matrix(9.9626,0,0,-9.962899,284.71138,15.059067)" fill="#8f8c87"/>
<use data-text="a" xlink:href="#font_3_28" transform="matrix(9.9626,0,0,-9.962899,287.48097,15.059067)" fill="#8f8c87"/>
<use data-text="b" xlink:href="#font_3_35" transform="matrix(9.9626,0,0,-9.962899,292.46226,15.059067)" fill="#8f8c87"/>
<use data-text="l" xlink:href="#font_3_72" transform="matrix(9.9626,0,0,-9.962899,298.00148,15.059067)" fill="#8f8c87"/>
<use data-text="e" xlink:href="#font_3_50" transform="matrix(9.9626,0,0,-9.962899,300.77107,15.059067)" fill="#8f8c87"/>
<use data-text="I" xlink:href="#font_3_65" transform="matrix(9.9626,0,0,-9.962899,220.881,91.09135)" fill="#8f8c87"/>
<use data-text="n" xlink:href="#font_3_77" transform="matrix(9.9626,0,0,-9.962899,224.4775,91.09135)" fill="#8f8c87"/>
<use data-text="t" xlink:href="#font_3_105" transform="matrix(9.9626,0,0,-9.962899,229.7477,91.09135)" fill="#8f8c87"/>
<use data-text="e" xlink:href="#font_3_50" transform="matrix(9.9626,0,0,-9.962899,233.62316,91.09135)" fill="#8f8c87"/>
<use data-text="r" xlink:href="#font_3_96" transform="matrix(9.9626,0,0,-9.962899,238.04656,91.09135)" fill="#8f8c87"/>
<use data-text="m" xlink:href="#font_3_75" transform="matrix(9.9626,0,0,-9.962899,241.95189,91.09135)" fill="#8f8c87"/>
<use data-text="e" xlink:href="#font_3_50" transform="matrix(9.9626,0,0,-9.962899,250.25074,91.09135)" fill="#8f8c87"/>
<use data-text="d" xlink:href="#font_3_47" transform="matrix(9.9626,0,0,-9.962899,254.67414,91.09135)" fill="#8f8c87"/>
<use data-text="i" xlink:href="#font_3_66" transform="matrix(9.9626,0,0,-9.962899,260.21333,91.09135)" fill="#8f8c87"/>
<use data-text="a" xlink:href="#font_3_28" transform="matrix(9.9626,0,0,-9.962899,262.98295,91.09135)" fill="#8f8c87"/>
<use data-text="t" xlink:href="#font_3_105" transform="matrix(9.9626,0,0,-9.962899,267.96424,91.09135)" fill="#8f8c87"/>
<use data-text="e" xlink:href="#font_3_50" transform="matrix(9.9626,0,0,-9.962899,271.8397,91.09135)" fill="#8f8c87"/>
<use data-text="v" xlink:href="#font_3_112" transform="matrix(9.9626,0,0,-9.962899,279.57069,91.09135)" fill="#8f8c87"/>
<use data-text="a" xlink:href="#font_3_28" transform="matrix(9.9626,0,0,-9.962899,284.283,91.09135)" fill="#8f8c87"/>
<use data-text="r" xlink:href="#font_3_96" transform="matrix(9.9626,0,0,-9.962899,289.26429,91.09135)" fill="#8f8c87"/>
<use data-text="i" xlink:href="#font_3_66" transform="matrix(9.9626,0,0,-9.962899,293.16963,91.09135)" fill="#8f8c87"/>
<use data-text="a" xlink:href="#font_3_28" transform="matrix(9.9626,0,0,-9.962899,295.9392,91.09135)" fill="#8f8c87"/>
<use data-text="b" xlink:href="#font_3_35" transform="matrix(9.9626,0,0,-9.962899,300.92054,91.09135)" fill="#8f8c87"/>
<use data-text="l" xlink:href="#font_3_72" transform="matrix(9.9626,0,0,-9.962899,306.45973,91.09135)" fill="#8f8c87"/>
<use data-text="e" xlink:href="#font_3_50" transform="matrix(9.9626,0,0,-9.962899,309.2293,91.09135)" fill="#8f8c87"/>
<use data-text="s" xlink:href="#font_3_98" transform="matrix(9.9626,0,0,-9.962899,313.6527,91.09135)" fill="#8f8c87"/>
<use data-text="I" xlink:href="#font_3_65" transform="matrix(9.9626,0,0,-9.962899,220.881,179.47602)" fill="#8f8c87"/>
<use data-text="n" xlink:href="#font_3_77" transform="matrix(9.9626,0,0,-9.962899,224.4775,179.47602)" fill="#8f8c87"/>
<use data-text="d" xlink:href="#font_3_47" transform="matrix(9.9626,0,0,-9.962899,230.0167,179.47602)" fill="#8f8c87"/>
<use data-text="e" xlink:href="#font_3_50" transform="matrix(9.9626,0,0,-9.962899,235.5559,179.47602)" fill="#8f8c87"/>
<use data-text="p" xlink:href="#font_3_84" transform="matrix(9.9626,0,0,-9.962899,239.9793,179.47602)" fill="#8f8c87"/>
<use data-text="e" xlink:href="#font_3_50" transform="matrix(9.9626,0,0,-9.962899,245.79744,179.47602)" fill="#8f8c87"/>
<use data-text="n" xlink:href="#font_3_77" transform="matrix(9.9626,0,0,-9.962899,250.22084,179.47602)" fill="#8f8c87"/>
<use data-text="d" xlink:href="#font_3_47" transform="matrix(9.9626,0,0,-9.962899,255.76004,179.47602)" fill="#8f8c87"/>
<use data-text="e" xlink:href="#font_3_50" transform="matrix(9.9626,0,0,-9.962899,261.29927,179.47602)" fill="#8f8c87"/>
<use data-text="n" xlink:href="#font_3_77" transform="matrix(9.9626,0,0,-9.962899,265.72267,179.47602)" fill="#8f8c87"/>
<use data-text="t" xlink:href="#font_3_105" transform="matrix(9.9626,0,0,-9.962899,270.99287,179.47602)" fill="#8f8c87"/>
<use data-text="v" xlink:href="#font_3_112" transform="matrix(9.9626,0,0,-9.962899,278.1759,179.47602)" fill="#8f8c87"/>
<use data-text="a" xlink:href="#font_3_28" transform="matrix(9.9626,0,0,-9.962899,282.88819,179.47602)" fill="#8f8c87"/>
<use data-text="r" xlink:href="#font_3_96" transform="matrix(9.9626,0,0,-9.962899,287.8695,179.47602)" fill="#8f8c87"/>
<use data-text="i" xlink:href="#font_3_66" transform="matrix(9.9626,0,0,-9.962899,291.77485,179.47602)" fill="#8f8c87"/>
<use data-text="a" xlink:href="#font_3_28" transform="matrix(9.9626,0,0,-9.962899,294.54444,179.47602)" fill="#8f8c87"/>
<use data-text="b" xlink:href="#font_3_35" transform="matrix(9.9626,0,0,-9.962899,299.52574,179.47602)" fill="#8f8c87"/>
<use data-text="l" xlink:href="#font_3_72" transform="matrix(9.9626,0,0,-9.962899,305.06495,179.47602)" fill="#8f8c87"/>
<use data-text="e" xlink:href="#font_3_50" transform="matrix(9.9626,0,0,-9.962899,307.83454,179.47602)" fill="#8f8c87"/>
<use data-text="d" xlink:href="#font_1_3" transform="matrix(9.9626,0,0,-9.962899,81.398,224.27536)" fill="#f3f2f2"/>
<use data-text="w" xlink:href="#font_1_6" transform="matrix(9.9626,0,0,-9.962899,86.57856,224.27536)" fill="#f3f2f2"/>
<path transform="matrix(1,0,0,-1.00003,-91.764,140.72785)" stroke-width=".3985" stroke-linecap="butt" stroke-miterlimit="10" stroke-linejoin="miter" fill="none" stroke="#f3f2f2" d="M173.162-87.794H185.748"/>
<use data-text="d" xlink:href="#font_1_3" transform="matrix(9.9626,0,0,-9.962899,83.299,237.84876)" fill="#f3f2f2"/>
<use data-text="t" xlink:href="#font_1_5" transform="matrix(9.9626,0,0,-9.962899,88.47956,237.84876)" fill="#f3f2f2"/>
<use data-text="=" xlink:href="#font_2_4" transform="matrix(9.9626,0,0,-9.962899,97.94601,231.01555)" fill="#f3f2f2"/>
<use data-text="&#x2202;" xlink:href="#font_1_2" transform="matrix(9.9626,0,0,-9.962899,109.65801,224.27536)" fill="#f3f2f2"/>
<use data-text="w" xlink:href="#font_1_6" transform="matrix(9.9626,0,0,-9.962899,115.48614,224.27536)" fill="#f3f2f2"/>
<path transform="matrix(1,0,0,-1.00003,-91.764,140.72785)" stroke-width=".3985" stroke-linecap="butt" stroke-miterlimit="10" stroke-linejoin="miter" fill="none" stroke="#f3f2f2" d="M201.422-87.794H214.665"/>
<use data-text="&#x2202;" xlink:href="#font_1_2" transform="matrix(9.9626,0,0,-9.962899,110.510997,237.84876)" fill="#f3f2f2"/>
<use data-text="x" xlink:href="#font_1_7" transform="matrix(9.9626,0,0,-9.962899,116.33912,237.84876)" fill="#f3f2f2"/>
<use data-text="d" xlink:href="#font_1_3" transform="matrix(9.9626,0,0,-9.962899,125.292,224.27536)" fill="#f3f2f2"/>
<use data-text="x" xlink:href="#font_1_7" transform="matrix(9.9626,0,0,-9.962899,130.47257,224.27536)" fill="#f3f2f2"/>
<path transform="matrix(1,0,0,-1.00003,-91.764,140.72785)" stroke-width=".3985" stroke-linecap="butt" stroke-miterlimit="10" stroke-linejoin="miter" fill="none" stroke="#f3f2f2" d="M217.056-87.794H227.936"/>
<use data-text="d" xlink:href="#font_1_3" transform="matrix(9.9626,0,0,-9.962899,126.340007,237.84876)" fill="#f3f2f2"/>
<use data-text="t" xlink:href="#font_1_5" transform="matrix(9.9626,0,0,-9.962899,131.52057,237.84876)" fill="#f3f2f2"/>
<use data-text="+" xlink:href="#font_2_3" transform="matrix(9.9626,0,0,-9.962899,139.581,231.01555)" fill="#f3f2f2"/>
<use data-text="&#x2202;" xlink:href="#font_1_2" transform="matrix(9.9626,0,0,-9.962899,150.73902,224.27536)" fill="#f3f2f2"/>
<use data-text="w" xlink:href="#font_1_6" transform="matrix(9.9626,0,0,-9.962899,156.56714,224.27536)" fill="#f3f2f2"/>
<path transform="matrix(1,0,0,-1.00003,-91.764,140.72785)" stroke-width=".3985" stroke-linecap="butt" stroke-miterlimit="10" stroke-linejoin="miter" fill="none" stroke="#f3f2f2" d="M242.503-87.794H255.746"/>
<use data-text="&#x2202;" xlink:href="#font_1_2" transform="matrix(9.9626,0,0,-9.962899,151.818,237.84876)" fill="#f3f2f2"/>
<use data-text="y" xlink:href="#font_1_8" transform="matrix(9.9626,0,0,-9.962899,157.64612,237.84876)" fill="#f3f2f2"/>
<use data-text="d" xlink:href="#font_1_3" transform="matrix(9.9626,0,0,-9.962899,166.37299,224.27536)" fill="#f3f2f2"/>
<use data-text="y" xlink:href="#font_1_8" transform="matrix(9.9626,0,0,-9.962899,171.55353,224.27536)" fill="#f3f2f2"/>
<path transform="matrix(1,0,0,-1.00003,-91.764,140.72785)" stroke-width=".3985" stroke-linecap="butt" stroke-miterlimit="10" stroke-linejoin="miter" fill="none" stroke="#f3f2f2" d="M258.137-87.794H268.565"/>
<use data-text="d" xlink:href="#font_1_3" transform="matrix(9.9626,0,0,-9.962899,167.195,237.84876)" fill="#f3f2f2"/>
<use data-text="t" xlink:href="#font_1_5" transform="matrix(9.9626,0,0,-9.962899,172.37555,237.84876)" fill="#f3f2f2"/>
<use data-text="+" xlink:href="#font_2_3" transform="matrix(9.9626,0,0,-9.962899,180.21002,231.01555)" fill="#f3f2f2"/>
<use data-text="&#x2202;" xlink:href="#font_1_2" transform="matrix(9.9626,0,0,-9.962899,191.36801,224.27536)" fill="#f3f2f2"/>
<use data-text="w" xlink:href="#font_1_6" transform="matrix(9.9626,0,0,-9.962899,197.19614,224.27536)" fill="#f3f2f2"/>
<path transform="matrix(1,0,0,-1.00003,-91.764,140.72785)" stroke-width=".3985" stroke-linecap="butt" stroke-miterlimit="10" stroke-linejoin="miter" fill="none" stroke="#f3f2f2" d="M283.132-87.794H296.375"/>
<use data-text="&#x2202;" xlink:href="#font_1_2" transform="matrix(9.9626,0,0,-9.962899,192.53299,237.84876)" fill="#f3f2f2"/>
<use data-text="z" xlink:href="#font_1_9" transform="matrix(9.9626,0,0,-9.962899,198.36112,237.84876)" fill="#f3f2f2"/>
<use data-text="d" xlink:href="#font_1_3" transform="matrix(9.9626,0,0,-9.962899,207.00199,224.27536)" fill="#f3f2f2"/>
<use data-text="z" xlink:href="#font_1_9" transform="matrix(9.9626,0,0,-9.962899,212.18253,224.27536)" fill="#f3f2f2"/>
<path transform="matrix(1,0,0,-1.00003,-91.764,140.72785)" stroke-width=".3985" stroke-linecap="butt" stroke-miterlimit="10" stroke-linejoin="miter" fill="none" stroke="#f3f2f2" d="M298.766-87.794H309.023"/>
<use data-text="d" xlink:href="#font_1_3" transform="matrix(9.9626,0,0,-9.962899,207.73899,237.84876)" fill="#f3f2f2"/>
<use data-text="t" xlink:href="#font_1_5" transform="matrix(9.9626,0,0,-9.962899,212.91953,237.84876)" fill="#f3f2f2"/>
</svg>
